/* XPM */
static char * COLLECT_xpm[] = {
"64 64 303 2",
"  	c #1A1C2C",
". 	c #333C57",
"+ 	c #3A425A",
"@ 	c #8D8F97",
"# 	c #ACADB3",
"$ 	c #CACBCD",
"% 	c #ABADB2",
"& 	c #9EA0A6",
"* 	c #777A85",
"= 	c #353E58",
"- 	c #595D6E",
"; 	c #C6C7CA",
"> 	c #F6F5F5",
", 	c #DDDCDC",
"' 	c #C4BFBC",
") 	c #C5BFBD",
"! 	c #D0CDCB",
"~ 	c #D1D0CF",
"{ 	c #E7E7E6",
"] 	c #F5F5F5",
"^ 	c #D2D2D4",
"/ 	c #80838D",
"( 	c #353D58",
"_ 	c #A7A9AE",
": 	c #F3F3F4",
"< 	c #CDC9C7",
"[ 	c #836755",
"} 	c #7C4F20",
"| 	c #7F501F",
"1 	c #7A4D1E",
"2 	c #80634F",
"3 	c #B8B1AE",
"4 	c #F6F6F6",
"5 	c #C2C3C7",
"6 	c #494E63",
"7 	c #83868F",
"8 	c #E7E7E8",
"9 	c #E9E8E8",
"0 	c #988980",
"a 	c #7D4F1F",
"b 	c #877366",
"c 	c #DEDCDC",
"d 	c #676B79",
"e 	c #444A60",
"f 	c #C3C4C8",
"g 	c #F6F6F5",
"h 	c #B3A9A3",
"i 	c #794C1E",
"j 	c #764A1D",
"k 	c #C8C5C3",
"l 	c #E1E1E3",
"m 	c #373F59",
"n 	c #39415A",
"o 	c #DDDDDF",
"p 	c #DDDBD9",
"q 	c #82644F",
"r 	c #79502C",
"s 	c #F4F4F4",
"t 	c #858790",
"u 	c #B5B6BA",
"v 	c #E2E0DF",
"w 	c #7C5432",
"x 	c #7C4E1E",
"y 	c #8A6346",
"z 	c #B98F75",
"A 	c #D2A58B",
"B 	c #DCAE94",
"C 	c #D6A98F",
"D 	c #CA9E85",
"E 	c #C5997F",
"F 	c #A77F66",
"G 	c #7D5330",
"H 	c #C6C2C0",
"I 	c #CBCCCE",
"J 	c #606474",
"K 	c #917E73",
"L 	c #936C50",
"M 	c #D4A78C",
"N 	c #F3BFA1",
"O 	c #ECBA9C",
"P 	c #B48B72",
"Q 	c #B4AFAC",
"R 	c #EEEEEE",
"S 	c #42495F",
"T 	c #D5D6D8",
"U 	c #C5C1BF",
"V 	c #7A4E22",
"W 	c #BF947B",
"X 	c #F2BEA0",
"Y 	c #EEBB9E",
"Z 	c #EFBC9F",
"` 	c #D7AA8F",
" .	c #BDA191",
"..	c #E7E6E6",
"+.	c #E5E5E6",
"@.	c #B3B4B9",
"#.	c #525769",
"$.	c #70737F",
"%.	c #F3F2F2",
"&.	c #7B583D",
"*.	c #7D5129",
"=.	c #D3A68B",
"-.	c #DBAD93",
";.	c #E1B296",
">.	c #D8BAAB",
",.	c #D6D3D1",
"'.	c #E3E2E1",
").	c #E4E3E2",
"!.	c #F2F2F2",
"~.	c #797C87",
"{.	c #BFC0C4",
"].	c #C6C1BE",
"^.	c #7B4D1E",
"/.	c #C99E85",
"(.	c #E3B398",
"_.	c #DAAD92",
":.	c #DCAE93",
"<.	c #E2B296",
"[.	c #F1BEA0",
"}.	c #D7CAC3",
"|.	c #FFFFFF",
"1.	c #FCFCFC",
"2.	c #DDDCDB",
"3.	c #E9E9EA",
"4.	c #E0E0E2",
"5.	c #938176",
"6.	c #A78067",
"7.	c #DEBAA7",
"8.	c #E5E1DF",
"9.	c #FBFBFB",
"0.	c #E2DBD8",
"a.	c #DEB7A3",
"b.	c #DAB39D",
"c.	c #FDFDFD",
"d.	c #F1F0F0",
"e.	c #767984",
"f.	c #EAEBED",
"g.	c #704822",
"h.	c #784C20",
"i.	c #E4B498",
"j.	c #DDBBA8",
"k.	c #F9F9F9",
"l.	c #DEB6A0",
"m.	c #D7BEB2",
"n.	c #E2E1E0",
"o.	c #EEECEC",
"p.	c #A7A8AE",
"q.	c #ECECED",
"r.	c #72471B",
"s.	c #9E765C",
"t.	c #E7E4E2",
"u.	c #DDD2CD",
"v.	c #D7BFB2",
"w.	c #EAE9E9",
"x.	c #AFB0B5",
"y.	c #E9E9EB",
"z.	c #6D441B",
"A.	c #C3987E",
"B.	c #DAAC92",
"C.	c #FEFEFE",
"D.	c #E5E5E5",
"E.	c #F3C0A3",
"F.	c #DAB29D",
"G.	c #E5E4E4",
"H.	c #E8E8E9",
"I.	c #7C5F4C",
"J.	c #7E4F1F",
"K.	c #DBAC91",
"L.	c #D9AC93",
"M.	c #E3E2E2",
"N.	c #F3C0A2",
"O.	c #F1BDA0",
"P.	c #D8CDC8",
"Q.	c #E0D9D7",
"R.	c #93949C",
"S.	c #E4E5E6",
"T.	c #937D71",
"U.	c #74491D",
"V.	c #E3B397",
"W.	c #EBB99D",
"X.	c #EDEDEC",
"Y.	c #DACAC3",
"Z.	c #E7B69A",
"`.	c #D7C0B4",
" +	c #DED8D5",
".+	c #DBD7D4",
"++	c #DCC8BE",
"@+	c #E0D7D2",
"#+	c #A4A6AC",
"$+	c #8C7466",
"%+	c #73481B",
"&+	c #EAB99C",
"*+	c #D8C3B9",
"=+	c #E9E5E3",
"-+	c #E7B79D",
";+	c #ECBA9D",
">+	c #D5A98F",
",+	c #D5C7C0",
"'+	c #AEAFB5",
")+	c #826553",
"!+	c #73481C",
"~+	c #F0BD9F",
"{+	c #DAC0B3",
"]+	c #E3E0DF",
"^+	c #EEEDED",
"/+	c #E4E1E0",
"(+	c #DDC8BE",
"_+	c #E8B79B",
":+	c #E6B599",
"<+	c #E4B397",
"[+	c #D0A68D",
"}+	c #D3C4BD",
"|+	c #D4D5D7",
"1+	c #ABA09B",
"2+	c #7B4E1F",
"3+	c #DEAE93",
"4+	c #F2BEA1",
"5+	c #EDBB9D",
"6+	c #D6C9C4",
"7+	c #92949C",
"8+	c #F2F2F1",
"9+	c #8B7364",
"0+	c #CC9F85",
"a+	c #EAB99D",
"b+	c #EAB89C",
"c+	c #EBB99C",
"d+	c #F3BFA2",
"e+	c #D8D6D5",
"f+	c #93959D",
"g+	c #B2B3B8",
"h+	c #EAEAE9",
"i+	c #785130",
"j+	c #9E7961",
"k+	c #DBAE93",
"l+	c #D7AB92",
"m+	c #D8AB91",
"n+	c #F3F3F3",
"o+	c #565B6C",
"p+	c #DADBDD",
"q+	c #B7B1AD",
"r+	c #7E501F",
"s+	c #724D2F",
"t+	c #E9B79B",
"u+	c #DFAF94",
"v+	c #D3C2BA",
"w+	c #DADADC",
"x+	c #6F727F",
"y+	c #B5ADA9",
"z+	c #5E3C1D",
"A+	c #DDAF94",
"B+	c #EEBDA0",
"C+	c #B5917C",
"D+	c #E9B79A",
"E+	c #D6AD95",
"F+	c #82848E",
"G+	c #DCDCDE",
"H+	c #F7F6F6",
"I+	c #D7CAC5",
"J+	c #D9AB91",
"K+	c #DDAE93",
"L+	c #CFA48B",
"M+	c #E5B599",
"N+	c #D6D2CF",
"O+	c #CDCED1",
"P+	c #DFDEE0",
"Q+	c #E6E5E4",
"R+	c #D8B29C",
"S+	c #CDBFB8",
"T+	c #EEEEEF",
"U+	c #4D5366",
"V+	c #BEBFC3",
"W+	c #F1F1F1",
"X+	c #DCBCAB",
"Y+	c #E3B69D",
"Z+	c #DAD0CB",
"`+	c #F1F1F2",
" @	c #707380",
".@	c #989AA1",
"+@	c #E5D8D2",
"@@	c #DDB29A",
"#@	c #F2BFA1",
"$@	c #DFB8A4",
"%@	c #E3D5CE",
"&@	c #CFCFD2",
"*@	c #5A5E6F",
"=@	c #54596B",
"-@	c #F5F4F4",
";@	c #DCCEC8",
">@	c #E0CDC3",
",@	c #DBCEC7",
"'@	c #E1D8D4",
")@	c #E0DEDE",
"!@	c #EFEEEE",
"~@	c #EDEDEE",
"{@	c #6B6E7C",
"]@	c #374059",
"^@	c #878A93",
"/@	c #ADAEB4",
"(@	c #B8B9BE",
"_@	c #AFB1B6",
":@	c #A0A2A8",
"<@	c #80828C",
"[@	c #494F63",
"                                                                                                                                ",
"      . . . . . . . . . . . . . . . . . . . . . . . . . . . . . . . . . . . . . . . . . . . . . . . . . . . . . . . . . .       ",
"      . . . . . . . . . . . . . . . . . . . . . . . . . . . . . . . . . . . . . . . . . . . . . . . . . . . . . . . . . .       ",
"  . . . . . . . . . . . . . . . . . . . . . . . . . . . . . . . . . . . . . . . . . . . . . . . . . . . . . . . . . . . . . .   ",
"  . . . . . . . . . . . . . . . . . . . . . . . . . . . . . . . . . . . . . . . . . . . . . . . . . . . . . . . . . . . . . .   ",
"  . . . . . . . . . . . . . . . . . . . . . . . . . . . . . . . . . . . . . . . . . . . . . . . . . . . . . . . . . . . . . .   ",
"  . . . . . . . . . . . . . . . . . . . . . . . . . . . . . . . . . . . . . . . . . . . . . . . . . . . . . . . . . . . . . .   ",
"  . . . . . . . . . . . . . . . . . . . . . . . . . . . . . . . . . . . . . . . . . . . . . . . . . . . . . . . . . . . . . .   ",
"  . . . . . . . . . . . . . . . . . . . . . . . . . . . . . . . . . . . . . . . . . . . . . . . . . . . . . . . . . . . . . .   ",
"  . . . . . . . . . . . . . . . . . . . . . . . . . . . . . . . . . . . . . . . . . . . . . . . . . . . . . . . . . . . . . .   ",
"  . . . . . . . . . . . . . . . . . . . . . . . . . . . . . . . . . . . . . . . . . . . . . . . . . . . . . . . . . . . . . .   ",
"  . . . . . . . . . . . . . . . . . . . . . . . . . . . . . . . . . . . . . . . . . . . . . . . . . . . . . . . . . . . . . .   ",
"  . . . . . . . . . . . . . . . . . . . . . . . . . . . . . . . . . . . . . . . . . . . . . . . . . . . . . . . . . . . . . .   ",
"  . . . . . . . . . . . . . . . . . . . . . . . . . . . . . . . . . . . . . . . . . . . . . . . . . . . . . . . . . . . . . .   ",
"  . . . . . . . . . . . . . . . . . . . . . . . . . . . . . . . . . . . . . . . . . . . . . . . . . . . . . . . . . . . . . .   ",
"  . . . . . . . . . . . . . . . . . . . . . . . . . . . . . . . . . . . . . . . . . . . . . . . . . . . . . . . . . . . . . .   ",
"  . . . . . . . . . . . . . . . . . . . . . . . . . . . . . . . . . . . . . . . . . . . . . . . . . . . . . . . . . . . . . .   ",
"  . . . . . . . . . . . . . . . . . . . . . . . . . . + @ # $ % & * = . . . . . . . . . . . . . . . . . . . . . . . . . . . .   ",
"  . . . . . . . . . . . . . . . . . . . . . . . . - ; > , ' ) ! ~ { ] ^ / . . . . . . . . . . . . . . . . . . . . . . . . . .   ",
"  . . . . . . . . . . . . . . . . . . . . . . ( _ : < [ } | | | | 1 2 3 4 5 6 . . . . . . . . . . . . . . . . . . . . . . . .   ",
"  . . . . . . . . . . . . . . . . . . . . . 7 8 9 0 a | | | | | | | | | b c 8 d . . . . . . . . . . . . . . . . . . . . . . .   ",
"  . . . . . . . . . . . . . . . . . . . e f g h i | | | | | | | | | | | | j k l m . . . . . . . . . . . . . . . . . . . . . .   ",
"  . . . . . . . . . . . . . . . . . . n o p q | | | | | | | | | | | | | | | r s t . . . . . . . . . . . . . . . . . . . . . .   ",
"  . . . . . . . . . . . . . . . . . . u v w | | | | | | x y z A B C D E F G | H I . . . . . . . . . . . . . . . . . . . . . .   ",
"  . . . . . . . . . . . . . . . . . J 4 K | | | | | a L M N N N N N N N N O P Q R S . . . . . . . . . . . . . . . . . . . . .   ",
"  . . . . . . . . . . . . . . . . . T U x | | | | V W X N N N N Y N N N N Z `  ...+.@.#.. . . . . . . . . . . . . . . . . . .   ",
"  . . . . . . . . . . . . . . . . $.%.&.| | | | *.=.N N N N N -.;.N N N N N Z >.,.'.).!.~.. . . . . . . . . . . . . . . . . .   ",
"  . . . . . . . . . . . . . . . . {.].| | | | ^./.N N N N (._.:.<.N N N N [.}.|.|.|.1.2.3.. . . . . . . . . . . . . . . . . .   ",
"  . . . . . . . . . . . . . . . . 4.5.| | | | 6.N N N N N 7.8.9.] 0.a.N N b.c.|.|.|.|.4 d.e.. . . . . . . . . . . . . . . . .   ",
"  . . . . . . . . . . . . . . . . f.g.| | | h.i.N N N N j.k.|.|.|.|.s l.N m.|.|.|.|.n.|.o.p.. . . . . . . . . . . . . . . . .   ",
"  . . . . . . . . . . . . . . . . q.r.| | | s.N N N N Z t.|.|.|.|.|.|.u.N v.|.|.|.|.|.|.w.x.. . . . . . . . . . . . . . . . .   ",
"  . . . . . . . . . . . . . . . . y.z.| | | A.N N N N B.C.|.k.|.|.|.|.D.E.F.c.|.|.|.|.|.G.p.. . . . . . . . . . . . . . . . .   ",
"  . . . . . . . . . . . . . . . . H.I.| | J.K.N N N N L.|.C.D.|.|.|.|.M.N.O.P.|.|.|.|.Q.G.R.. . . . . . . . . . . . . . . . .   ",
"  . . . . . . . . . . . . . . . . S.T.| | U.V.N N N N W.X.|.|.|.|.|.|.Y.N N Z.`. +.+++Z.@+#+. . . . . . . . . . . . . . . . .   ",
"  . . . . . . . . . . . . . . . . +.$+| | %+&+N N N N N *+|.|.|.|.|.=+-+N N ;+>+N N N N ,+'+. . . . . . . . . . . . . . . . .   ",
"  . . . . . . . . . . . . . . . . 8 )+| | !+i.N N N N N ~+{+]+^+/+(+_+N N :+<+[+N N N N }+'+. . . . . . . . . . . . . . . . .   ",
"  . . . . . . . . . . . . . . . . |+1+| | 2+3+N N N N N N N N _+4+N N N N N :+5+N N N N 6+# . . . . . . . . . . . . . . . . .   ",
"  . . . . . . . . . . . . . . . . 7+8+9+| | 0+a+b+N N N N N N N N N N N N N c+N N N N d+e+f+. . . . . . . . . . . . . . . . .   ",
"  . . . . . . . . . . . . . . . . . g+h+i+| j+k+N N N N N N N N N N N N N N l+N N N N m+n+o+. . . . . . . . . . . . . . . . .   ",
"  . . . . . . . . . . . . . . . . . . p+q+r+s+N N N N N N N N N N N N N N O.t+u+N N N v+w+. . . . . . . . . . . . . . . . . .   ",
"  . . . . . . . . . . . . . . . . . . x+] y+z+c+N N N N N N N N N N N N A+B+C+D+N N E+!.F+. . . . . . . . . . . . . . . . . .   ",
"  . . . . . . . . . . . . . . . . . . . * G+H+I+J+K+Z N N N N N N N N N N L+M+N N _+N+O+. . . . . . . . . . . . . . . . . . .   ",
"  . . . . . . . . . . . . . . . . . . . . . d P+Q+R+N N N N N N N N N N N N N N Z S+T+U+. . . . . . . . . . . . . . . . . . .   ",
"  . . . . . . . . . . . . . . . . . . . . . . = V+W+X+N N N N N N N N N N N N Y+Z+`+ @. . . . . . . . . . . . . . . . . . . .   ",
"  . . . . . . . . . . . . . . . . . . . . . . . . .@n++@@@#@N N N N N N b+$@%@] &@*@. . . . . . . . . . . . . . . . . . . . .   ",
"  . . . . . . . . . . . . . . . . . . . . . . . . . =@; -@/+;@>@>@,@'@)@!@~@V+{@. . . . . . . . . . . . . . . . . . . . . . .   ",
"  . . . . . . . . . . . . . . . . . . . . . . . . . . . ]@^@/@(@_@% :@<@[@. . . . . . . . . . . . . . . . . . . . . . . . . .   ",
"  . . . . . . . . . . . . . . . . . . . . . . . . . . . . . . . . . . . . . . . . . . . . . . . . . . . . . . . . . . . . . .   ",
"  . . . . . . . . . . . . . . . . . . . . . . . . . . . . . . . . . . . . . . . . . . . . . . . . . . . . . . . . . . . . . .   ",
"  . . . . . . . . . . . . . . . . . . . . . . . . . . . . . . . . . . . . . . . . . . . . . . . . . . . . . . . . . . . . . .   ",
"  . . . . . . . . . . . . . . . . . . . . . . . . . . . . . . . . . . . . . . . . . . . . . . . . . . . . . . . . . . . . . .   ",
"  . . . . . . . . . . . . . . . . . . . . . . . . . . . . . . . . . . . . . . . . . . . . . . . . . . . . . . . . . . . . . .   ",
"  . . . . . . . . . . . . . . . . . . . . . . . . . . . . . . . . . . . . . . . . . . . . . . . . . . . . . . . . . . . . . .   ",
"  . . . . . . . . . . . . . . . . . . . . . . . . . . . . . . . . . . . . . . . . . . . . . . . . . . . . . . . . . . . . . .   ",
"  . . . . . . . . . . . . . . . . . . . . . . . . . . . . . . . . . . . . . . . . . . . . . . . . . . . . . . . . . . . . . .   ",
"  . . . . . . . . . . . . . . . . . . . . . . . . . . . . . . . . . . . . . . . . . . . . . . . . . . . . . . . . . . . . . .   ",
"  . . . . . . . . . . . . . . . . . . . . . . . . . . . . . . . . . . . . . . . . . . . . . . . . . . . . . . . . . . . . . .   ",
"  . . . . . . . . . . . . . . . . . . . . . . . . . . . . . . . . . . . . . . . . . . . . . . . . . . . . . . . . . . . . . .   ",
"  . . . . . . . . . . . . . . . . . . . . . . . . . . . . . . . . . . . . . . . . . . . . . . . . . . . . . . . . . . . . . .   ",
"  . . . . . . . . . . . . . . . . . . . . . . . . . . . . . . . . . . . . . . . . . . . . . . . . . . . . . . . . . . . . . .   ",
"  . . . . . . . . . . . . . . . . . . . . . . . . . . . . . . . . . . . . . . . . . . . . . . . . . . . . . . . . . . . . . .   ",
"      . . . . . . . . . . . . . . . . . . . . . . . . . . . . . . . . . . . . . . . . . . . . . . . . . . . . . . . . . .       ",
"      . . . . . . . . . . . . . . . . . . . . . . . . . . . . . . . . . . . . . . . . . . . . . . . . . . . . . . . . . .       ",
"                                                                                                                                "};
