/* XPM */
static char *_b6bd0c05ed94eeba3c14190ff09df258Zrf25kPS8OB16pz[] = {
/* columns rows colors chars-per-pixel */
"64 64 152 2 ",
"   c #131528",
".  c #3B172A",
"X  c #3A192C",
"o  c #3B1B30",
"O  c #36233D",
"+  c #481B36",
"@  c #67193A",
"#  c #73173B",
"$  c #79173B",
"%  c #73183C",
"&  c #7A183B",
"*  c #7C423F",
"=  c #352540",
"-  c #3C2643",
";  c #362945",
":  c #3A2B4A",
">  c #34324F",
",  c #353554",
"<  c #3B3554",
"1  c #303956",
"2  c #353B59",
"3  c #3B3B5D",
"4  c #3D3E60",
"5  c #721D47",
"6  c #462744",
"7  c #4D2644",
"8  c #532645",
"9  c #582645",
"0  c #492D55",
"q  c #403353",
"w  c #4C325D",
"e  c #4A395D",
"r  c #602144",
"t  c #7D3157",
"y  c #4A3661",
"u  c #543365",
"i  c #543669",
"p  c #58386E",
"a  c #5F3871",
"s  c #712A61",
"d  c #653876",
"f  c #6F377A",
"g  c #6C397D",
"h  c #39405F",
"j  c #3F4462",
"k  c #4D415F",
"l  c #6A575C",
"z  c #454565",
"x  c #464E6F",
"c  c #514563",
"v  c #55496D",
"b  c #4C5173",
"n  c #5A5677",
"m  c #7D5661",
"M  c #615671",
"N  c #6D616A",
"B  c #861936",
"V  c #8C1E32",
"C  c #84193B",
"Z  c #8D1A3B",
"A  c #921B3D",
"S  c #9F1D3E",
"D  c #AF1F2E",
"F  c #A61E3F",
"G  c #AE1F3F",
"H  c #BA203C",
"J  c #F43F0F",
"K  c #E4291F",
"L  c #E82F1B",
"P  c #EE3715",
"I  c #E1341E",
"U  c #EA3218",
"Y  c #F13C13",
"T  c #CE222F",
"R  c #C82A2C",
"E  c #DE2324",
"W  c #D82C26",
"Q  c #D4222B",
"!  c #D73325",
"~  c #C52234",
"^  c #CA2231",
"/  c #C3243A",
"(  c #C82739",
")  c #DE3437",
"_  c #E12621",
"`  c #E32920",
"'  c #E13133",
"]  c #F6410D",
"[  c #FA460A",
"{  c #B11F40",
"}  c #A92241",
"|  c #B42040",
" . c #BB6447",
".. c #B46D5B",
"X. c #CD7E57",
"o. c #BA8060",
"O. c #D5895E",
"+. c #DB9263",
"@. c #E29F72",
"#. c #E7AA7E",
"$. c #6F3B80",
"%. c #505E86",
"&. c #6A5789",
"*. c #635889",
"=. c #6C5E92",
"-. c #60678B",
";. c #6E738D",
":. c #76679F",
">. c #7D7793",
",. c #827E99",
"<. c #AA4CA4",
"1. c #BC4AAC",
"2. c #7E8093",
"3. c #7C83AC",
"4. c #6B84B5",
"5. c #85809C",
"6. c #8F8EAA",
"7. c #8D92AD",
"8. c #9493AD",
"9. c #9E9CAB",
"0. c #8889B3",
"q. c #B393AE",
"w. c #A2A0AE",
"e. c #A7A3B4",
"r. c #DE858F",
"t. c #D098B2",
"y. c #E29EAB",
"u. c #F2C198",
"i. c #9A98CF",
"p. c #98A3D1",
"a. c #A8ABC3",
"s. c #B1B3CC",
"d. c #B0A6D5",
"f. c #B9BDD5",
"g. c #B7BADF",
"h. c #ACBAEB",
"j. c #C2A5CB",
"k. c #B5C3F5",
"l. c #BCCBFB",
"z. c #CDCED8",
"x. c #D6D5DA",
"c. c #CFD4EA",
"v. c #C3D1FC",
"b. c #D2DEFC",
"n. c #DEE6FF",
"m. c #ECEBEE",
"M. c #E3EAFE",
"N. c #EEF2FF",
"B. c #F2F1F3",
"V. c #F4F7FF",
"C. c #F6F8FF",
"Z. c #FEFFFF",
/* pixels */
"                                                                                                                                ",
"      1 1 1 1 1 1 1 1 1 1 1 1 1 1 1 1 1 1 1 1 1 1 1 1 1 1 1 1 1 1 1 1 1 1 1 1 1 1 1 1 1 1 1 1 1 1 1 1 1 1 1 1 1 1 1 1 1 1       ",
"      1 1 1 1 1 1 1 1 1 1 1 1 1 1 1 1 1 1 1 1 1 1 1 1 1 1 1 1 1 1 1 1 1 1 1 1 1 1 1 1 1 1 1 1 1 1 1 1 1 1 1 1 1 1 1 1 1 1       ",
"  1 1 1 1 1 1 1 1 1 1 1 1 1 1 1 1 1 1 1 1 1 1 1 1 1 1 1 1 1 1 1 1 1 1 1 1 1 1 1 1 1 1 1 1 1 1 1 1 1 1 1 1 1 1 1 1 1 1 1 1 1 1   ",
"  1 1 1 1 1 1 1 1 1 1 1 1 1 1 1 1 1 1 1 1 1 1 1 1 1 1 1 1 1 1 1 1 1 1 1 1 1 1 1 1 1 1 1 1 1 1 1 1 1 1 1 1 1 1 1 1 1 1 1 1 1 1   ",
"  1 1 1 1 1 1 1 1 1 1 1 1 1 1 1 1 1 1 1 1 1 1 1 1 1 1 1 1 1 1 1 1 1 1 1 1 1 1 1 1 1 1 1 1 1 1 1 1 1 1 1 1 1 1 1 1 1 1 1 1 1 1   ",
"  1 1 1 1 1 1 1 1 1 1 1 1 1 1 1 1 1 1 1 1 1 1 1 1 1 1 1 1 1 1 1 1 1 1 1 1 1 1 1 1 1 1 1 1 1 1 1 1 1 1 1 1 1 1 1 1 1 1 1 1 1 1   ",
"  1 1 1 1 1 1 1 1 1 1 1 1 1 1 1 1 1 1 1 1 1 1 1 1 1 1 1 1 1 1 1 1 1 1 1 1 1 1 1 1 1 1 1 1 1 1 1 1 1 1 1 1 1 1 1 1 1 1 1 1 1 1   ",
"  1 1 1 1 1 1 1 1 1 1 1 1 1 1 1 1 1 1 1 1 1 1 1 1 1 1 1 1 1 1 1 1 1 1 1 1 1 1 1 1 1 1 1 1 1 1 1 1 1 1 1 1 1 1 1 1 1 1 1 1 1 1   ",
"  1 1 1 1 1 1 1 1 1 1 1 1 1 1 1 1 1 1 1 1 1 1 1 1 1 1 1 1 1 1 1 1 1 1 1 1 1 1 1 1 1 1 1 1 1 1 1 1 1 1 1 1 1 1 1 1 1 1 1 1 1 1   ",
"  1 1 1 1 1 1 1 1 1 1 1 1 1 1 1 1 1 1 1 1 1 1 1 1 1 1 1 1 1 1 1 1 1 1 1 1 1 1 1 1 1 1 1 1 1 1 1 1 1 1 1 1 1 1 1 1 1 1 1 1 1 1   ",
"  1 1 1 1 1 1 1 1 1 1 1 1 1 1 1 1 1 1 1 1 1 1 1 1 1 1 1 1 1 1 1 1 1 1 1 1 1 1 1 1 1 1 1 1 1 1 1 1 1 1 1 1 1 1 1 1 1 1 1 1 1 1   ",
"  1 1 1 1 1 1 1 1 1 1 1 1 1 1 1 1 1 1 1 1 1 1 1 1 1 1 1 1 1 1 1 1 1 1 1 1 1 1 1 1 1 1 1 1 1 1 1 1 1 1 1 1 1 1 1 1 1 1 1 1 1 1   ",
"  1 1 1 1 1 1 1 1 1 1 1 1 1 1 1 1 1 1 1 1 1 1 1 1 1 1 1 1 1 1 1 1 1 1 1 1 1 1 1 1 1 1 1 1 1 1 1 1 1 1 1 1 1 1 1 1 1 1 1 1 1 1   ",
"  1 1 1 1 1 1 1 1 1 1 1 1 1 1 1 1 1 1 1 1 1 1 1 1 1 1 1 1 1 1 1 1 1 1 1 1 1 1 1 1 1 1 1 1 1 1 1 1 1 1 1 1 1 1 1 1 1 1 1 1 1 1   ",
"  1 1 1 1 1 1 1 1 1 1 1 1 1 1 1 1 1 1 1 1 1 1 1 1 1 1 1 1 1 1 1 1 1 1 1 1 1 1 1 1 1 1 1 1 1 1 1 1 1 1 1 1 1 1 1 1 1 1 1 1 1 1   ",
"  1 1 1 1 1 1 1 1 1 1 1 1 1 1 1 1 1 1 1 1 1 1 1 1 1 1 1 1 1 1 1 1 1 1 1 1 1 1 1 1 1 1 n.l.k.N h 1 1 1 1 1 1 1 1 1 1 1 1 1 1 1   ",
"  1 1 1 1 1 1 1 1 1 1 1 1 1 1 1 1 1 1 1 1 1 1 1 1 1 1 1 1 1 1 1 1 1 1 1 1 1 1 1 1 h z.k.w.u.#.l 1 1 1 1 1 1 1 1 1 1 1 1 1 1 1   ",
"  1 1 1 1 1 1 1 1 1 1 1 1 1 1 1 1 1 1 1 1 1 1 1 1 1 1 1 1 1 1 1 1 1 1 1 1 1 1 1 1 j B...+.@.#. .o.1 1 1 1 1 1 1 1 1 1 1 1 1 1   ",
"  1 1 1 1 1 1 1 1 1 1 1 1 1 1 1 1 1 1 1 1 1 1 1 1 1 1 1 1 1 1 1 1 1 1 1 1 1 1 1 1 k.M.l. .O.X.O. .1 1 1 1 1 1 1 1 1 1 1 1 1 1   ",
"  1 1 1 1 1 1 1 1 1 1 1 1 1 1 1 1 1 1 1 1 1 1 1 1 1 1 1 1 1 1 1 1 1 1 1 1 1 1 1 k.1 4.C.k.m  .* 1.1 1 1 1 1 1 1 1 1 1 1 1 1 1   ",
"  1 1 1 1 1 1 1 1 1 1 1 1 1 1 1 1 1 1 1 1 1 1 1 1 1 1 1 1 1 1 1 1 1 1 1 1 h 3.p.1 h 1 4.b.g.m 0.<.1 1 1 1 1 1 1 1 1 1 1 1 1 1   ",
"  1 1 1 1 1 1 1 1 1 1 1 1 1 1 1 1 1 1 1 1 1 1 1 1 1 1 1 1 1 1 1 1 1 1 b 3.3.-.1 4.x 1 1 %.d.i.:.3 1 1 1 1 1 1 1 1 1 1 1 1 1 1   ",
"  1 1 1 1 1 1 1 1 1 1 1 1 1 1 1 1 1 1 1 1 1 1 1 1 1 1 1 1 1 1 1 9.c.h.k.1 1 f.h.1 1 1 1 1 $.e 1 1 1 1 1 1 1 1 1 1 1 1 1 1 1 1   ",
"  1 1 1 1 1 1 1 1 1 1 1 1 1 1 1 1 1 1 1 1 1 1 1 1 1 1 e.Z.M.M.M.s.q q q n M.l.1 1 1 1 1 $.1 1 1 1 1 1 1 1 1 1 1 1 1 1 1 1 1 1   ",
"  1 1 1 1 1 1 1 1 1 1 1 1 1 1 1 1 1 1 1 1 1 1 1 1 Z.Z.Z.M.l.q q q q q q M.5.q q , , 1 $.1 1 1 1 1 1 1 1 1 1 1 1 1 1 1 1 1 1 1   ",
"  1 1 1 1 1 1 1 1 1 1 1 1 1 1 1 1 1 1 1 1 1 1 2.m.C.b.7.n < >.,.n.s.q q q q q q < < d 1 1 1 1 1 1 1 1 1 1 1 1 1 1 1 1 1 1 1 1   ",
"  1 1 1 1 1 1 1 1 1 1 1 1 1 1 1 1 1 1 1 1 1 x.Z.N.l.t 1 1 f.M.l.l.n q < < < r F R e p 1 1 1 1 1 1 1 1 1 1 1 1 1 1 1 1 1 1 1 1   ",
"  1 1 1 1 1 1 1 1 1 1 1 1 1 1 1 1 1 1 1 1 1 Z.C.M.l.{ # q.M.l.h.1 1 1 1 < D [ W G y e 1 1 1 1 1 1 1 1 1 1 1 1 1 1 1 1 1 1 1 1   ",
"  1 1 1 1 1 1 1 1 1 1 1 1 1 1 1 1 1 1 1 1 Z.k C.M.E E H t.l.# 1 1 1 1 # H ! E H 5 d 1 1 1 1 1 1 1 1 1 1 1 1 1 1 1 1 1 1 1 1 1   ",
"  1 1 1 1 1 1 1 1 1 1 1 1 1 1 1 1 1 1 1 m.< ' V.v.Q _ K r.) Y V V V B H L U H F q p 1 1 1 1 1 1 1 1 1 1 1 1 1 1 1 1 1 1 1 1 1   ",
"  1 1 1 1 1 1 1 1 1 1 1 1 1 1 1 1 1 1 z B.q ( y.v.^ ~ L I ^ ^ U P P P U U K H % q p 1 1 1 1 1 1 1 1 1 1 1 1 1 1 1 1 1 1 1 1 1   ",
"  1 1 1 1 1 1 1 1 1 1 1 1 1 1 1 1 1 1 9.M % | ( j.] E / _ Y E | ~ E [ [ H ^ C q d 2 1 1 1 1 1 1 1 1 1 1 1 1 1 1 1 1 1 1 1 1 1   ",
"  1 1 1 1 1 1 1 1 1 1 1 1 1 1 1 1 1 1 w.c # | | Q _ ] Q ^ ] [ E H Q E [ Q H $ q g 1 1 1 1 1 1 1 1 1 1 1 1 1 1 1 1 1 1 1 1 1 1   ",
"  1 1 1 1 1 1 1 1 1 1 1 1 1 1 1 1 1 1 w.c % | | { _ _ ] ! { E ] T Q E E J ^ & q g 1 1 1 1 1 1 1 1 1 1 1 1 1 1 1 1 1 1 1 1 1 1   ",
"  1 1 1 1 1 1 1 1 1 1 1 1 1 1 1 1 1 1 8.c # | } { { T _ _ R W _ Q H T P U H & q g 1 1 1 1 1 1 1 1 1 1 1 1 1 1 1 1 1 1 1 1 1 1   ",
"  1 1 1 1 1 1 1 1 1 1 1 1 1 1 1 1 1 1 8.y & H } { { { / Q ` ` Y ] K { B Z | $ < g 1 1 1 1 1 1 1 1 1 1 1 1 1 1 1 1 1 1 1 1 1 1   ",
"  1 1 1 1 1 1 1 1 1 1 1 1 1 1 1 1 1 1 7.6.q $ | C 5 { { | | _ _ E H | H H Z 0 g y 1 1 1 1 1 1 1 1 1 1 1 1 1 1 1 1 1 1 1 1 1 1   ",
"  1 1 1 1 1 1 1 1 1 1 1 1 1 1 1 1 1 1 1 c.< $ { Z 5 { { { { G H S # # # # # q f 1 1 1 1 1 1 1 1 1 1 1 1 1 1 1 1 1 1 1 1 1 1 1   ",
"  1 1 1 1 1 1 1 1 1 1 1 1 1 1 1 1 1 1 1 a.v 5 C H H { { A G { F $ # # 5 @ + 6 d 1 1 1 1 1 1 1 1 1 1 1 1 1 1 1 1 1 1 1 1 1 1 1   ",
"  1 1 1 1 1 1 1 1 1 1 1 1 1 1 1 1 1 1 1 1 ;.8.r Z Z | | | A Z # & & s a X 0 a : ; 6 : 1 1 1 1 1 1 1 1 1 1 1 1 1 1 1 1 1 1 1 1   ",
"  1 1 1 1 1 1 1 1 1 1 1 1 1 1 1 1 1 1 1 1 1 j 0.@ # & & & % # 5 f f i o O u : O - 8 7 > 1 1 1 1 1 1 1 1 1 1 1 1 1 1 1 1 1 1 1   ",
"  1 1 1 1 1 1 1 1 1 1 1 1 1 1 1 1 1 1 1 1 1 1 z e . . . . . $.$.i + . = $.w > - 7 7 8 9 1 1 1 1 1 1 1 1 1 1 1 1 1 1 1 1 1 1 1   ",
"  1 1 1 1 1 1 1 1 1 1 1 1 1 1 1 1 1 1 1 1 1 1 1 =.= = O . . . . o = = $.w = = 6 7 8 9 1 1 1 1 1 1 1 1 1 1 1 1 1 1 1 1 1 1 1 1   ",
"  1 1 1 1 1 1 1 1 1 1 1 1 1 1 1 1 1 1 1 1 1 1 1 1 *.*.&.p w 0 w u i i > = - 6 6 6 , 1 1 1 1 1 1 1 1 1 1 1 1 1 1 1 1 1 1 1 1 1   ",
"  1 1 1 1 1 1 1 1 1 1 1 1 1 1 1 1 1 1 1 1 1 1 1 1 1 1 4 4 2 , , , 1 1 1 ; ; ; ; 1 1 1 1 1 1 1 1 1 1 1 1 1 1 1 1 1 1 1 1 1 1 1   ",
"  1 1 1 1 1 1 1 1 1 1 1 1 1 1 1 1 1 1 1 1 1 1 1 1 1 1 1 1 1 1 1 1 1 1 1 1 1 1 1 1 1 1 1 1 1 1 1 1 1 1 1 1 1 1 1 1 1 1 1 1 1 1   ",
"  1 1 1 1 1 1 1 1 1 1 1 1 1 1 1 1 1 1 1 1 1 1 1 1 1 1 1 1 1 1 1 1 1 1 1 1 1 1 1 1 1 1 1 1 1 1 1 1 1 1 1 1 1 1 1 1 1 1 1 1 1 1   ",
"  1 1 1 1 1 1 1 1 1 1 1 1 1 1 1 1 1 1 1 1 1 1 1 1 1 1 1 1 1 1 1 1 1 1 1 1 1 1 1 1 1 1 1 1 1 1 1 1 1 1 1 1 1 1 1 1 1 1 1 1 1 1   ",
"  1 1 1 1 1 1 1 1 1 1 1 1 1 1 1 1 1 1 1 1 1 1 1 1 1 1 1 1 1 1 1 1 1 1 1 1 1 1 1 1 1 1 1 1 1 1 1 1 1 1 1 1 1 1 1 1 1 1 1 1 1 1   ",
"  1 1 1 1 1 1 1 1 1 1 1 1 1 1 1 1 1 1 1 1 1 1 1 1 1 1 1 1 1 1 1 1 1 1 1 1 1 1 1 1 1 1 1 1 1 1 1 1 1 1 1 1 1 1 1 1 1 1 1 1 1 1   ",
"  1 1 1 1 1 1 1 1 1 1 1 1 1 1 1 1 1 1 1 1 1 1 1 1 1 1 1 1 1 1 1 1 1 1 1 1 1 1 1 1 1 1 1 1 1 1 1 1 1 1 1 1 1 1 1 1 1 1 1 1 1 1   ",
"  1 1 1 1 1 1 1 1 1 1 1 1 1 1 1 1 1 1 1 1 1 1 1 1 1 1 1 1 1 1 1 1 1 1 1 1 1 1 1 1 1 1 1 1 1 1 1 1 1 1 1 1 1 1 1 1 1 1 1 1 1 1   ",
"  1 1 1 1 1 1 1 1 1 1 1 1 1 1 1 1 1 1 1 1 1 1 1 1 1 1 1 1 1 1 1 1 1 1 1 1 1 1 1 1 1 1 1 1 1 1 1 1 1 1 1 1 1 1 1 1 1 1 1 1 1 1   ",
"  1 1 1 1 1 1 1 1 1 1 1 1 1 1 1 1 1 1 1 1 1 1 1 1 1 1 1 1 1 1 1 1 1 1 1 1 1 1 1 1 1 1 1 1 1 1 1 1 1 1 1 1 1 1 1 1 1 1 1 1 1 1   ",
"  1 1 1 1 1 1 1 1 1 1 1 1 1 1 1 1 1 1 1 1 1 1 1 1 1 1 1 1 1 1 1 1 1 1 1 1 1 1 1 1 1 1 1 1 1 1 1 1 1 1 1 1 1 1 1 1 1 1 1 1 1 1   ",
"  1 1 1 1 1 1 1 1 1 1 1 1 1 1 1 1 1 1 1 1 1 1 1 1 1 1 1 1 1 1 1 1 1 1 1 1 1 1 1 1 1 1 1 1 1 1 1 1 1 1 1 1 1 1 1 1 1 1 1 1 1 1   ",
"  1 1 1 1 1 1 1 1 1 1 1 1 1 1 1 1 1 1 1 1 1 1 1 1 1 1 1 1 1 1 1 1 1 1 1 1 1 1 1 1 1 1 1 1 1 1 1 1 1 1 1 1 1 1 1 1 1 1 1 1 1 1   ",
"  1 1 1 1 1 1 1 1 1 1 1 1 1 1 1 1 1 1 1 1 1 1 1 1 1 1 1 1 1 1 1 1 1 1 1 1 1 1 1 1 1 1 1 1 1 1 1 1 1 1 1 1 1 1 1 1 1 1 1 1 1 1   ",
"  1 1 1 1 1 1 1 1 1 1 1 1 1 1 1 1 1 1 1 1 1 1 1 1 1 1 1 1 1 1 1 1 1 1 1 1 1 1 1 1 1 1 1 1 1 1 1 1 1 1 1 1 1 1 1 1 1 1 1 1 1 1   ",
"  1 1 1 1 1 1 1 1 1 1 1 1 1 1 1 1 1 1 1 1 1 1 1 1 1 1 1 1 1 1 1 1 1 1 1 1 1 1 1 1 1 1 1 1 1 1 1 1 1 1 1 1 1 1 1 1 1 1 1 1 1 1   ",
"      1 1 1 1 1 1 1 1 1 1 1 1 1 1 1 1 1 1 1 1 1 1 1 1 1 1 1 1 1 1 1 1 1 1 1 1 1 1 1 1 1 1 1 1 1 1 1 1 1 1 1 1 1 1 1 1 1 1       ",
"      1 1 1 1 1 1 1 1 1 1 1 1 1 1 1 1 1 1 1 1 1 1 1 1 1 1 1 1 1 1 1 1 1 1 1 1 1 1 1 1 1 1 1 1 1 1 1 1 1 1 1 1 1 1 1 1 1 1       ",
"                                                                                                                                "
};
