/* XPM */
static char *a9c50fd27dbf47bcb2b5778a3b7313eaOsqArSpGEGejRCMc[] = {
/* columns rows colors chars-per-pixel */
"64 64 189 2 ",
"   c #000000",
".  c #090605",
"X  c #0C0907",
"o  c #0D0C0B",
"O  c #120A06",
"+  c #120D0B",
"@  c #1A0E09",
"#  c #12100E",
"$  c #1F120B",
"%  c #0F1011",
"&  c #0A1119",
"*  c #141312",
"=  c #1C1512",
"-  c #1D1A16",
";  c #1C1B1B",
":  c #24140C",
">  c #28160E",
",  c #211715",
"<  c #221C19",
"1  c #2B1E1D",
"2  c #331C12",
"3  c #292418",
"4  c #2E211D",
"5  c #34291C",
"6  c #3E361E",
"7  c #0F1A26",
"8  c #131621",
"9  c #171A23",
"0  c #131528",
"q  c #18202D",
"w  c #222223",
"e  c #2A2521",
"r  c #2F2A24",
"t  c #2A2A2B",
"y  c #312A25",
"u  c #382A25",
"i  c #3B332D",
"p  c #262932",
"a  c #2A2D34",
"s  c #2D313F",
"d  c #323233",
"f  c #36383D",
"g  c #393939",
"h  c #412417",
"j  c #472719",
"k  c #58301F",
"l  c #402D2A",
"z  c #46342A",
"x  c #4C3632",
"c  c #423A33",
"v  c #573D3A",
"b  c #613622",
"n  c #6A3A25",
"m  c #713E28",
"M  c #4B4125",
"N  c #59472C",
"B  c #5F532F",
"V  c #4B413A",
"C  c #5A443D",
"Z  c #754029",
"A  c #7B442B",
"S  c #614F30",
"D  c #735C3A",
"F  c #78693B",
"G  c #1E334C",
"H  c #272E45",
"J  c #2C3246",
"K  c #2C3349",
"L  c #363A47",
"P  c #30364B",
"I  c #2F3854",
"U  c #303956",
"Y  c #363E59",
"T  c #3F424B",
"R  c #37405B",
"E  c #3A425D",
"W  c #274262",
"Q  c #284465",
"!  c #41434A",
"~  c #574D43",
"^  c #594E44",
"/  c #5B5147",
"(  c #44495C",
")  c #4A4D59",
"_  c #4D515D",
"`  c #555658",
"'  c #61554B",
"]  c #775848",
"[  c #6A5D52",
"{  c #7B5651",
"}  c #6F6156",
"|  c #75665A",
" . c #434B64",
".. c #494E60",
"X. c #4D5264",
"o. c #4B5268",
"O. c #565A67",
"+. c #585E72",
"@. c #5F626C",
"#. c #646569",
"$. c #6B6C6E",
"%. c #7D6E61",
"&. c #7F7062",
"*. c #6B6D72",
"=. c gray45",
"-. c #81472D",
";. c #875F5A",
":. c #886D44",
">. c #80604D",
",. c #8C7245",
"<. c #8D7B45",
"1. c #937749",
"2. c #8A605B",
"3. c #90655F",
"4. c #96725A",
"5. c #A27959",
"6. c #936761",
"7. c #9C6D67",
"8. c #817164",
"9. c #877768",
"0. c #887769",
"q. c #8D7C6D",
"w. c #9F7760",
"e. c #9F706A",
"r. c #A97C6C",
"t. c #B57F78",
"y. c #9B864C",
"u. c #A18D4F",
"i. c #A88C53",
"p. c #AA9453",
"a. c #B49D59",
"s. c #B9A15B",
"d. c #958273",
"f. c #998776",
"g. c #9E8B7A",
"h. c #A28E7D",
"j. c #BA8F70",
"k. c #B78878",
"l. c #A4907F",
"z. c #D39D73",
"x. c #C6A961",
"c. c #D3B768",
"v. c #DAA377",
"b. c #E1A87B",
"n. c #EDCE74",
"m. c #F7D779",
"M. c #8C8C8C",
"N. c #9B9B9B",
"B. c #A79281",
"V. c #AD9786",
"C. c #AF9A87",
"Z. c #B29D97",
"A. c #B8A28E",
"S. c #BDA492",
"D. c #BFA894",
"F. c gray65",
"G. c #BFA9A5",
"H. c #C38B83",
"J. c #C88D85",
"K. c #D6968E",
"L. c #C6A289",
"P. c #C6AE99",
"I. c #CBB39D",
"U. c #D5B299",
"Y. c #EFA89E",
"T. c #C1AAA6",
"R. c #CFB6A0",
"E. c #CCB4AC",
"W. c #D4BAA4",
"Q. c #D2B9AE",
"!. c #F3ABA1",
"~. c #F9AFA5",
"^. c #FCB1A7",
"/. c #FFB3A9",
"(. c #FFBFB0",
"). c #DEC3AB",
"_. c #DDC3B4",
"`. c #E1C6AE",
"'. c #E6CAB1",
"]. c #ECCCB3",
"[. c #E4C9B8",
"{. c #FFC7B6",
"}. c #EFD2B9",
"|. c #F2D5BC",
" X c #F9D5BC",
".X c #FCDDC2",
"XX c #FFE0C5",
"oX c #F2F2F2",
"OX c #FFFFFF",
/* pixels */
"0 0 0 0 0 0 0 0 0 0 0 0 0 0 0 0 0 0 0 0 0 0 0 0 0 0 0 0 0 0 0 0 0 0 0 0 0 0 0 0 0 0 0 0 0 0 0 0 0 0 0 0 0 0 0 0 0 0 0 0 0 0 0 0 ",
"0 0 0 U U U U U U U U U U U U U U U U U U U U U U U U U U U U U U U $.$. .U U U U U U U U U U U U U U U U U U U U U U U U 0 0 0 ",
"0 0 0 U U U U U U U U U U U U U U U U U U U U U U U U U U U U U U         s U U U U U U U U U U U U U U U U U U U U U U U 0 0 0 ",
"0 U U U U U U U U U U U U U U U U U U U U U U U U U U U U U U I     u v     U U U U U U U U U U U U U U U U U U U U U U U U U 0 ",
"0 U U U U U U U U U U U U U U U U U U U U U U U U U U U U U U (   r /./.u   U U U U U U U U U U U U U U U U U U U U U U U U U 0 ",
"0 U U U U U U U U U U U U U U U U U U U U U U U U U U U U U U p   6././.l . U U U U U U U U U U U U U U U U U U U U U U U U U 0 ",
"0 U U U U U U U U U U U U U U U U U U U U U U U U U U U U U U 8   J././.l   U U U U U U U U U U U U U U U U U U U U U U U U U 0 ",
"0 U U U U U U U U U U U U U U U U U U U U U U U U U U U U U U 8   J././.l   U U U U U U U U U U U U U U U U U U U U U U U U U 0 ",
"0 U U U U U U U U U U U U U U U U U U U U U U U U U U U U U U J   3././.,   U U U U U U U U U U U U U U U U U U U U U U U U U 0 ",
"0 U U U U U U U U U U U U U U U U U U U U U U U U U U U U U U L   { /./.    U U U U U U U U U U U I #.  *.U U U U U U U U U U 0 ",
"0 U U U U U U U U U U U U U U U U U U U U U U U U U U U U U U U   1 /./.    U U U U U U U U U U U .       f U U U U U U U U U 0 ",
"0 U U U U U U U U U U U U U U U U U U U U U U U U U U U U U U U   + /./.    U U U U U U U U U U (   , /..   U U U U U U U U U 0 ",
"0 U U U U U U U U U U U U U U U U U U U U I U U U U U U U U U U     /./.  o U U U U U U U U U U 8   k./.v   ..U U U U U U U U 0 ",
"0 U U U U U U U U U U U U U U U U U U U w   ` U O.g $.R U U U U     ~./.  o U U U U U U U U U U 9   /./.6.  L U U U U U U U U 0 ",
"0 U U U U U U U U U U U U U U U U U U ;                     w U f   !./.  o U U U U U U U U U U 8   /./.{   ..U U U U U U U U 0 ",
"0 U U U U U U U U U U U U U U U U o.      h     A -.A               !./.  . U U U U U U U U U U 8   !./.x   Y U U U U U U U U 0 ",
"0 U U U U U U U U U U U U U I U t     . j -.. O -.A   ;.. > A O     ~.^.    U U U U U Y Y U U U 8   H./.4   U U U U U U U U U 0 ",
"0 U U U U U U U U U U U U U o     > A -.-.-.-.-.A . v /.^.  -.-.A . , ^.x   U U U P       . t U L   { /.+   U U U U U U U U U 0 ",
"0 U U U U U U U U U U U U %     h A -.-.-.-.-.-.-.  k././.  m A -.A . r e.  U U J     < #     q (   ^ ^.+   U U U U U U U U U 0 ",
"0 U U U U U U U U U U U     . -.-.-.-.-.-.-.-.h     ^././.    . n -.-..     E U o   }.XXXX).    X.. ^ /.=   U U U U U U U U U 0 ",
"0 U U U U U U U U U U o   > -.-.-.-.-.-.A O   4 f.  /././.  XX| + . m -.$   w U     XXXXXXXXC.      2./.4   U U U U U U U U U 0 ",
"0 U U U U U U U U U a   X -.-.-.-.-.-.O   `.XXXX.X  /././.. XXXX.X].  @ -.2   9   . XXXXXXXXXX      J./.x    .U U U U U U U U 0 ",
"0 U U U U U U I U !     -.-.-.-.-.A   y |.XXXXXXc   /./.C * XXXXXX.X|.  @ A         XXXXXXXXXX      /./.{   X.U U U U U U U U 0 ",
"0 U U U U U U U U o   n -.-.-.-.A   g XXXXXXXXP.  Y././.  l.q.  + '.XXZ.  h :       XXXXXXXXXX      /./.7.  L I U U U U U U U 0 ",
"0 U U U U U U U Y   X -.-.-.-.A . 8.XX_.Q.).r . J././.6.    d F.#.. C.G.).  A       h.XXXXXXXX    v /./.6.  L U U U U U U U U 0 ",
"0 U U U U U U U %   k -.-.-.-.  c XXXXXXG.  S. X{.{.(.  d OXOXOXOXOX  V..XB.:       8.XXXXXXXX    /././.x . o.U U U U U U U U 0 ",
"0 U U U U U U U   . -.-.-.-.2   XXXXXX.XG.R.XXXX.X Xo   OXOXOXOXOXOXM.  .X.X  $     &.XXXXXXC.  . /././.4   U U U U U U U U U 0 ",
"0 U U U U U U U   h -.-.-.A   `.XXXXXXQ.G.XXXXXX.XXXV ` OXOXOXOXOXOXM.  I.XXo         - P.XX    r./././.    p U U U U U U U U 0 ",
"0 U U U U U U @.  b -.-.-.2 o XXXXI.'.T.Q.G.E.}..XXX8.M.OXOXOXOXOXN.    D.XX|   g.'.I.~ . %.    !./.t.1       ; I U U U U U U 0 ",
"0 U U U U U I g   m -.-.A . }.XXXX. ).Q.XXXXXX_.XXXX).f OXOXOXoX  . w.  4.XXXX  W..XXXXXf.    i /.= X `.XXXX}     U U U U U U 0 ",
"0 U U U U U U @.  k -.-.-.  XXXX'.  XX_.XXXXXXXXXXXXXX  OXOXOX# = w.u   w.].XX    S.XXXX.X    /.K.  .X.XXXXXXX    R U U U U U 0 ",
"0 U U U U U Y     Z -.-.A = XXXXo `.XX XB.V y q.XXXXXXA.  =.. C >.4 + 4.w.L.XX  8.o XXXXXXf.  /.x 0.XXXXXXXXXX[   d U U U U U 0 ",
"0 U U U U U U     n -.-.Z C XXq.* XXR.  . o.U %   XXXXXX}.        u w.w.w.}.XX  D.  XXXXXXD.  /.+ XXXXXXXXXXXXd.  o U U U U U 0 ",
"0 U U U U U U U   $ -.-.Z [ XX  d.W.  o.U U U U   o XXXXXXXXXXXX].w.w.w.j..XXX  - 3 XXXXXXr o /.  .XXXXXXXXXXXy   ` U U U U U 0 ",
"0 U U U U U U U     k -.Z } D.  XX# @.U U U U U U   D..XXXXXXXXXXXj.d.w.XXXXd.  - |.XXXX).  Y.e./ XXXXXXXXXXXX    U U U U U U 0 ",
"0 U U U U U U U E   + A A * XX.X|.  U U U U U U U $.. 0.W.%.  XXXX Xz O   e * d.XXXXXXXXo K./.  '.XXXXXXXXXXI.  . U U U U U U 0 ",
"0 U U U U U U U U     -.A   XXXX}.  U U U U U U U +.  B.  8.  .XXXO X b.  I.XXXXXXXXXXXX  /.+ o XXXXXXXXXXXX    K U U U U U U 0 ",
"0 U U U U U U U U ;   > -.. ).XX X  U U U U U U U t = XXi - A.).  X X j.  XXXXXX.XB.  o *     XXXXXXXXXXXXV   T U U U U U U U 0 ",
"0 U U U U U U U U U *   A h   XXXX# d U U U U U _   4.XXXXXXR.  v.v.o %.].XXXXXX# = .XXXXXXXr   XXXXXXXXi   ; U U U U U U U U 0 ",
"0 U U U U U U U U U a   @ A   V.XXZ.  P U U U L   ] w.XXXXI..   5.z.e XXXXXXXXP.# `.XXXXXXXX}.  XXXX.X0.    U U U U U U U U U 0 ",
"0 U U U U U U U U U U     Z j   G._.}.        X w.w.k.XX|.  D ,       XXXXXXXX  I.XXXXXXXXXXXX  XX}.      U U U U U U U U U U 0 ",
"0 U U U U U U U U U U o.  . Z @ o XXXX|.Z.4.w.w.w.w.L. X  X z.u I.XX.  XXX.X  c XXXXXXXXXXXX}   e     % Y U U U U U U U U U U 0 ",
"0 U U U U U U U U U U U U       o   XXXX[.Q..XU.5.5.XX. 4.      XXXX  XXXXV q.XXXXXXXXXXXXXX      ; U U U U U U U U U U U U U 0 ",
"0 U U U U U U U U U U U U _     ~ 3   D.XXT.[.XXf.4.  5 b.. h.. XX).% XXXX}.XXXXXXXXXXXXXX    % R U U U U U U U U U U U U U U 0 ",
"0 U U U U U U U U U U U U U  .  * XXg.  . S.E.XX^   O     X XXo D.c C.XXXXXXXXXXXXXXXXXX'     U U U U U U U U U U U U U U U U 0 ",
"0 U U U U U U U U U U U U U U *   i &.-   3   .   i m.m.y.^ B.S.q.|.XXXXXXXX).} } l.D.u   . E U U U U U U U U U U U U U U U U 0 ",
"0 U U U U U U U U U U U U U U U g         s.m.m.  s.m.m.6 D   ^ XXXXXX XXXXX.   p.B   o   U U U U U U U U U U U U U U U U U U 0 ",
"0 U U U U U U U U U U U U U U U U U U .           m.m.m.:.:.m..   g c c y   o             U U U U U U U U U U U U U U U U U U 0 ",
"0 U U U U U U U U U U U U U U U U U U Y J   D.9.  m.m.m.:.,.m.,.D S ,.a.s.c.m.  c XX    U U U U U U U U U U U U U U U U U U U 0 ",
"0 U U U U U U U U U U U U U U U U U U U H   D.h.  m.m.m.:.,.m.1.:.,.x.m.m.m.m.  / XX    U U U U U U U U U U U U U U U U U U U 0 ",
"0 U U U U U U U U U U U U U U U U U U U J   XXh.  m.m.m.:.,.m.i.:.:.n.m.m.m.m.M ' .X    U U U U U U U U U U U U U U U U U U U 0 ",
"0 U U U U U U U U U U U U U U U U U U U H   8.h.  m.m.m.:.x.m.i.:.:.n.m.m.m.m.F ' XX    U U U U U U U U U U U U U U U U U U U 0 ",
"0 U U U U U U U U U U U U U U U U U U U U         M M M F F y.B N S x.x.u.<.M 3       ) U U U U U U U U U U U U U U U U U U U 0 ",
"0 U U U U U U U U U U U U U U U U U U U U U  .t     7 q & &                       O.U U U U U U U U U U U U U U U U U U U U U 0 ",
"0 U U U U U U U U U U U U U U U U U U U U U U U     G Q W Q Q       Q Q Q Q     Y U U U U U U U U U U U U U U U U U U U U U U 0 ",
"0 U U U U U U U U U U U U U U U U U U U U U U U     G Q W Q G       Q Q Q Q     U U U U U U U U U U U U U U U U U U U U U U U 0 ",
"0 U U U U U U U U U U U U U U U U U U U U U U U t   7 Q Q Q W       Q Q Q Q     U U U U U U I U U U U U U U U U U U U U U U U 0 ",
"0 U U U U U U U U U U U U U U U U U U U U U U U #.    Q Q Q Q       Q Q Q Q     U U U U U U U U U U U U U I U U U U U U U U U 0 ",
"0 U U U U U U U U U U U U U U U U U U U U U U U #.    ;     %       .   * w     U U U U U U U U U U U U U U U U U U U U U U U 0 ",
"0 U U U U U U U U U U U U U U U U U U U U U U U Y     oXOXOXN.      oXOXOXN.  . U U U U U U U U U U U U U U U U U U U U U U U 0 ",
"0 U U U U U U U U U U U U U U U U U U U U U U U U I     ; X   ; U     q .   o U U U U U U U U U U U U U U U U U U U U U U U U 0 ",
"0 0 0 U U U U U U U U U U U U U U U U U U U U U U U U       % U U Y       * U U U U U U U U U U U U U U U U U U U U U U U 0 0 0 ",
"0 0 0 U U U U U U U U U U U U U U U U U U U U U U U U U U U U U U U U U U U U U U U U U U U U U U U U U U U U U U U U U U 0 0 0 ",
"0 0 0 0 0 0 0 0 0 0 0 0 0 0 0 0 0 0 0 0 0 0 0 0 0 0 0 0 0 0 0 0 0 8 0 0 0 0 0 0 0 0 0 0 0 0 0 0 0 0 0 0 0 0 0 0 0 0 0 0 0 0 0 0 "
};
