/* XPM */
static char * ENEMY_xpm[] = {
"64 64 717 2",
"  	c #1A1C2C",
". 	c #392D32",
"+ 	c #613E39",
"@ 	c #1B1C2C",
"# 	c #333C57",
"$ 	c #473D51",
"% 	c #9A5B3F",
"& 	c #A45126",
"* 	c #4D4352",
"= 	c #3D3E55",
"- 	c #D36024",
"; 	c #DF6021",
"> 	c #7A4C4D",
", 	c #405D6E",
"' 	c #56A0AD",
") 	c #65BFCF",
"! 	c #AF7E73",
"~ 	c #B08374",
"{ 	c #67C7D9",
"] 	c #60B5C5",
"^ 	c #528C9A",
"/ 	c #34465C",
"( 	c #37495F",
"_ 	c #60B0BE",
": 	c #70DFF7",
"< 	c #6BDEFE",
"[ 	c #6BDFFE",
"} 	c #70E0FA",
"| 	c #6CE1FD",
"1 	c #6CDFFC",
"2 	c #6EDEFE",
"3 	c #66D2EB",
"4 	c #6BCCE1",
"5 	c #5698A5",
"6 	c #323C56",
"7 	c #394D61",
"8 	c #6DCCDB",
"9 	c #68DCF9",
"0 	c #6BDFFC",
"a 	c #6BDFFD",
"b 	c #67E1FE",
"c 	c #6CDEFF",
"d 	c #6CDFFD",
"e 	c #6ADFFE",
"f 	c #69E0FD",
"g 	c #6AE0FE",
"h 	c #69DBF6",
"i 	c #6DDFFD",
"j 	c #60A0AF",
"k 	c #343D57",
"l 	c #64B5C0",
"m 	c #65D1EE",
"n 	c #6BDFFF",
"o 	c #6CDEFE",
"p 	c #67E2FC",
"q 	c #6BDEFF",
"r 	c #6CDFFE",
"s 	c #63D3EE",
"t 	c #6FDDF5",
"u 	c #406171",
"v 	c #3D5A6B",
"w 	c #71DDF4",
"x 	c #68D6F4",
"y 	c #6ADFFF",
"z 	c #6AE0FF",
"A 	c #6ADFFD",
"B 	c #5BA2AF",
"C 	c #53919C",
"D 	c #69E1FE",
"E 	c #69E0FE",
"F 	c #6DE0F8",
"G 	c #6FE0F9",
"H 	c #6BDDF7",
"I 	c #69D9F0",
"J 	c #6DD4EB",
"K 	c #6CD9F7",
"L 	c #69E0FF",
"M 	c #5FBBCB",
"N 	c #599AA6",
"O 	c #69E0FC",
"P 	c #67DFFC",
"Q 	c #61C0D0",
"R 	c #7CACB0",
"S 	c #71BFC3",
"T 	c #7BA1A6",
"U 	c #69A5A8",
"V 	c #69D7ED",
"W 	c #6CDFFF",
"X 	c #62C0D4",
"Y 	c #5694A1",
"Z 	c #64DAF5",
"` 	c #67DEFB",
" .	c #6BDEFC",
"..	c #68D7EE",
"+.	c #60B2BC",
"@.	c #67CCD8",
"#.	c #66C3D5",
"$.	c #6AC8D7",
"%.	c #6CDFF7",
"&.	c #69DEFB",
"*.	c #6ADCFB",
"=.	c #5AB5C7",
"-.	c #406D7A",
";.	c #6FE1FA",
">.	c #69DDFB",
",.	c #69D9F8",
"'.	c #5CA0AF",
").	c #354159",
"!.	c #6CD6E7",
"~.	c #66CBDB",
"{.	c #67CEE2",
"].	c #6AE0FC",
"^.	c #6BE0FE",
"/.	c #6CE0FE",
"(.	c #6ED4E8",
"_.	c #66C9D8",
":.	c #70E1F9",
"<.	c #4E8390",
"[.	c #568D96",
"}.	c #72D2DC",
"|.	c #7FBABF",
"1.	c #89B2B4",
"2.	c #89AEB0",
"3.	c #7DAAAD",
"4.	c #85B6BB",
"5.	c #7FB2B6",
"6.	c #7BA3A4",
"7.	c #85A09F",
"8.	c #778F8F",
"9.	c #779D9F",
"0.	c #6EBCC3",
"a.	c #38495D",
"b.	c #497580",
"c.	c #66B4B9",
"d.	c #72716C",
"e.	c #7E7C76",
"f.	c #76746D",
"g.	c #72726F",
"h.	c #6B706E",
"i.	c #777C7A",
"j.	c #7F7E7C",
"k.	c #898882",
"l.	c #8D8C83",
"m.	c #8E9089",
"n.	c #6D9090",
"o.	c #70C5CD",
"p.	c #363F59",
"q.	c #35445B",
"r.	c #65BBC7",
"s.	c #67C3D1",
"t.	c #6AC2CE",
"u.	c #6CDBF1",
"v.	c #70E0F6",
"w.	c #71E3F9",
"x.	c #6DE1F6",
"y.	c #70E1F7",
"z.	c #68DBF0",
"A.	c #6ADAED",
"B.	c #6BC4D1",
"C.	c #66B8BD",
"D.	c #426172",
"E.	c #363F57",
"F.	c #6CBCC6",
"G.	c #6BDEF7",
"H.	c #69DFFD",
"I.	c #6CD3E6",
"J.	c #65C2D0",
"K.	c #65C4D2",
"L.	c #6BCDDF",
"M.	c #6ED9EB",
"N.	c #426875",
"O.	c #38485E",
"P.	c #68B7C5",
"Q.	c #6BDFF8",
"R.	c #70E1FB",
"S.	c #69E3FC",
"T.	c #6AE0FD",
"U.	c #6ECDE0",
"V.	c #4B6B7A",
"W.	c #485165",
"X.	c #64BAC4",
"Y.	c #6CDCF9",
"Z.	c #6ACCD7",
"`.	c #465364",
" +	c #4C6271",
".+	c #6DD0E4",
"++	c #69DFFE",
"@+	c #6ECEDC",
"#+	c #4F7E8A",
"$+	c #363E58",
"%+	c #63919A",
"&+	c #68D1E4",
"*+	c #6CDEFD",
"=+	c #68E0FE",
"-+	c #68C5D3",
";+	c #62B5BF",
">+	c #374059",
",+	c #414B60",
"'+	c #63B6C1",
")+	c #6EDCF3",
"!+	c #6DDFFA",
"~+	c #66ADB6",
"{+	c #6DDDEF",
"]+	c #46586B",
"^+	c #5A909D",
"/+	c #63C2D0",
"(+	c #74E1FD",
"_+	c #72CBDF",
":+	c #4F2F32",
"<+	c #72DEF3",
"[+	c #5DA4B1",
"}+	c #40495E",
"|+	c #6ACCDE",
"1+	c #64C4D3",
"2+	c #6EE2FE",
"3+	c #6CE1F7",
"4+	c #68939E",
"5+	c #64C3D4",
"6+	c #6CD7EA",
"7+	c #425164",
"8+	c #568E9A",
"9+	c #6CE0FC",
"0+	c #6AC4D1",
"a+	c #6BE2FD",
"b+	c #71DDF2",
"c+	c #56A4AC",
"d+	c #384059",
"e+	c #475365",
"f+	c #6CCFE2",
"g+	c #6DE1FA",
"h+	c #5BA7B1",
"i+	c #68E1FE",
"j+	c #68DEF9",
"k+	c #5A94A0",
"l+	c #71DCF3",
"m+	c #72D2E4",
"n+	c #4A5163",
"o+	c #39425B",
"p+	c #64A8B5",
"q+	c #65C9DD",
"r+	c #5F99A3",
"s+	c #66DEF9",
"t+	c #66AAB9",
"u+	c #61BACC",
"v+	c #6A95A3",
"w+	c #592A35",
"x+	c #40465D",
"y+	c #557B88",
"z+	c #6CDEF5",
"A+	c #5B959F",
"B+	c #5C97A3",
"C+	c #69E0FB",
"D+	c #66DEFA",
"E+	c #537A89",
"F+	c #73DCEF",
"G+	c #6F9AA5",
"H+	c #4C424F",
"I+	c #353E58",
"J+	c #4A6070",
"K+	c #6FD0E2",
"L+	c #6DCCDE",
"M+	c #424D62",
"N+	c #5D99A4",
"O+	c #68DFF9",
"P+	c #68DEFC",
"Q+	c #6BD9F6",
"R+	c #66CEE3",
"S+	c #475064",
"T+	c #68BFCF",
"U+	c #74E0FA",
"V+	c #5B6468",
"W+	c #4D5161",
"X+	c #3C455D",
"Y+	c #57838F",
"Z+	c #6DD3E8",
"`+	c #6CDEFC",
" @	c #6FDFF8",
".@	c #557E8C",
"+@	c #6098A4",
"@@	c #68DDFC",
"#@	c #5EC0DF",
"$@	c #70E0FB",
"%@	c #466474",
"&@	c #4E6B78",
"*@	c #6DDBF0",
"=@	c #75E0F8",
"-@	c #71D4E8",
";@	c #5C8E9B",
">@	c #424A60",
",@	c #333D57",
"'@	c #578992",
")@	c #485D6E",
"!@	c #3A425A",
"~@	c #363E59",
"{@	c #495565",
"]@	c #6E8D92",
"^@	c #72BAC5",
"/@	c #6EDEFA",
"(@	c #6EDFFC",
"_@	c #5FA0AC",
":@	c #3B445C",
"<@	c #588289",
"[@	c #6FDFF6",
"}@	c #64CBEA",
"|@	c #609DAD",
"1@	c #39415A",
"2@	c #5B8E9B",
"3@	c #6EE0FC",
"4@	c #66B8CA",
"5@	c #4E6271",
"6@	c #445365",
"7@	c #5B8C97",
"8@	c #414C61",
"9@	c #344359",
"0@	c #6CDBE8",
"a@	c #6DDBF2",
"b@	c #60A6B1",
"c@	c #4C596B",
"d@	c #5B8D95",
"e@	c #6E8283",
"f@	c #62080A",
"g@	c #60484B",
"h@	c #71DBEB",
"i@	c #65AEBA",
"j@	c #3C445C",
"k@	c #4D3949",
"l@	c #71BACB",
"m@	c #67C3D8",
"n@	c #3F475F",
"o@	c #3D455D",
"p@	c #639CAA",
"q@	c #6FDFF9",
"r@	c #6BD8EC",
"s@	c #5F96A5",
"t@	c #465465",
"u@	c #5C98A3",
"v@	c #6FD6EB",
"w@	c #6FE0F3",
"x@	c #4A5E6F",
"y@	c #598D9B",
"z@	c #6ED0E3",
"A@	c #6EDBF4",
"B@	c #70CBE3",
"C@	c #75C2D5",
"D@	c #74DBEF",
"E@	c #66A7B8",
"F@	c #41485E",
"G@	c #493446",
"H@	c #71AFB9",
"I@	c #6EDDF6",
"J@	c #435668",
"K@	c #3E475E",
"L@	c #629DAA",
"M@	c #6EDEF8",
"N@	c #6BE0FD",
"O@	c #6DE1FC",
"P@	c #6CDCF0",
"Q@	c #70DFFD",
"R@	c #6FD5E7",
"S@	c #609CA8",
"T@	c #3B435C",
"U@	c #353F59",
"V@	c #577A88",
"W@	c #68CBDD",
"X@	c #71E1F8",
"Y@	c #68D2E9",
"Z@	c #6EDFF8",
"`@	c #39435B",
" #	c #4C646E",
".#	c #72D7EB",
"+#	c #69DFFF",
"@#	c #6DE0FD",
"##	c #5B939E",
"$#	c #5A8D99",
"%#	c #6EDAF3",
"&#	c #67D3EB",
"*#	c #6FE0F7",
"=#	c #6CD1E5",
"-#	c #547E8C",
";#	c #424B60",
">#	c #3A3A50",
",#	c #54676C",
"'#	c #6BC9D7",
")#	c #70E0F9",
"!#	c #6DCCDC",
"~#	c #66C4D3",
"{#	c #6CD4E7",
"]#	c #6BE0FC",
"^#	c #6DD9EE",
"/#	c #588793",
"(#	c #3B435B",
"_#	c #548997",
":#	c #6AE1FE",
"<#	c #66D2EF",
"[#	c #6AE0FB",
"}#	c #61BBCA",
"|#	c #38415A",
"1#	c #547984",
"2#	c #6AD4E7",
"3#	c #6BD7E9",
"4#	c #68C6D7",
"5#	c #6CC9D5",
"6#	c #6EE3F9",
"7#	c #67CDE1",
"8#	c #638C96",
"9#	c #3D3A4F",
"0#	c #3A364C",
"a#	c #61090A",
"b#	c #690306",
"c#	c #6FAAB6",
"d#	c #6FD8EC",
"e#	c #73D5EA",
"f#	c #6DDFFE",
"g#	c #6CC9DB",
"h#	c #4E6A78",
"i#	c #507A88",
"j#	c #6CE3FD",
"k#	c #61C0E0",
"l#	c #66D6F5",
"m#	c #6DC6D7",
"n#	c #444E62",
"o#	c #4A5D6E",
"p#	c #6AC2D0",
"q#	c #6BE1FC",
"r#	c #6DDFFB",
"s#	c #70DCF6",
"t#	c #6CD4E2",
"u#	c #76CEDF",
"v#	c #64282B",
"w#	c #650608",
"x#	c #44394B",
"y#	c #383A51",
"z#	c #630C0F",
"A#	c #690200",
"B#	c #682425",
"C#	c #6C6469",
"D#	c #6D9DA4",
"E#	c #6FE1F8",
"F#	c #65AFBE",
"G#	c #434F63",
"H#	c #435B6C",
"I#	c #70DEF7",
"J#	c #61C6E1",
"K#	c #60CBE7",
"L#	c #6CDDFB",
"M#	c #6FD0E6",
"N#	c #5A5259",
"O#	c #484E62",
"P#	c #414B61",
"Q#	c #64A1AF",
"R#	c #6CDEF6",
"S#	c #71C5D3",
"T#	c #6A595E",
"U#	c #6A4B52",
"V#	c #6A0103",
"W#	c #660305",
"X#	c #3D374C",
"Y#	c #4C3747",
"Z#	c #5F1013",
"`#	c #6B0205",
" $	c #6C0303",
".$	c #5D2830",
"+$	c #5D8690",
"@$	c #3E465E",
"#$	c #424C61",
"$$	c #6AD3E8",
"%$	c #68DAF7",
"&$	c #69DDF9",
"*$	c #6CDBFA",
"=$	c #62CDEB",
"-$	c #689FA7",
";$	c #5A2932",
">$	c #3A425B",
",$	c #597C8A",
"'$	c #616C6E",
")$	c #6A0306",
"!$	c #6A0202",
"~$	c #64060D",
"{$	c #4D3341",
"]$	c #343C57",
"^$	c #493B4C",
"/$	c #3C374D",
"($	c #443A4C",
"_$	c #514352",
":$	c #474C60",
"<$	c #62A7B2",
"[$	c #6ADDFB",
"}$	c #72CCE0",
"|$	c #474D5D",
"1$	c #41475E",
"2$	c #4F4754",
"3$	c #494354",
"4$	c #504857",
"5$	c #48394C",
"6$	c #363D57",
"7$	c #43394E",
"8$	c #443F55",
"9$	c #564A59",
"0$	c #3A415A",
"a$	c #57717E",
"b$	c #6DDCF5",
"c$	c #6EDFFD",
"d$	c #6DE3FC",
"e$	c #6FDAF1",
"f$	c #6CDAF3",
"g$	c #6DDFF9",
"h$	c #6ABAC9",
"i$	c #444C61",
"j$	c #585060",
"k$	c #4D4C61",
"l$	c #514656",
"m$	c #43374C",
"n$	c #3D384F",
"o$	c #444258",
"p$	c #3A405A",
"q$	c #475B6B",
"r$	c #6ED1E0",
"s$	c #69DEFE",
"t$	c #67C1D0",
"u$	c #517A87",
"v$	c #4C7380",
"w$	c #485869",
"x$	c #587F8B",
"y$	c #6BDEF5",
"z$	c #6EDFFE",
"A$	c #62ADBA",
"B$	c #3E475D",
"C$	c #47475B",
"D$	c #42455A",
"E$	c #544553",
"F$	c #495567",
"G$	c #70C9D8",
"H$	c #6FD3E6",
"I$	c #4D6371",
"J$	c #5C8F99",
"K$	c #6EE0F7",
"L$	c #70DEFA",
"M$	c #649EAE",
"N$	c #464E62",
"O$	c #6AB8CA",
"P$	c #6AE1FC",
"Q$	c #70D7ED",
"R$	c #4D6E7A",
"S$	c #3C455C",
"T$	c #609BA9",
"U$	c #6EE1FB",
"V$	c #598B97",
"W$	c #39425A",
"X$	c #62A7B3",
"Y$	c #72DCF2",
"Z$	c #70DDF2",
"`$	c #57838B",
" %	c #40485E",
".%	c #66AEBE",
"+%	c #6EDAF1",
"@%	c #50747E",
"#%	c #38405A",
"$%	c #5D8E9B",
"%%	c #74E0F3",
"&%	c #61686C",
"*%	c #607C86",
"=%	c #41495F",
"-%	c #6CC1CF",
";%	c #6DDEFC",
">%	c #48586A",
",%	c #516A76",
"'%	c #6FD9F1",
")%	c #6EC7D8",
"!%	c #4D2F3B",
"~%	c #3D445B",
"{%	c #475768",
"]%	c #6FCFE0",
"^%	c #6BB4C4",
"/%	c #3D455C",
"(%	c #67C0CD",
"_%	c #6AB9C9",
":%	c #424A5E",
"<%	c #526D7B",
"[%	c #6EDDF2",
"}%	c #4F737E",
"|%	c #49616E",
"1%	c #71DCF4",
"2%	c #4E6471",
"3%	c #3E465D",
"4%	c #65B5C6",
"5%	c #65A7B5",
"6%	c #6DE0FC",
"7%	c #65C1D2",
"8%	c #42495F",
"9%	c #5B8F99",
"0%	c #6CE1FC",
"a%	c #63BECE",
"b%	c #424960",
"c%	c #62ADB8",
"d%	c #65ABB7",
"e%	c #496270",
"f%	c #6FE1FB",
"g%	c #6AD2E4",
"h%	c #444D61",
"i%	c #3D465D",
"j%	c #64BECC",
"k%	c #598996",
"l%	c #424B5E",
"m%	c #71CBD7",
"n%	c #74DFF6",
"o%	c #3C4A5D",
"p%	c #494F63",
"q%	c #67CADD",
"r%	c #70E1FC",
"s%	c #4B6C79",
"t%	c #484D62",
"u%	c #55575F",
"v%	c #72E1F6",
"w%	c #4D6C7A",
"x%	c #41485C",
"y%	c #6CD8ED",
"z%	c #6FDFF7",
"A%	c #4A5B69",
"B%	c #3C435B",
"C%	c #532129",
"D%	c #73D4E5",
"E%	c #5C8993",
"F%	c #475868",
"G%	c #6FE1F6",
"H%	c #6EDAF0",
"I%	c #3B4358",
"J%	c #3E455D",
"K%	c #61838B",
"L%	c #72DEF7",
"M%	c #5E9AA7",
"N%	c #496977",
"O%	c #6EE2FB",
"P%	c #6CCFE4",
"Q%	c #495164",
"R%	c #60AFBC",
"S%	c #62ABB7",
"T%	c #57848D",
"U%	c #6EE1FC",
"V%	c #66C9DE",
"W%	c #454D61",
"X%	c #55A5B5",
"Y%	c #5DB0C2",
"Z%	c #57919E",
"`%	c #65C5DD",
" &	c #3E465C",
".&	c #62A5B1",
"+&	c #6ADFFC",
"@&	c #63BACB",
"#&	c #484F64",
"$&	c #61A1AC",
"%&	c #62C1D7",
"&&	c #373F58",
"*&	c #66A1AA",
"=&	c #69C4D7",
"-&	c #65ACB8",
";&	c #64C0D1",
">&	c #3F465D",
",&	c #619AA3",
"'&	c #6DDEFD",
")&	c #495063",
"!&	c #424E61",
"~&	c #6BCDE0",
"{&	c #454C61",
"]&	c #6194A0",
"^&	c #6BE1FB",
"/&	c #609AA6",
"(&	c #39415B",
"_&	c #4C5D6D",
":&	c #69BCCF",
"<&	c #68E1FB",
"[&	c #63BDCA",
"}&	c #5E94A0",
"|&	c #6EDDFF",
"1&	c #6EDEF9",
"2&	c #63ADBA",
"3&	c #485768",
"4&	c #40475E",
"5&	c #4C6B79",
"6&	c #65A9B8",
"7&	c #62BCC8",
"8&	c #434A60",
"9&	c #60929E",
"0&	c #71E2FC",
"a&	c #6DE0FE",
"b&	c #6DDAF2",
"c&	c #68B7C6",
"d&	c #5C98A1",
"e&	c #4A6875",
"f&	c #364058",
"g&	c #454B5F",
"h&	c #598A94",
"i&	c #66C3CD",
"j&	c #6FD1E1",
"k&	c #67CEE3",
"l&	c #65CBDF",
"m&	c #62C3D3",
"n&	c #60BBC9",
"o&	c #66B2C3",
"p&	c #5F8E97",
"q&	c #3C435C",
"r&	c #465163",
"s&	c #4C707E",
"t&	c #5A8793",
"u&	c #5E98A0",
"v&	c #589CA9",
"w&	c #5DA3AF",
"x&	c #62A8B3",
"y&	c #60A5B1",
"z&	c #629BA4",
"A&	c #33353F",
"B&	c #30323C",
"C&	c #363841",
"D&	c #32343D",
"E&	c #292B37",
"F&	c #40424B",
"G&	c #363741",
"H&	c #1F202F",
"                                                              . + @                                                             ",
"      # # # # # # # # # # # # # # # # # # # # # # # # # # # $ % & * # # # # # # # # # # # # # # # # # # # # # # # # # # #       ",
"      # # # # # # # # # # # # # # # # # # # # # # # # # # # = - ; > # # # # # # # # # # # # # # # # # # # # # # # # # # #       ",
"  # # # # # # # # # # # # # # # # # # # # # # # # # # # , ' ) ! ~ { ] ^ / # # # # # # # # # # # # # # # # # # # # # # # # # #   ",
"  # # # # # # # # # # # # # # # # # # # # # # # # # ( _ : < [ } | 1 2 3 4 5 6 # # # # # # # # # # # # # # # # # # # # # # # #   ",
"  # # # # # # # # # # # # # # # # # # # # # # # # 7 8 9 0 a b c d e f g h i j # # # # # # # # # # # # # # # # # # # # # # # #   ",
"  # # # # # # # # # # # # # # # # # # # # # # # k l m n n [ o p c q o g r s t u # # # # # # # # # # # # # # # # # # # # # # #   ",
"  # # # # # # # # # # # # # # # # # # # # # # # v w x y y o c q e g z z g r A B # # # # # # # # # # # # # # # # # # # # # # #   ",
"  # # # # # # # # # # # # # # # # # # # # # # # C D g E y F G H I J K f y L L M # # # # # # # # # # # # # # # # # # # # # # #   ",
"  # # # # # # # # # # # # # # # # # # # # # # # N O q A P Q R S T U V [ W L c X # # # # # # # # # # # # # # # # # # # # # # #   ",
"  # # # # # # # # # # # # # # # # # # # # # # # Y Z E `  ...+.@.#.$.%.z &.L *.=.# # # # # # # # # # # # # # # # # # # # # # #   ",
"  # # # # # # # # # # # # # # # # # # # # # # # -.;.n e d [ d < y c q y >.g ,.'.# # # # # # # # # # # # # # # # # # # # # # #   ",
"  # # # # # # # # # # # # # # # # # # # # # # # ).!.~.{.g [ ].f q ^./.i (._.:.<.# # # # # # # # # # # # # # # # # # # # # # #   ",
"  # # # # # # # # # # # # # # # # # # # # # # # # [.}.|.1.2.3.4.5.6.7.8.9.0.0.a.# # # # # # # # # # # # # # # # # # # # # # #   ",
"  # # # # # # # # # # # # # # # # # # # # # # # # b.c.d.e.f.g.h.i.j.k.l.m.n.o.p.# # # # # # # # # # # # # # # # # # # # # # #   ",
"  # # # # # # # # # # # # # # # # # # # # # # # # q.r.s.t.u.v.w.x.y.z.A.B.C.D.# # # # # # # # # # # # # # # # # # # # # # # #   ",
"  # # # # # # # # # # # # # # # # # # # # # # # # # E.F.G.H.I.J.K.L.a ^.M.N.# # # # # # # # # # # # # # # # # # # # # # # # #   ",
"  # # # # # # # # # # # # # # # # # # # # # # # # # # O.P.Q.f R.S.T.1 U.V.# # # # # # # # # # # # # # # # # # # # # # # # # #   ",
"  # # # # # # # # # # # # # # # # # # # # # # # # # # # W.X.Y.e [ d Z.`.# # # # # # # # # # # # # # # # # # # # # # # # # # #   ",
"  # # # # # # # # # # # # # # # # # # # # # # # # # # #  +.+++[ n f @+#+# # # # # # # # # # # # # # # # # # # # # # # # # # #   ",
"  # # # # # # # # # # # # # # # # # # # # # # # # # # $+%+&+n e *+=+-+;+>+# # # # # # # # # # # # # # # # # # # # # # # # # #   ",
"  # # # # # # # # # # # # # # # # # # # # # # # # # # ,+'+)+e y L !+~+{+]+# # # # # # # # # # # # # # # # # # # # # # # # # #   ",
"  # # # # # # # # # # # # # # # # # # # # # # # # # # ^+/+(+g y n _+:+<+[+>+# # # # # # # # # # # # # # # # # # # # # # # # #   ",
"  # # # # # # # # # # # # # # # # # # # # # # # # # }+|+1+2+y y [ 3+4+5+6+7+# # # # # # # # # # # # # # # # # # # # # # # # #   ",
"  # # # # # # # # # # # # # # # # # # # # # # # # # 8+9+0+a+y y o < b+c+9+[+d+# # # # # # # # # # # # # # # # # # # # # # # #   ",
"  # # # # # # # # # # # # # # # # # # # # # # # # e+f+g+h+D y y i+r j+k+l+m+n+# # # # # # # # # # # # # # # # # # # # # # # #   ",
"  # # # # # # # # # # # # # # # # # # # # # # # o+p+9+q+r+s+g y y r *+t+u+v+w+x+# # # # # # # # # # # # # # # # # # # # # # #   ",
"  # # # # # # # # # # # # # # # # # # # # # # # y+z+9+A+B+C+e y n z D+) E+F+G+H+I+# # # # # # # # # # # # # # # # # # # # # #   ",
"  # # # # # # # # # # # # # # # # # # # # # # J+K+e L+M+N+O+P+y n y Q+R+S+T+U+V+W+I+# # # # # # # # # # # # # # # # # # # # #   ",
"  # # # # # # # # # # # # # # # # # # # # X+Y+Z+`+ @.@# +@*+@@y y z #@$@%@&@*@=@-@;@>@# # # # # # # # # # # # # # # # # # # #   ",
"  # # # # # # # # # # # # # ,@'@)@!@# ~@{@]@^@/@(@_@:@# <@[@a [ y z }@[ |@1@2@G A 3@4@5@I+# $+6@7@8@# # # # # # # # # # # # #   ",
"  # # # # # # # # # # # # # 9@0@a@b@c@d@e@f@g@h@i@j@# # k@l@a [ T.L i b m@n@o@p@q@f A r@s@t@u@v@w@x@# # # # # # # # # # # # #   ",
"  # # # # # # # # # # # # # # y@z@3@A@;.B@C@D@E@F@# # # G@H@A o f y y E I@J@# K@L@M@N@e O@P@Q@R@S@T@# # # # # # # # # # # # #   ",
"  # # # # # # # # # # # # # U@V@W@X@Y@d 1 Z@p@`@# # # #  #.#n r +#y y g @#### # o@$#%#[ 1 &#*#=#-#;#~@# # # # # # # # # # # #   ",
"  # # # # # # # # # # # >#,#'#)#!#~#{#]#^#/#(## # # # # _#:#<#[#n y y y e }#|## # |#1#2#1 3#4#5#6#7#8#9## # # # # # # # # # #   ",
"  # # # # # # # # # # 0#a#b#c#d#e#e f#g#h#$+# # # # # # i#j#k#l#n z y q N@m#n## # # # o#p#q#r#s#t#u#v#w#x## # # # # # # # # #   ",
"  # # # # # # # # # # y#z#A#B#C#D#E#F#G## # # # # # # # H#I#J#K#E o L#d M#N#O## # # # # P#Q#R#S#T#U#V#W#X## # # # # # # # # #   ",
"  # # # # # # # # # # # Y#Z#`# $.$+$@$# # # # # # # # # #$$$%$&$[ *$=$*.-$;$(## # # # # # >$,$'$)$!$~${$]$# # # # # # # # # #   ",
"  # # # # # # # # # # k ^$/$($_$:$# # # # # # # # # # # p.<$].[$y g ^.A }$|$# # # # # # # # # 1$2$3$4$5$6$# # # # # # # # # #   ",
"  # # # # # # # # # # # # 7$8$9$0$# # # # # # # # # # # # a$b$c$j#d$e$f$g$h$i$# # # # # # # # # j$k$l$# # # # # # # # # # # #   ",
"  # # # # # # # # # # # # m$n$o$p$# # # # # # # # # # # q$r$s$t$u$v$w$x$y$z$A$B$# # # # # # # # C$D$E$# # # # # # # # # # # #   ",
"  # # # # # # # # # # # # # # # # # # # # # # # # # # F$G$d H$I$# # # d+J$K$L$M$!@# # # # # # # # # # # # # # # # # # # # # #   ",
"  # # # # # # # # # # # # # # # # # # # # # # # # # N$O$P$Q$R$# # # # # S$T$U$q@V$W$# # # # # # # # # # # # # # # # # # # # #   ",
"  # # # # # # # # # # # # # # # # # # # # # # # # o@X$Y$Z$`$1@# # # # # #  %.%].+%@%# # # # # # # # # # # # # # # # # # # # #   ",
"  # # # # # # # # # # # # # # # # # # # # # # # #%$%%%&%*%d+# # # # # # # # =%-%;%z@>%# # # # # # # # # # # # # # # # # # # #   ",
"  # # # # # # # # # # # # # # # # # # # # # # # ,%'%)%!%~%# # # # # # # # # # {%]%H.^%/%# # # # # # # # # # # # # # # # # # #   ",
"  # # # # # # # # # # # # # # # # # # # # # # F@(%1 _%:%# # # # # # # # # # # # <%[%E#}%# # # # # # # # # # # # # # # # # # #   ",
"  # # # # # # # # # # # # # # # # # # # # # # |%K$1%2%# # # # # # # # # # # # # 3%4%a 5%# # # # # # # # # # # # # # # # # # #   ",
"  # # # # # # # # # # # # # # # # # # # # # # 2@6%7%8%# # # # # # # # # # # # # # 9%0%a%b%# # # # # # # # # # # # # # # # # #   ",
"  # # # # # # # # # # # # # # # # # # # # # ~@c%A d%# # # # # # # # # # # # # # # e%f%g%h%# # # # # # # # # # # # # # # # # #   ",
"  # # # # # # # # # # # # # # # # # # # # # i%j%P$k%# # # # # # # # # # # # # # # l%m%n%o%# # # # # # # # # # # # # # # # # #   ",
"  # # # # # # # # # # # # # # # # # # # # # p%q%r%s%# # # # # # # # # # # # # # # t%u%v%w%# # # # # # # # # # # # # # # # # #   ",
"  # # # # # # # # # # # # # # # # # # # # # x%y%z%A%# # # # # # # # # # # # # # # B%C%D%E%# # # # # # # # # # # # # # # # # #   ",
"  # # # # # # # # # # # # # # # # # # # # # F%G%H%I%# # # # # # # # # # # # # # # J%K%L%M%# # # # # # # # # # # # # # # # # #   ",
"  # # # # # # # # # # # # # # # # # # # # # N%O%P%Q%# # # # # # # # # # # # # # # 1@R%[ S%# # # # # # # # # # # # # # # # # #   ",
"  # # # # # # # # # # # # # # # # # # # # # T%U%V%W%# # # # # # # # # # # # # # # # X%f Y%1@# # # # # # # # # # # # # # # # #   ",
"  # # # # # # # # # # # # # # # # # # # # # Z%z `% &# # # # # # # # # # # # # # # # .&+&@&#&# # # # # # # # # # # # # # # # #   ",
"  # # # # # # # # # # # # # # # # # # # # # $&=+%&&&# # # # # # # # # # # # # # # # *&A =&i%# # # # # # # # # # # # # # # # #   ",
"  # # # # # # # # # # # # # # # # # # # # ~@-&g ;&>&# # # # # # # # # # # # # # # # ,&'&2#)&# # # # # # # # # # # # # # # # #   ",
"  # # # # # # # # # # # # # # # # # # # # !&~&[ j%{&# # # # # # # # # # # # # # # # ]&].^&/&/%# # # # # # # # # # # # # # # #   ",
"  # # # # # # # # # # # # # # # # # # (&_&:&<&< [&{&# # # # # # # # # # # # # # # # }&N@|&1&2&3&4&# # # # # # # # # # # # # #   ",
"      # # # # # # # # # # # # # 8%:%5&6&v@A < o 7&8&# # # # # # # # # # # # # # # # 9&0&a&<&*+b&c&d&e&f&# # # # # # # # #       ",
"      # # # # # # # # # # # # g&h&i&j&k&l&m&n&o&p&q&# # # # # # # # # # # # # # # # r&s&t&u&v&w&x&y&z&7+# # # # # # # # #       ",
"                                A&B&C&D&E&F&G&H&                                                                                "};
