/* XPM */
static char * PLAYERd_xpm[] = {
"64 64 144 2",
"  	c #333C57",
". 	c #343C55",
"+ 	c #FEFEFE",
"@ 	c #353E57",
"# 	c #8E774D",
"$ 	c #FFFFFF",
"% 	c #343D57",
"& 	c #1A1C2C",
"* 	c #A4E2E2",
"= 	c #383F57",
"- 	c #3A4156",
"; 	c #4D4C4C",
"> 	c #363D53",
", 	c #EEEEEE",
"' 	c #857048",
") 	c #E1D3CA",
"! 	c #3B3F50",
"~ 	c #404659",
"{ 	c #3D4356",
"] 	c #7B6947",
"^ 	c #4E5262",
"/ 	c #CFD0D0",
"( 	c #B5DEF7",
"_ 	c #343B51",
": 	c #44495B",
"< 	c #434347",
"[ 	c #8F784D",
"} 	c #B0B0B0",
"| 	c #BCBCBC",
"1 	c #D2D3D3",
"2 	c #E2E2E2",
"3 	c #C2B8B1",
"4 	c #363B4B",
"5 	c #494D5C",
"6 	c #8C754C",
"7 	c #676C76",
"8 	c #C5C5C5",
"9 	c #7F6B46",
"0 	c #A5A4A4",
"a 	c #96979A",
"b 	c #C6C8C8",
"c 	c #E6E5E5",
"d 	c #F7F7F7",
"e 	c #CADDC7",
"f 	c #72644E",
"g 	c #5E606A",
"h 	c #FAFAFA",
"i 	c #565761",
"j 	c #87868A",
"k 	c #B6B6B6",
"l 	c #CDCCCC",
"m 	c #818081",
"n 	c #D9D8D9",
"o 	c #BBB3AD",
"p 	c #CCDFC8",
"q 	c #3B3E4A",
"r 	c #32394E",
"s 	c #6F7076",
"t 	c #76767B",
"u 	c #A9A9AC",
"v 	c #89734A",
"w 	c #BEC0BF",
"x 	c #F3F3F3",
"y 	c #BDCCCD",
"z 	c #B3AAA5",
"A 	c #A4C6DA",
"B 	c #A8CCDF",
"C 	c #C6CECE",
"D 	c #6C5D48",
"E 	c #47464D",
"F 	c #8D8C8F",
"G 	c #9DA1A4",
"H 	c #55535B",
"I 	c #CABDB6",
"J 	c #708891",
"K 	c #A5C6C6",
"L 	c #909091",
"M 	c #67676D",
"N 	c #1E202E",
"O 	c #93C2C2",
"P 	c #8DA9BA",
"Q 	c #9FAAA4",
"R 	c #DACDC3",
"S 	c #B0BFAD",
"T 	c #DDDDDD",
"U 	c #D6D7D6",
"V 	c #ADD3E9",
"W 	c #BACAB7",
"X 	c #A7B4B5",
"Y 	c #DFD1C7",
"Z 	c #B3DAF2",
"` 	c #E9E9E9",
" .	c #867A62",
"..	c #5F554C",
"+.	c #9BA498",
"@.	c #665953",
"#.	c #76736E",
"$.	c #9FCE6B",
"%.	c #96BD69",
"&.	c #566472",
"*.	c #7A919E",
"=.	c #ABB9A6",
"-.	c #60727F",
";.	c #7A7B81",
">.	c #B5C3B3",
",.	c #93C9C9",
"'.	c #8E877C",
").	c #A5B2A1",
"!.	c #545B6A",
"~.	c #95B2C5",
"{.	c #C0D1BD",
"].	c #C6D8C2",
"^.	c #7D6E50",
"/.	c #554E4E",
"(.	c #4A4C54",
"_.	c #232632",
":.	c #9DBFD0",
"<.	c #949B8D",
"[.	c #8FB66A",
"}.	c #B2F256",
"|.	c #C9C2C0",
"1.	c #B2DBF4",
"2.	c #475661",
"3.	c #B4CACA",
"4.	c #8FA5AD",
"5.	c #6D7D8A",
"6.	c #453525",
"7.	c #86AEAF",
"8.	c #7E7256",
"9.	c #687664",
"0.	c #923F47",
"a.	c #8D7A36",
"b.	c #AEE265",
"c.	c #88C841",
"d.	c #6C855A",
"e.	c #594343",
"f.	c #9DD6D6",
"g.	c #D4C8C0",
"h.	c #C4D5C0",
"i.	c #9FDDDF",
"j.	c #B09A3B",
"k.	c #323C55",
"l.	c #333CFE",
"m.	c #34FE57",
"& & & & & & & & & & & & & & & & & & & & & & & & & N N & & & & & & & & & & & & & & & & & & & & & & & & & & & & & & & & & & & & & ",
"& & &                                             > ~.2.    % &.                                                          & & & ",
"& & &                                             @ A V 5.% &.B >                                                         & & & ",
"&                                                   ~.( Z J P ( !.% @                                                         & ",
"&                                           . > = = P ( ( B V ( -.*.=                                                         & ",
"&                                           % 4.B A Z A o I 3 X B A =                                                         & ",
"&                                             ~ B ( A |.o 3 Y ) 0 *.                                                          & ",
"&                                             @ -.( k ) 3 G Q } 4.J -.@                                                       & ",
"&                                         % -.~.Z 1.3 Y | ` b a n 1 &.                                                        & ",
"&                                         5 P V ( Z 3 R 2 $ , a + x ^                                                         & ",
"&                                             - *.( o Y | 2 8 3 |.} =                                                         & ",
"&                                           = P 1.V z Y o z R I 0 m @                                                         & ",
"&                                           % J :.X Y ) ) ) ) I I F                                                           & ",
"&                                             % ~ :.} ) z m #.M #.H                                                           & ",
"&                                               - &.5.R '.e.@.f @.i                                                           & ",
"&                                                 > ~ j g.o Y R s                                                             & ",
"&                                                   % i 3 o L i                                                               & ",
"&                                               7 w 2 | X X m m %                                                             & ",
"&                                           % 0 d + + C * i.| , } %                                                           & ",
"&                                         - | h , c 2 C * * U l 1 .                                                           & ",
"&                                       g U + T 0 T x C * * U T l -                                 - 2.@                     & ",
"&                                   % j , + b ~ u / h C * * 1 + 8 g                                 [.}.%.                    & ",
"&                                 % u h d u .   u d / C * * / 1 1 j                                 $.c.$.                    & ",
"&                               @ 8 h c t       } d l y * * y 8 n 0                                 $.%.%.                    & ",
"&                               @ , h 7         | b + y * * y h l w                         @ : H M b.}.[.;.s { @             & ",
"&                                 k + / .       8 1 + 3.* * 3.+ L ^ @                   { s H i 0.H 9.d.#.M 5 _..             & ",
"&                                 ^ x h F       / c , K * * 3., r = =           % = _ > 5 (.g 5 ! { j | w 8 8 4 %             & ",
"&                                   u + ` 5   % n + 1 K * * K l { = { { { = - > - ! _ = q E j i : { s M !.{ > .               & ",
"&                                   - 2 + b   = c + / O * * K G {                 - ~ ! { ! {                                 & ",
"&                                     t h + a > x $ c ,.* * O G : ^ ^ : ~ ~ 5 : : - { %                                       & ",
"&                                     % } + d ;.+ $ 2 f.* * O n ^                                                             & ",
"&                                       = U + k d + 1 * * * ,.d 7                                                             & ",
"&                                         ^ Q 7.2 + b 7.,.O J , t                                                             & ",
"&                                         % t R / + a 6.j.a.6.c m                                                             & ",
"&                                         g z Y l +  .# # # 6 U F                                                             & ",
"&                                         ^ z 3 c , f  .^.# # b a                                                             & ",
"&                                           > , + 1  .p ).# # k 0                                                             & ",
"&                                           !.h + } 8.p S # # 0 k                                                             & ",
"&                                           j $ +  .^.p W ' # '.w                                                             & ",
"&                                           } $ c ' ] p ].] # f l                                                             & ",
"&                                           / $ k [ ] e p 8.# D ;.@                                                           & ",
"&                                         @ ` h m [ ] ].e '.# ^.~ >                                                           & ",
"&                                         ^ h T Q [ 9 h.e <.# ] ^ {                                                           & ",
"&                                         L + w =.# 9 {.e +.# 9 L 7                                                           & ",
"&                                         | 2 {.S 6 9 {.e ).[ ' ).a                                                           & ",
"&                                       @ T >.e >.v ' W e S 6 6 S F %                                                         & ",
"&                                       : b ].p W v ' =.W >.' # =.Q -                                                         & ",
"&                                       M +.<.7 : ' v > = = ] # t +.4                                                         & ",
"&                                       r @     = ' ' _   % ] # !   %                                                         & ",
"&                                               _ v 9 =     9 6 _                                                             & ",
"&                                               ! # ]     = ' ' _                                                             & ",
"&                                               E # f     > v 9 -                                                             & ",
"&                                               /.# D     ! 6 ] %                                                             & ",
"&                                               ..# ..    ! [ f                                                               & ",
"&                                               D [ /.    E # D                                                               & ",
"&                                               f [ E     ; [ @.                                                              & ",
"&                                               ] # !     ; 6 ..                                                              & ",
"&                                               ! < .     ~ G _                                                               & ",
"&                                               ~ s %     i , =                                                               & ",
"&                                             . q g %     (.a 4 %                                                             & ",
"&                                             4 ; ; < % @ < ; ; < >                                                           & ",
"& & &                                         4 ; ; ; q = < ; ; ; ; q                                                     & & & ",
"& & &                                         . q < E E r . r _ 4 4 _                                                     & & & ",
"& & & & & & & & & & & & & & & & & & & & & & & & & & N _.N & & & & & & & & & & & & & & & & & & & & & & & & & & & & & & & & & & & "};
