/* XPM */
static char * PLAYERe_xpm[] = {
"64 64 650 2",
"  	c #1A1C2C",
". 	c #1B1D2D",
"+ 	c #1F212F",
"@ 	c #1D1F2D",
"# 	c #333C57",
"$ 	c #596975",
"% 	c #353D57",
"& 	c #495567",
"* 	c #94B0C0",
"= 	c #363D54",
"- 	c #353D55",
"; 	c #A6CADD",
"> 	c #526171",
", 	c #353D58",
"' 	c #697C8C",
") 	c #ADD3EB",
"! 	c #A1C5DA",
"~ 	c #353E57",
"{ 	c #363E58",
"] 	c #343D57",
"^ 	c #505E6F",
"/ 	c #B5DFF6",
"( 	c #8CA8B9",
"_ 	c #6E8394",
": 	c #B3DAF2",
"< 	c #B5DDF6",
"[ 	c #94B1C4",
"} 	c #384055",
"| 	c #7D93A0",
"1 	c #607583",
"2 	c #ADD2E5",
"3 	c #A8CDDF",
"4 	c #B5DEF7",
"5 	c #B5DDF7",
"6 	c #8DAABC",
"7 	c #383F58",
"8 	c #373F57",
"9 	c #363E54",
"0 	c #343C55",
"a 	c #373F58",
"b 	c #A0C4D5",
"c 	c #AACEDF",
"d 	c #ADB3B6",
"e 	c #C6B8B0",
"f 	c #C9BCB4",
"g 	c #B6B3B1",
"h 	c #A6C6D8",
"i 	c #B2DAF2",
"j 	c #A4C7DC",
"k 	c #A5C9DF",
"l 	c #8CA5B4",
"m 	c #343D56",
"n 	c #768D99",
"o 	c #A4A4A4",
"p 	c #E2D3CA",
"q 	c #DDCFC6",
"r 	c #BDB7B2",
"s 	c #BAB5B0",
"t 	c #CEC2BD",
"u 	c #A6C7DC",
"v 	c #A8CBE0",
"w 	c #3E475D",
"x 	c #63727D",
"y 	c #7A8689",
"z 	c #92A4A5",
"A 	c #B4B1AE",
"B 	c #9CA7A9",
"C 	c #97A2A3",
"D 	c #BFB6B0",
"E 	c #E1D2C9",
"F 	c #B3B5B7",
"G 	c #B5DDF5",
"H 	c #5E707E",
"I 	c #353E58",
"J 	c #5C6672",
"K 	c #D0D2D2",
"L 	c #D9D8D8",
"M 	c #8F999B",
"N 	c #C4C8C9",
"O 	c #E8E8E8",
"P 	c #C0BCBA",
"Q 	c #DFD1C8",
"R 	c #C3B7AF",
"S 	c #B1DBF3",
"T 	c #B5D9F1",
"U 	c #96B3C9",
"V 	c #5E6D7D",
"W 	c #4F5361",
"X 	c #F3F3F3",
"Y 	c #FEFEFE",
"Z 	c #9A999A",
"` 	c #EDEDED",
" .	c #FFFFFE",
"..	c #E1E1E1",
"+.	c #D8CBC2",
"@.	c #C4B9B0",
"#.	c #B1DAF1",
"$.	c #ADD2E9",
"%.	c #8FABBB",
"&.	c #454D5D",
"*.	c #383F56",
"=.	c #B0AFB1",
"-.	c #C4C2C2",
";.	c #C3B8B2",
">.	c #C6C3C3",
",.	c #E3E3E3",
"'.	c #BFBAB8",
").	c #DFD2C9",
"!.	c #BDB3AC",
"~.	c #B4DDF5",
"{.	c #7B93A1",
"].	c #394157",
"^.	c #373E55",
"/.	c #817F7F",
"(.	c #A9A19D",
"_.	c #C7BBB6",
":.	c #D8CCC3",
"<.	c #AFA7A1",
"[.	c #BAB0A9",
"}.	c #DED0C7",
"|.	c #AEA6A2",
"1.	c #ACD2E9",
"2.	c #B2DAF4",
"3.	c #8AA6B7",
"4.	c #374057",
"5.	c #928C8C",
"6.	c #CBBEB8",
"7.	c #CABEB7",
"8.	c #E1D4CB",
"9.	c #E2D3C9",
"0.	c #E1D2C8",
"a.	c #E1D2CA",
"b.	c #E0D2C8",
"c.	c #ABB3B6",
"d.	c #9BC0D5",
"e.	c #728999",
"f.	c #55545A",
"g.	c #79716B",
"h.	c #6E6764",
"i.	c #77716D",
"j.	c #86807C",
"k.	c #B9ACA7",
"l.	c #E2D2C9",
"m.	c #B0B0AE",
"n.	c #9EBECB",
"o.	c #3F485C",
"p.	c #56565D",
"q.	c #675959",
"r.	c #6E615C",
"s.	c #655856",
"t.	c #594343",
"u.	c #8C8480",
"v.	c #DACCC4",
"w.	c #717F88",
"x.	c #51616F",
"y.	c #384157",
"z.	c #727074",
"A.	c #DBCDC3",
"B.	c #BDB2AA",
"C.	c #D4C8C0",
"D.	c #888383",
"E.	c #3C4559",
"F.	c #565563",
"G.	c #968F8F",
"H.	c #C2B6AF",
"I.	c #5A5962",
"J.	c #353D56",
"K.	c #7D7F86",
"L.	c #7F7F82",
"M.	c #A0B2AF",
"N.	c #A3B9B8",
"O.	c #B7BCBC",
"P.	c #E1E2E2",
"Q.	c #C0C0C2",
"R.	c #6A6D77",
"S.	c #343C57",
"T.	c #343D58",
"U.	c #AEAEB1",
"V.	c #BEBDBE",
"W.	c #9FDDDF",
"X.	c #A5E2E2",
"Y.	c #C6CDCC",
"Z.	c #F8F8F8",
"`.	c #A2A3A6",
" +	c #D3D3D3",
".+	c #CDCDCD",
"++	c #D6D7D7",
"@+	c #A3E1E2",
"#+	c #A6E2E3",
"$+	c #C8CECF",
"%+	c #E2E2E2",
"&+	c #E5E5E5",
"*+	c #F0F0F0",
"=+	c #FCFCFC",
"-+	c #BCBDBE",
";+	c #3A4158",
">+	c #45575C",
",+	c #374158",
"'+	c #3A4155",
")+	c #CACACA",
"!+	c #DFDFDF",
"~+	c #D3D6D5",
"{+	c #A4E1E2",
"]+	c #A5E2E1",
"^+	c #C5CDCC",
"/+	c #F5F4F4",
"(+	c #DEDEDE",
"_+	c #A5A6A8",
":+	c #DDDEDE",
"<+	c #FDFDFD",
"[+	c #D7D7D8",
"}+	c #5B5E6B",
"|+	c #99BF69",
"1+	c #B1F05A",
"2+	c #8CB96C",
"3+	c #5E616D",
"4+	c #C6C6C6",
"5+	c #CFD4D3",
"6+	c #A4E2E2",
"7+	c #A5E3E1",
"8+	c #C5CDCD",
"9+	c #D0D0D0",
"0+	c #A6A7AB",
"a+	c #40465B",
"b+	c #C8C8C9",
"c+	c #EFEFEF",
"d+	c #84868C",
"e+	c #A4CE6B",
"f+	c #88C841",
"g+	c #9DCC67",
"h+	c #84858C",
"i+	c #D2D2D2",
"j+	c #D4D4D4",
"k+	c #C9D2D3",
"l+	c #A4E2E4",
"m+	c #C4CFCF",
"n+	c #CECFCF",
"o+	c #F6F6F6",
"p+	c #AAAAAE",
"q+	c #343C56",
"r+	c #A8A7AA",
"s+	c #F9F9F9",
"t+	c #ABACAD",
"u+	c #95BD6C",
"v+	c #93BA67",
"w+	c #9DD06F",
"x+	c #A4A5A9",
"y+	c #D8D7D8",
"z+	c #C3C3C3",
"A+	c #BFCBCD",
"B+	c #A3E2E2",
"C+	c #BECCCB",
"D+	c #CDCECE",
"E+	c #B0B1B4",
"F+	c #72747D",
"G+	c #E4E4E4",
"H+	c #FBFBFB",
"I+	c #C3C4C5",
"J+	c #363E56",
"K+	c #3E4251",
"L+	c #6E7078",
"M+	c #7A7B81",
"N+	c #91B368",
"O+	c #B3F452",
"P+	c #AEE265",
"Q+	c #67666D",
"R+	c #52535D",
"S+	c #434859",
"T+	c #BDBEC0",
"U+	c #CBCBCB",
"V+	c #BECDCE",
"W+	c #A4E2E1",
"X+	c #BACCCD",
"Y+	c #FCFDFD",
"Z+	c #C9C9C9",
"`+	c #BBBBBD",
" @	c #6A6C75",
".@	c #FAFAFA",
"+@	c #EEEDEE",
"@@	c #363E55",
"#@	c #343C54",
"$@	c #232732",
"%@	c #474C5C",
"&@	c #646771",
"*@	c #727671",
"=@	c #6C855A",
"-@	c #687664",
";@	c #5A535E",
">@	c #923F47",
",@	c #555761",
"'@	c #555256",
")@	c #716F72",
"!@	c #3E4357",
"~@	c #4F5363",
"{@	c #8E8F94",
"]@	c #B7CACB",
"^@	c #A3E2E1",
"/@	c #B3CAC9",
"(@	c #FDFEFE",
"_@	c #C4C4C6",
":@	c #CECECF",
"<@	c #B8B7B9",
"[@	c #393B44",
"}@	c #C6C6C5",
"|@	c #C6C5C6",
"1@	c #C1C1C0",
"2@	c #BDBDBB",
"3@	c #88888E",
"4@	c #3D4357",
"5@	c #393F53",
"6@	c #4B4E5A",
"7@	c #616065",
"8@	c #4A4C54",
"9@	c #4C4E5A",
"0@	c #383E52",
"a@	c #343B51",
"b@	c #383F55",
"c@	c #32384E",
"d@	c #ECECEB",
"e@	c #B0C8C8",
"f@	c #A4E1E1",
"g@	c #A9C7C7",
"h@	c #CECFD0",
"i@	c #898A90",
"j@	c #F1F1F1",
"k@	c #4D5262",
"l@	c #383E54",
"m@	c #3D4356",
"n@	c #575A67",
"o@	c #656872",
"p@	c #3F4457",
"q@	c #464B5C",
"r@	c #565660",
"s@	c #8A8484",
"t@	c #444653",
"u@	c #3B3E4A",
"v@	c #333B52",
"w@	c #3B4052",
"x@	c #3B4156",
"y@	c #383E53",
"z@	c #3A4156",
"A@	c #393F54",
"B@	c #3E4458",
"C@	c #3E4457",
"D@	c #3D4255",
"E@	c #384059",
"F@	c #3E4356",
"G@	c #CCCCCD",
"H@	c #AAC6C6",
"I@	c #A0C5C4",
"J@	c #DADADB",
"K@	c #484D5F",
"L@	c #EBEBEB",
"M@	c #A7A8AB",
"N@	c #3D4358",
"O@	c #3E4353",
"P@	c #3A3F50",
"Q@	c #414659",
"R@	c #394055",
"S@	c #3D4253",
"T@	c #A0A1A5",
"U@	c #A1C3C4",
"V@	c #92C0C1",
"W@	c #E6E6E6",
"X@	c #333C56",
"Y@	c #C6C7C8",
"Z@	c #E2E1E1",
"`@	c #3C4257",
" #	c #44495B",
".#	c #43485A",
"+#	c #474B5E",
"@#	c #41475B",
"##	c #3E455A",
"$#	c #42485C",
"%#	c #4D5263",
"&#	c #4F5362",
"*#	c #464A5A",
"=#	c #9E9FA5",
"-#	c #99C3C3",
";#	c #93C9CA",
">#	c #E7E7E7",
",#	c #FFFFFF",
"'#	c #F2F2F2",
")#	c #999A9E",
"!#	c #767780",
"~#	c #505463",
"{#	c #D7D8DA",
"]#	c #93C2C3",
"^#	c #9DD6D6",
"/#	c #E2E2E3",
"(#	c #797B7F",
"_#	c #B1B0B3",
":#	c #6A6C76",
"<#	c #F7F8F7",
"[#	c #91C7C7",
"}#	c #A6E1E1",
"|#	c #D1D3D4",
"1#	c #F7F7F7",
"2#	c #B4B4B4",
"3#	c #FDFDFC",
"4#	c #D6D6D6",
"5#	c #383F57",
"6#	c #73757E",
"7#	c #688C8C",
"8#	c #8CC0C1",
"9#	c #95CACA",
"0#	c #80AFAE",
"a#	c #BFC8C8",
"b#	c #E0E0DF",
"c#	c #8CACAF",
"d#	c #9CA9AA",
"e#	c #7F8087",
"f#	c #E4E4E3",
"g#	c #493C28",
"h#	c #8D7A36",
"i#	c #B09A3B",
"j#	c #412F23",
"k#	c #969493",
"l#	c #D1CFCD",
"m#	c #DCCEC4",
"n#	c #7C7778",
"o#	c #8A8B91",
"p#	c #D7D6D5",
"q#	c #8C764B",
"r#	c #8F774D",
"s#	c #8F774E",
"t#	c #8E774D",
"u#	c #867964",
"v#	c #D0CDCB",
"w#	c #E1D1C8",
"x#	c #B2AAA4",
"y#	c #61626B",
"z#	c #97989D",
"A#	c #C8C7C6",
"B#	c #8E774F",
"C#	c #7E6E51",
"D#	c #82785C",
"E#	c #746546",
"F#	c #E6E5E5",
"G#	c #C0B8B4",
"H#	c #B7ADA8",
"I#	c #4B4E5E",
"J#	c #A3A4A7",
"K#	c #BAB7B3",
"L#	c #8E774E",
"M#	c #A7B3A1",
"N#	c #CDE0CA",
"O#	c #837A5F",
"P#	c #D3D2D1",
"Q#	c #353D54",
"R#	c #B2B3B5",
"S#	c #A8A49F",
"T#	c #8D774C",
"U#	c #AFBEAA",
"V#	c #CBE0C8",
"W#	c #7F7357",
"X#	c #B2AEA8",
"Y#	c #565A67",
"Z#	c #BDBEBF",
"`#	c #908980",
" $	c #8F764E",
".$	c #857048",
"+$	c #B9CBB6",
"@$	c #CBDFC6",
"#$	c #7C6D4D",
"$$	c #8B7E6B",
"%$	c #85878D",
"&$	c #CBCBCC",
"*$	c #726552",
"=$	c #7C6A46",
"-$	c #C5D7C2",
";$	c #CCDEC8",
">$	c #7C6A49",
",$	c #857049",
"'$	c #ADAEB1",
")$	c #7A7B83",
"!$	c #6C5C3E",
"~$	c #7E7255",
"{$	c #CCDEC9",
"]$	c #CADCC6",
"^$	c #7B6948",
"/$	c #8E784D",
"($	c #BAB8B5",
"_$	c #363D55",
":$	c #414656",
"<$	c #7E6E53",
"[$	c #8D8974",
"}$	c #CADDC8",
"|$	c #C6D8C2",
"1$	c #7D6A47",
"2$	c #8F784D",
"3$	c #82817B",
"4$	c #363E57",
"5$	c #4C515E",
"6$	c #7A6845",
"7$	c #8D774D",
"8$	c #979A86",
"9$	c #CADDC7",
"0$	c #C4D5C0",
"a$	c #7E6B45",
"b$	c #90784E",
"c$	c #A0AC9E",
"d$	c #DBDBDB",
"e$	c #676A74",
"f$	c #8D938E",
"g$	c #7E6B44",
"h$	c #9EA694",
"i$	c #C1D3BD",
"j$	c #806C46",
"k$	c #AABAA6",
"l$	c #BAC2BA",
"m$	c #FDFDFE",
"n$	c #8D8F94",
"o$	c #939498",
"p$	c #A3AFA1",
"q$	c #846F48",
"r$	c #8E784C",
"s$	c #A5B2A1",
"t$	c #BECFBB",
"u$	c #816D47",
"v$	c #8B754B",
"w$	c #B0BFAD",
"x$	c #C0CFBF",
"y$	c #E0E1E1",
"z$	c #BABBBD",
"A$	c #8D8E8D",
"B$	c #B1BFAD",
"C$	c #8A754C",
"D$	c #8C754C",
"E$	c #B0BFAE",
"F$	c #BBCCB7",
"G$	c #847049",
"H$	c #8A744B",
"I$	c #B5C5B1",
"J$	c #CBDDC8",
"K$	c #B7BFB6",
"L$	c #3A4157",
"M$	c #A2ACA0",
"N$	c #ABB9A5",
"O$	c #836E46",
"P$	c #B3C3B1",
"Q$	c #BBCAB7",
"R$	c #AAB8A7",
"S$	c #867149",
"T$	c #87724A",
"U$	c #B8C7B6",
"V$	c #CBDEC8",
"W$	c #C6D7C2",
"X$	c #C8C9C7",
"Y$	c #464B5D",
"Z$	c #343A4A",
"`$	c #96A197",
" %	c #757873",
".%	c #7C6947",
"+%	c #373F56",
"@%	c #384058",
"#%	c #363D53",
"$%	c #88734B",
"%%	c #847048",
"&%	c #424959",
"*%	c #656E71",
"=%	c #909B93",
"-%	c #9EA59D",
";%	c #60636C",
">%	c #3C3F4F",
",%	c #7B6848",
"'%	c #333B53",
")%	c #846F46",
"!%	c #394058",
"~%	c #333A4F",
"{%	c #353B51",
"]%	c #8D754F",
"^%	c #7D6B47",
"/%	c #7F6B46",
"(%	c #89744A",
"_%	c #353B52",
":%	c #323A52",
"<%	c #86714B",
"[%	c #846F47",
"}%	c #7A6748",
"|%	c #3B3E50",
"1%	c #394159",
"2%	c #806B46",
"3%	c #897249",
"4%	c #373D53",
"5%	c #73634C",
"6%	c #484650",
"7%	c #7C6948",
"8%	c #8D754C",
"9%	c #3A3F52",
"0%	c #6B5C4D",
"a%	c #8D774E",
"b%	c #55504E",
"c%	c #76654A",
"d%	c #8F784E",
"e%	c #3D3F4F",
"f%	c #60554D",
"g%	c #61554D",
"h%	c #6E604A",
"i%	c #48474F",
"j%	c #554D4E",
"k%	c #6B5E4B",
"l%	c #665A4B",
"m%	c #4F4B4E",
"n%	c #46444F",
"o%	c #72634A",
"p%	c #5D554C",
"q%	c #8B764A",
"r%	c #4F4A4B",
"s%	c #3A3E50",
"t%	c #79684A",
"u%	c #9FA0A3",
"v%	c #404558",
"w%	c #45434A",
"x%	c #3C3E4E",
"y%	c #394057",
"z%	c #EEEEEE",
"A%	c #535764",
"B%	c #6D6F7A",
"C%	c #404659",
"D%	c #383C49",
"E%	c #979797",
"F%	c #4B4D55",
"G%	c #5B5E66",
"H%	c #373D51",
"I%	c #414348",
"J%	c #4C4C4C",
"K%	c #4D4D4D",
"L%	c #444546",
"M%	c #414249",
"N%	c #4D4D4C",
"O%	c #353B4E",
"P%	c #3A3E4C",
"Q%	c #4A4A4A",
"R%	c #434344",
"S%	c #394059",
"T%	c #3D3F49",
"U%	c #363B4C",
"V%	c #353B50",
"W%	c #363C4F",
"X%	c #32394F",
"Y%	c #353C55",
"Z%	c #343A4D",
"`%	c #464646",
" &	c #474747",
".&	c #434447",
"+&	c #3D404B",
"@&	c #242632",
"#&	c #1F202E",
"$&	c #1C1E2D",
"                                                                .         + @                                                   ",
"      # # # # # # # # # # # # # # # # # # # # # # # # # # # # # $ % # # & * = # # # # # # # # # # # # # # # # # # # # # #       ",
"      # # # # # # # # # # # # # # # # # # # # # # # # # # # # - ; > , ' ) ! ~ # # # # # # # # # # # # # # # # # # # # # #       ",
"  # # # # # # # # # # # # # # # # # # # # # # # # # # # # { ] ^ / ( _ : < [ # # # # # # # # # # # # # # # # # # # # # # # # #   ",
"  # # # # # # # # # # # # # # # # # # # # # # # # # # # # } | 1 / 2 3 4 5 6 7 8 9 0 # # # # # # # # # # # # # # # # # # # # #   ",
"  # # # # # # # # # # # # # # # # # # # # # # # # # # # # a b c d e f g h i j k l m # # # # # # # # # # # # # # # # # # # # #   ",
"  # # # # # # # # # # # # # # # # # # # # # # # # # # # # # n o p q r s t u < v w # # # # # # # # # # # # # # # # # # # # # #   ",
"  # # # # # # # # # # # # # # # # # # # # # # # # # # # { x y z A B C D E F G H I # # # # # # # # # # # # # # # # # # # # # #   ",
"  # # # # # # # # # # # # # # # # # # # # # # # # # # # # J K L M N O P Q R S T U V % # # # # # # # # # # # # # # # # # # # #   ",
"  # # # # # # # # # # # # # # # # # # # # # # # # # # # # W X Y Z `  ...+.@.#.4 $.%.&.# # # # # # # # # # # # # # # # # # # #   ",
"  # # # # # # # # # # # # # # # # # # # # # # # # # # # # *.=.-.;.>.,.'.).!.~.{.].# # # # # # # # # # # # # # # # # # # # # #   ",
"  # # # # # # # # # # # # # # # # # # # # # # # # # # # # ^./.(._.:.<.[.}.|.1.2.3.4.# # # # # # # # # # # # # # # # # # # # #   ",
"  # # # # # # # # # # # # # # # # # # # # # # # # # # # # # 5.6.7.8.9.0.a.b.c.d.e.% # # # # # # # # # # # # # # # # # # # # #   ",
"  # # # # # # # # # # # # # # # # # # # # # # # # # # # # # f.g.h.i.j.k.l.m.n.o.# # # # # # # # # # # # # # # # # # # # # # #   ",
"  # # # # # # # # # # # # # # # # # # # # # # # # # # # # # p.q.r.s.t.u.v.w.x.y.# # # # # # # # # # # # # # # # # # # # # # #   ",
"  # # # # # # # # # # # # # # # # # # # # # # # # # # # # # # z.A.}.B.C.D.E.= # # # # # # # # # # # # # # # # # # # # # # # #   ",
"  # # # # # # # # # # # # # # # # # # # # # # # # # # # # # # # F.G.B.H.I.% # # # # # # # # # # # # # # # # # # # # # # # # #   ",
"  # # # # # # # # # # # # # # # # # # # # # # # # # # # # # # J.K.L.M.N.O.P.Q.R.S.# # # # # # # # # # # # # # # # # # # # # #   ",
"  # # # # # # # # # # # # # # # # # # # # # # # # # # # # # T.U.` V.W.X.Y.Y Y Z.`.m # # # # # # # # # # # # # # # # # # # # #   ",
"  # # # # # # # # # # # # # # # # # # # # # # # # # # # # # 0  +.+++@+#+$+%+&+*+=+-+;+# # # # # # # # # # # # # # # # # # # #   ",
"  # # # # # # # # # # I >+,+# # # # # # # # # # # # # # # # '+)+!+~+{+]+^+/+(+_+:+<+[+}+# # # # # # # # # # # # # # # # # # #   ",
"  # # # # # # # # # # |+1+2+# # # # # # # # # # # # # # # # 3+4+Y 5+6+7+8+=+9+0+a+b+<+c+d+] # # # # # # # # # # # # # # # # #   ",
"  # # # # # # # # # # e+f+g+# # # # # # # # # # # # # # # # h+i+j+k+l+X.m+n+o+p+# q+r+Z.s+t+J.# # # # # # # # # # # # # # # #   ",
"  # # # # # # # # # # u+v+w+# # # # # # # # # # # # # # # # x+y+z+A+B+6+C+D+o+E+# # # F+G+H+I+~ # # # # # # # # # # # # # # #   ",
"  # # # # # # J+K+L+M+N+O+P+Q+R+S+{ # # # # # # # # # # # # T+U+s+V+W+{+X+Y+Z+`+# # # #  @.@+@@@# # # # # # # # # # # # # # #   ",
"  # # # # # # #@$@%@&@*@=@-@;@>@,@'@)@!@# # # # # # # # # ~ ~@{@Y ]@^@{+/@(@i+_@# # # q+:@Y <@# # # # # # # # # # # # # # # #   ",
"  # # # # # # ] [@}@|@1@2@3@4@5@6@7@8@9@0@a@7 ] # # # # # b@a c@d@e@f@{+g@` &+h@# # # i@=+j@k@# # # # # # # # # # # # # # # #   ",
"  # # # # # # # q+l@m@n@o@L+p@q@r@s@t@u@a v@w@x@y@z@A@B@C@D@E@F@G@H@{+{+I@i+<+J@] # K@L@Y M@# # # # # # # # # # # # # # # # #   ",
"  # # # # # # # # # # # # # # # # N@w@O@P@Q@R@# # # # # # # # S@T@U@W+{+V@9+Y W@7 X@Y@Y Z@;+# # # # # # # # # # # # # # # # #   ",
"  # # # # # # # # # # # # # # # # # # # m `@x@ #.#+#@###$#%#&#*#=#-#f@W+;#>#,#'#= )#<+.@!## # # # # # # # # # # # # # # # # #   ",
"  # # # # # # # # # # # # # # # # # # # # # # # # # # # # # # ~#{#]#{+f@^#/#,#<+(#o+Y _#] # # # # # # # # # # # # # # # # # #   ",
"  # # # # # # # # # # # # # # # # # # # # # # # # # # # # # # :#<#[#{+f@}#|#Y 1#2#3#4#5## # # # # # # # # # # # # # # # # # #   ",
"  # # # # # # # # # # # # # # # # # # # # # # # # # # # # # # 6#c+7#8#9#0#a#Y b#c#d#~@# # # # # # # # # # # # # # # # # # # #   ",
"  # # # # # # # # # # # # # # # # # # # # # # # # # # # # # # e#f#g#h#i#j#k#Y l#m#n#m # # # # # # # # # # # # # # # # # # # #   ",
"  # # # # # # # # # # # # # # # # # # # # # # # # # # # # # # o#p#q#r#s#t#u#3#v#w#x#y## # # # # # # # # # # # # # # # # # # #   ",
"  # # # # # # # # # # # # # # # # # # # # # # # # # # # # # # z#A#B#B#C#D#E#` F#G#H#I## # # # # # # # # # # # # # # # # # # #   ",
"  # # # # # # # # # # # # # # # # # # # # # # # # # # # # # # J#K#L#L#M#N#O#P#Y c+Q## # # # # # # # # # # # # # # # # # # # #   ",
"  # # # # # # # # # # # # # # # # # # # # # # # # # # # # # # R#S#L#T#U#V#W#X#Y =+Y## # # # # # # # # # # # # # # # # # # # #   ",
"  # # # # # # # # # # # # # # # # # # # # # # # # # # # # # # Z#`# $.$+$@$#$$$<+,#%$# # # # # # # # # # # # # # # # # # # # #   ",
"  # # # # # # # # # # # # # # # # # # # # # # # # # # # # # # &$*$B#=$-$;$>$,$F#,#'$# # # # # # # # # # # # # # # # # # # # #   ",
"  # # # # # # # # # # # # # # # # # # # # # # # # # # # # # { )$!$L#~${$]$^$/$($,#:@# # # # # # # # # # # # # # # # # # # # #   ",
"  # # # # # # # # # # # # # # # # # # # # # # # # # # # # # _$:$<$t#[$}$|$1$2$3$=+O 4$# # # # # # # # # # # # # # # # # # # #   ",
"  # # # # # # # # # # # # # # # # # # # # # # # # # # # # # `@5$6$7$8$9$0$a$b$c$d$H+&## # # # # # # # # # # # # # # # # # # #   ",
"  # # # # # # # # # # # # # # # # # # # # # # # # # # # # # e$f$g$t#h$9$i$j$7$k$l$m$n$# # # # # # # # # # # # # # # # # # # #   ",
"  # # # # # # # # # # # # # # # # # # # # # # # # # # # # # o$p$q$r$s$9$t$u$v$w$x$y$z$# # # # # # # # # # # # # # # # # # # #   ",
"  # # # # # # # # # # # # # # # # # # # # # # # # # # # # ] A$B$C$D$E$9$F$G$H$I$J$K$d${ # # # # # # # # # # # # # # # # # # #   ",
"  # # # # # # # # # # # # # # # # # # # # # # # # # # # # L$M$N$L#O$P$Q$R$S$T$U$V$W$X$Y$# # # # # # # # # # # # # # # # # # #   ",
"  # # # # # # # # # # # # # # # # # # # # # # # # # # # # Z$`$ %r#.%+%@%#%$%%%&%*%=%-%;%# # # # # # # # # # # # # # # # # # #   ",
"  # # # # # # # # # # # # # # # # # # # # # # # # # # # # % # >%r#,%] # '%S$)%!%# # 4$~%# # # # # # # # # # # # # # # # # # #   ",
"  # # # # # # # # # # # # # # # # # # # # # # # # # # # # # # {%]%^%# # a /%(%_%# # # # # # # # # # # # # # # # # # # # # # #   ",
"  # # # # # # # # # # # # # # # # # # # # # # # # # # # # # # :%<%[%!%# # }%7$|%# # # # # # # # # # # # # # # # # # # # # # #   ",
"  # # # # # # # # # # # # # # # # # # # # # # # # # # # # # # 1%2%3%4%# # 5%s#6%# # # # # # # # # # # # # # # # # # # # # # #   ",
"  # # # # # # # # # # # # # # # # # # # # # # # # # # # # # # T.7%8%9%# # 0%a%b%# # # # # # # # # # # # # # # # # # # # # # #   ",
"  # # # # # # # # # # # # # # # # # # # # # # # # # # # # # # # c%d%e%# # f%t#g%# # # # # # # # # # # # # # # # # # # # # # #   ",
"  # # # # # # # # # # # # # # # # # # # # # # # # # # # # # # # h%t#i%# # j%2$k%# # # # # # # # # # # # # # # # # # # # # # #   ",
"  # # # # # # # # # # # # # # # # # # # # # # # # # # # # # # # l%/$m%# # n%2$o%# # # # # # # # # # # # # # # # # # # # # # #   ",
"  # # # # # # # # # # # # # # # # # # # # # # # # # # # # # # # p%q%r%# # s%T#t%# # # # # # # # # # # # # # # # # # # # # # #   ",
"  # # # # # # # # # # # # # # # # # # # # # # # # # # # # # # # {%u%v%# # q+w%x%# # # # # # # # # # # # # # # # # # # # # # #   ",
"  # # # # # # # # # # # # # # # # # # # # # # # # # # # # # # # y%z%A%# # ] B%C%# # # # # # # # # # # # # # # # # # # # # # #   ",
"  # # # # # # # # # # # # # # # # # # # # # # # # # # # # # # ] D%E%F%# # J.G%u@q+# # # # # # # # # # # # # # # # # # # # # #   ",
"  # # # # # # # # # # # # # # # # # # # # # # # # # # # # # H%I%J%K%L%I J.M%N%N%O%# # # # # # # # # # # # # # # # # # # # # #   ",
"      # # # # # # # # # # # # # # # # # # # # # # # # # # P%Q%N%K%J%R%S%T%K%K%K%U%# # # # # # # # # # # # # # # # # # # #       ",
"      # # # # # # # # # # # # # # # # # # # # # # # # # # V%O%O%W%X%Y%Z%`% &.&+&#@# # # # # # # # # # # # # # # # # # # #       ",
"                                                                      + @&#&$&                                                  "};
