/* XPM */
static char *_d243e8434394f9385e089cd11890a03PPXFUuiK6OOY81bo[] = {
/* columns rows colors chars-per-pixel */
"64 64 217 2 ",
"   c #020203",
".  c #090302",
"X  c #060807",
"o  c #0C0A04",
"O  c #02050A",
"+  c #040A0C",
"@  c #0B0B0B",
"#  c #130B06",
"$  c #180B02",
"%  c #120D0C",
"&  c #0B110E",
"*  c #15110D",
"=  c #1A130C",
"-  c #1F190C",
";  c #040C12",
":  c #0B0F13",
">  c #110F12",
",  c #0C1214",
"<  c #081418",
"1  c #0E1A1E",
"2  c #141414",
"3  c #1B1513",
"4  c #1E1B14",
"5  c #15161A",
"6  c #151A1C",
"7  c #1B1B1C",
"8  c #251A0B",
"9  c #241E19",
"0  c #1D221E",
"q  c #282219",
"w  c #332714",
"e  c #131B26",
"r  c #1C1C21",
"t  c #131528",
"y  c #221F22",
"u  c #1E2226",
"i  c #15242B",
"p  c #1C232A",
"a  c #1D2A2E",
"s  c #1E2B32",
"d  c #242425",
"f  c #24242A",
"g  c #282929",
"h  c #2B2C2C",
"j  c #342C28",
"k  c #36322C",
"l  c #252C32",
"z  c #2C2D33",
"x  c #262C39",
"c  c #322F33",
"v  c #2C3335",
"b  c #23333B",
"n  c #2C353C",
"m  c #323435",
"M  c #32343D",
"N  c #393838",
"B  c #483926",
"V  c #453C34",
"C  c #483F37",
"Z  c #2C453D",
"A  c #32423C",
"S  c #524429",
"D  c #444339",
"F  c #4B433B",
"G  c #5C4E35",
"H  c #644E2E",
"J  c #6C552D",
"K  c #69582C",
"L  c #6B5532",
"P  c #705836",
"I  c #2B3B44",
"U  c #353B43",
"Y  c #3A3C44",
"T  c #383C49",
"R  c #303956",
"E  c #343D59",
"W  c #2C4345",
"Q  c #33434C",
"!  c #3C424D",
"~  c #374E56",
"^  c #394B53",
"/  c #37405B",
"(  c #3A425D",
")  c #3E4660",
"_  c #434545",
"`  c #454749",
"'  c #554D45",
"]  c #57514A",
"[  c #424553",
"{  c #444B55",
"}  c #4B4C55",
"|  c #444C5A",
" . c #4A4D5D",
".. c #46525B",
"X. c #575859",
"o. c #61584D",
"O. c #645C56",
"+. c #44635C",
"@. c #6C635B",
"#. c #75695A",
"$. c #444B63",
"%. c #494F65",
"&. c #4E5363",
"*. c #455962",
"=. c #4A5E65",
"-. c #4D546A",
";. c #515565",
":. c #515A67",
">. c #545A6C",
",. c #5A5C6B",
"<. c #575D71",
"1. c #546468",
"2. c #4F6771",
"3. c #576F76",
"4. c #5E727C",
"5. c #646665",
"6. c #746961",
"7. c #796D63",
"8. c #687379",
"9. c #727075",
"0. c #777876",
"q. c #84776D",
"w. c #877C72",
"e. c #8E8376",
"r. c #8D837A",
"t. c #95877B",
"y. c #5D7580",
"u. c #677A86",
"i. c #6A828C",
"p. c #798283",
"a. c #6B8894",
"s. c #788C96",
"d. c #7A919B",
"f. c #7A95A1",
"g. c #878986",
"h. c #978C83",
"j. c #9C9381",
"k. c #8A9398",
"l. c #989B9A",
"z. c #A5978B",
"x. c #A89C91",
"c. c #95A096",
"v. c #ACA298",
"b. c #B3A597",
"n. c #B4A69A",
"m. c #839CA7",
"M. c #87A5A9",
"N. c #9AA4A2",
"B. c #8CA9B6",
"V. c #93ACB8",
"C. c #9BB3BC",
"Z. c #A6A9AB",
"A. c #BBAEA3",
"S. c #BEB2A5",
"D. c #AFB6B7",
"F. c #B3B6B6",
"G. c #C0AD9D",
"H. c #C2B3A4",
"J. c #C5B7AA",
"K. c #C5B9AB",
"L. c #CCBDAE",
"P. c #D2BFB1",
"I. c #CDC1B6",
"U. c #D5C4B4",
"Y. c #DAC6B5",
"T. c #DBC8B6",
"R. c #D6C6B9",
"E. c #DBC7B9",
"W. c #D6C8BB",
"Q. c #DBC9BA",
"!. c #C4D8BD",
"~. c #E2CAB9",
"^. c #8FB3C4",
"/. c #99B8C5",
"(. c #A1BCC5",
"). c #A4BFCC",
"_. c #9CD4D0",
"`. c #A4C2CE",
"'. c #BEC3C2",
"]. c #A7C7D5",
"[. c #AAC6D5",
"{. c #ADCEDC",
"}. c #B7CDDA",
"|. c #A9D7D9",
" X c #B4D1DE",
".X c #B8D4DB",
"XX c #9CE2D3",
"oX c #9CE2DA",
"OX c #A1E1D5",
"+X c #ADD5E4",
"@X c #AED9E7",
"#X c #AED6EA",
"$X c #AEDAEB",
"%X c #AEDAED",
"&X c #B3D5E4",
"*X c #B3D9E6",
"=X c #B9D9E7",
"-X c #BBD9E6",
";X c #B2D7EA",
":X c #B2D9EB",
">X c #B1D9ED",
",X c #ADDBF1",
"<X c #B2DBF0",
"1X c #C5CAC9",
"2X c #CED3C6",
"3X c #CDD0D1",
"4X c #D9DDDC",
"5X c #DDDFE0",
"6X c #EAEAEA",
"7X c #EBF4F4",
"8X c #EEF8F6",
"9X c #ECF7F9",
"0X c #EDF9F9",
"qX c #F3F4F5",
"wX c #F2F8F7",
"eX c #F2FAFA",
"rX c #FDFDFD",
/* pixels */
"t t t t t t t t t t t t t t t t t t t t t t t t t t t M Y x t t t t t t t t t t t t t t t t t t t t t t t t t t t t t t t t t t ",
"t t t R R R R R R R R R R R R R R R R R R R R R R R ;.    t E R R R R R R R R R R R R E ! n E R R R R R R R R R R R R R R t t t ",
"t t t R R R R R R R R R R R R R R R R R R R R R R E M 5 {   &.R R R R R R R R R R R %.2 O   | R R R R R R R R R R R R R R t t t ",
"t R R R R R R R R R R R R R R R R R R R R R R R R |   Q  XO 7 $.R R R R R R R R R ( Y O U    .R R R R R R R R R R R R R R R R t ",
"t R R R R R R R R R R R R R R R R R R R R R R R R $.  3.#XB.  f E R R R R R R R E r   d.u.  -.R R R R R R R R R R R R R R R R t ",
"t R R R R R R R R R R R R R R R R R R R R R R R R -.  s.<X-Xb   1.R R R R R R &.5   I @Xu.  -.R R R R R R R R R R R R R R R R t ",
"t R R R R R R R R R R R R R R R R R R R R R R R R $.  (.#X<X).: @ -.R R R R  .    3.+X$X*.  $.R R R R R R R R R R R R R R R R t ",
"t R R R R R R R R R R R E y 5 M -.R R R R R R R R z   &X#X#X#X/.  f E R E }   p }.@X>X%Xn X ) R R R R R R R R R R R R R R R R t ",
"t R R R R R R R R R R R [   : O : | $.R R R R R E 7 O ;X$X$X>X:Xx    .E ,.  i /.$X%X>X:Xs % ( R R R R R R R R R R R R R R R R t ",
"t R R R R R R R R R R R  .O s./.<     r T ) R R ( X I +X:X:X:X>X;XO > l   , -X+X%X$X:X*Xp : ( R R R R R R R R R R R R R R R R t ",
"t R R R R R R R R R R R /   e  X+Xm.W +   + T %.|   4.$X%X%X>X>X+XU     b  X:X:X$X>X>X+X; 7 E R R R R R R R R R R R R R R R R t ",
"t R R R R R R R R R R R R z O d.;X>X*X{.u.; O   :   ).$X$X;X:X%X$Xi.O s [.>X:X:X$X%X>X/.  f R R R R R R R R R R R R R R R R R t ",
"t R R R R R R R R R R R R R   i *X%X>X<X%X;X(.1.  O *X,X:X:X$X#X$X Xu.;X>X,X>X:X%X>X>X`.O d E R R %.;.M u , 7 %.R R R R R R R t ",
"t R R R R R R R R R R R R R r O &X%X*X*X>X%X,X|.d.e -X>X>X;X-X=X&X-X X-X:X>X:X+X%X:X%Xf.  u M z 5 X     O     ! R R R R R R R t ",
"t R R R R R R R R R R R R R >.  f.@X;X$X%X:X%X>X+X;X:X*X8.O       X   ^ B.-X%X>X$X$X:X2.X     O ; ; *.{.-X:.X %.R R R R R R R t ",
"t R R R R R R R R R R R R R $.5 l -X>X:X@X*X;X%X%X].Q 2 7.J.W.T.T.T.L.b.F @ ..{.%X%X$XB.a./.+X-X*X>X>X[.b   [ E R R R R R R R t ",
"t R R R R R R R R R R R R R R ! O `.,X%X$X:X;X@XB.6 k K.T.Q.T.E.T.T.T.Y.W.J.q v  X;X$X:X;X:X$X>X$X#X;Xl O f ( R R R R R R R R t ",
"t R R R R R R R R R R R R R R ;.  u.>X%X;X:X*Xi.o b.T.Y.T.T.U.Y.Q.T.T.T.Y.T.T.q.+ {.$X>X:X:X$X#X#X&XQ   } E R R R R R R R R R t ",
"t R R R R R R R R R R R R R -.&.  1 &X;X$X+Xi.2 U.Y.Y.I.H.H.S.H.U.Q.T.T.Q.Y.T.T.] ^ :X>X>X>X$X$X-Xb   } ) R R R R R R R R R R t ",
"t R R R R R R R R R $.T M         O B.,X%X&X< q.T.Y.T.8 .   . . V Q.Y.Y.Q.Q.Y.T.T.@ m.$X$X:X%X*X=.O d E R R R R R R R R R R R t ",
"t R R R R R R R %.X   X O ~ f.C.]. X:X%X,XV.N Y.v.t.U.U.Q.W.W.R.Q.T.Y.Q.Y.n.t.z.Y.h.; *X>X>X+X^   [ E E R R R R R R R R R R R t ",
"t R R R R R R R !     k..X;X>X$X@X:X$X:X>X1 t.x.  O . j ] z.R.U.E.R.H.O.4 O @ X x.U.O -X>X:XQ   . u.E R R R R R R R R R R R R t ",
"t R R R R R R R / :     x [.+X:X$X%X:X:X-X  R._ C.;X-Xf.I 1 : +   + : s B.@X:Xm.V Y.g `.#X/.        N 4.%.E E R R R R R R R R t ",
"t R R R R R R R R R E M X O e a.&X$X>X>X{.  ~.x.: Q f.].*X:X*X:X%X@X#X].B.4.i X S.Q.o.V.>X&X/.i.:.l :     . 5 z ) R R R R R R t ",
"t R R R R R R R R R R R $.l   O 1.{.+X#X`.  U.U.% h f 1 a ..=.4.4.3.{ 1 2 _ X.3 #.U.w.d.<X;X$X@X>X+X).i...n     t E R R R R R t ",
"t R R R R R R R R R R R R R %.v   ; ].$XC.  T.C g.rXrXrX6X6X@ @.h.% X.qXrXrXrXqX% z.w.d.,X>X@X:X%X,X<X%X Xp     $.R R R R R R t ",
"t R R R R R R R R R R R R R &.r O < {.#XV.  n.3 rXrXrXrXrXrX0.V x.m eXrXrXrXrXrXl.F w.d.>X:X$X;X>X@X>Xy.;   [ | R R R R R R R t ",
"t R R R R R R R R R R R R -.  O ~ `.>X#XB.  t.d rXrXrX6XrXrXl.j 7.O.rXrX4X9.rXrX3XF e.a.;X#X>X>X$X Xu.  X %.R R R R R R R R R t ",
"t R R R R R R R R R R ( c O p `.@X$X>X<X(.  r.g rXrXF.  '.rX0.N q.5.rXrXN 3 rXrXZ.F H.=.<X,X*Xm.i +   } $.R R R R R R R R R R t ",
"t R R R R R R R R R E 5   i {.>X:X;X<X[.8.  v.2 rXrX6XF.rXrX9 w.H.9 wXrXqXqXrXrX7 e.H.O n `.Q O     ,.( R R R R R R R R R R R t ",
"t R R R R R R R R R X   n -X+X%X;X@X|.+ d . U.F 0.rXrXrXrX9.k L.R.j m rXrXrXrXZ.% U.x.6.] + V.Q O   u $.R R R R R R R R R R R t ",
"t R R R R R R R R E @   O < i Q Q Q | h.W.  Q.U.] 3 4 f % o.O.F F @.r.3 3 d % V R.Y.x.7.U.  ).;X;X1.X @ %.R R R R R R R R R R t ",
"t R R R R R R R R R E U M > X     , l A.Q.  Y.~.Y.J.x.r.n.U.#.N j w.Y.K.b.t.x.U.Y.T.b.O.R.X `.$X$X;Xf.O @  .R R R R R R R R R t ",
"t R R R R R R R R R R R R E E -.  W M.D Y.  Q.T.T.h.* # V Q.z.o . S.Y.T.E.T.Y.Q.Y.Y.t.w.w., %X%X#X%X+X/.;   &.E R R R R R R R t ",
"t R R R R R R R R R R R R R R %.  C.*Xn =   K.T.W.J.b.H.Y.Y.U.7.@.Q.Y.~.T.T.T.T.E.~.#.X l ].#X,X@X`.s.8.k.:   [ R R R R R R R t ",
"t R R R R R R R R R R R R R ) m O {.,X{.B.; z.~.T.Y.T.R.~.T.Q.Y.Y.~.T.T.T.T.T.Q.R.Y.D M.-X%Xa.Q a             E R R R R R R R t ",
"t R R R R R R R R R R R R R &.  s.@X@X*X&X..] T.T.b.T.~.T.Y.Q.U.2XQ.Q.Y.Y.U.#.Q.T.U.  :X-X>Xl     ..-.%.>.<.$.E R R R R R R R t ",
"t R R R R R R R R R R R R R r   1.s p ; O   % H.Q.8 v.q.V q 3 = = $ 9 j o.J.3 h.T.t.; :X>X>Xy.  ,.R R R R R R R R R R R R R R t ",
"t R R R R R R R R R R R R R 2     O @ 5 7     6.Q.$ K.k @.t.I.Q.~.U.n.7.V j.% z.~.k ~ @X#X%X^.& q E R R R R R R R R R R R R R t ",
"t R R R R R R R R R R R R R E $.$.( R R >.  i.5 L.n.P.Q.T.T.T.T.Y.~.T.T.U.Y.L.U.q.i C.& ^ m. X=.  >.R R R R R R R R R R R R R t ",
"t R R R R R R R R R R R R R R R R R R R ;.  C.5 q I.T.T.T.T.T.T.Y.E.~.E.T.T.T.K.o 1.4.    O e v   l R R R R R R R R R R R R R t ",
"t R R R R R R R R R R R R R R R R R R R M   m l ` o b.Q.T.T.T.W.T.T.Y.E.~.Y.n.* Z.; h 6 >.M O     u R R R R R R R R R R R R R t ",
"t R R R R R R R R R R R R R R R R R R R u   X D.1Xu h * D S.T.Q.E.E.2Xx.] $   _ 8X!   X.E R R ( $.E R R R R R R R R R R R R R t ",
"t R R R R R R R R R R R R R R R R R R R <.  c 0X1Xm 7X& q X & 3 q % . * & N p.! wXZ.O ,.R R R R R R R R R R R R R R R R R R R t ",
"t R R R R R R R R R R R R R R R R R R R &.  D.8Xl.! c.} wX& M.XX_.|.; wX7Xd X.v 8XwX!   %.R R R R R R R R R R R R R R R R R R t ",
"t R R R R R R R R R R R R R R R R R R E u   eX8XX.9.5 2XqX. _.XXoXXX+.'.1XX l.0 wX7XN.  ;.R R R R R R R R R R R R R R R R R R t ",
"t R R R R R R R R R R R R R R R R R R -.X 5 eXqX_ g.D.A '.& XXXXoXXXf.5.6 k.3X0 8X8X7X  Y R R R R R R R R R R R R R R R R R R t ",
"t R R R R R R R R R R R R R R R R R R {   5XeX8Xh N.8XZ.v M.oXOXOXoXOX+ Z.0X4X0 7X8XeX@ , / R R R R R R R R R R R R R R R R R t ",
"t R R R R R R R R R R R R R R R R R R _   _ 1.Z.@ 1X8X'.  Z Z Z W W Z . 1.9X7Xk N.g.` @ @ E R R R R R R R R R R R R R R R R R t ",
"t R R R R R R R R R R R R R R R R R R >.    '     3X8X0 q S B , c.o S B # 8X7XN   $ g.  7 R R R R R R R R R R R R R R R R R R t ",
"t R R R R R R R R R R R R R R R R R R ;.  F P.U.  6XN.q L K S & !.o K P B & 7X5.A.~.J.  5 R R R R R R R R R R R R R R R R R R t ",
"t R R R R R R R R R R R R R R R R R R &.    q.P.  p.  G L J S q !.* P J L 8 } 5.h.W.k   2 R R R R R R R R R R R R R R R R R R t ",
"t R R R R R R R R R R R R R R R R R R R ;.    o   X X H J J B   X   K K J G X     o   z $.R R R R R R R R R R R R R R R R R R t ",
"t R R R R R R R R R R R R R R R R R R R R $.u O       G L L w   & . B L L B       @ z E R R R R R R R R R R R R R R R R R R R t ",
"t R R R R R R R R R R R R R R R R R R R R R R E T T   - w 8 =   D   8 8 8 # @ x [ R R R R R R R R R R R R R R R R R R R R R R t ",
"t R R R R R R R R R R R R R R R R R R R R R R R R E   Y E E N   0 O ! / (   z R R R R R R R R R R R R R R R R R R R R R R R R t ",
"t R R R R R R R R R R R R R R R R R R R R R R R R %.  2 Y U 2       y U Y   5 | R R R R R R R R R R R R R R R R R R R R R R R t ",
"t R R R R R R R R R R R R R R R R R R R R R R R R |   2 2 5 *       2 2 7 @ @ $.R R R R R R R R R R R R R R R R R R R R R R R t ",
"t R R R R R R R R R R R R R R R R R R R R R R R R ) @   5 h @    .  & g 2   z E R R R R R R R R R R R R R R R R R R R R R R R t ",
"t R R R R R R R R R R R R R R R R R R R R R R R R R  .X       f R 2       2 ( R R R R R R R R R R R R R R R R R R R R R R R R t ",
"t R R R R R R R R R R R R R R R R R R R R R R R R R R R &.  ! E R E m 5 &.R R R R R R R R R R R R R R R R R R R R R R R R R R t ",
"t t t R R R R R R R R R R R R R R R R R R R R R R R R R R R R R R R R R R R R R R R R R R R R R R R R R R R R R R R R R R t t t ",
"t t t R R R R R R R R R R R R R R R R R R R R R R R R R R R R R R R R R R R R R R R R R R R R R R R R R R R R R R R R R R t t t ",
"t t t t t t t t t t t t t t t t t t t t t t t t t t t t t t t t t t t t t t t t t t t t t t t t t t t t t t t t t t t t t t t t "
};
