/* XPM */
static char * RickD_xpm[] = {
"64 64 281 2",
"  	c #1A1C2C",
". 	c #333C57",
"+ 	c #323B56",
"@ 	c #313647",
"# 	c #050506",
"$ 	c #1E212F",
"% 	c #313953",
"& 	c #282A37",
"* 	c #000000",
"= 	c #131722",
"- 	c #30374F",
"; 	c #2F3242",
"> 	c #4C5F66",
", 	c #040404",
"' 	c #111318",
") 	c #2C344A",
"! 	c #2C2F3A",
"~ 	c #070708",
"{ 	c #9ABFCF",
"] 	c #84A4B1",
"^ 	c #20292C",
"/ 	c #090A0F",
"( 	c #262D41",
"_ 	c #161A29",
": 	c #A4CDDD",
"< 	c #B0DAEC",
"[ 	c #8FB1C0",
"} 	c #131114",
"| 	c #08080A",
"1 	c #2C3247",
"2 	c #303852",
"3 	c #313A54",
"4 	c #323B55",
"5 	c #2E2F30",
"6 	c #0A0B10",
"7 	c #2C334A",
"8 	c #1D2232",
"9 	c #191B1C",
"0 	c #1C1E27",
"a 	c #171C2B",
"b 	c #1B202F",
"c 	c #2C3040",
"d 	c #2D344A",
"e 	c #343C55",
"f 	c #151A28",
"g 	c #314643",
"h 	c #090C15",
"i 	c #303851",
"j 	c #010102",
"k 	c #394449",
"l 	c #050505",
"m 	c #0B0C12",
"n 	c #202434",
"o 	c #31374D",
"p 	c #323A54",
"q 	c #242227",
"r 	c #191D29",
"s 	c #202639",
"t 	c #000101",
"u 	c #6E8894",
"v 	c #425259",
"w 	c #181B25",
"x 	c #2A3144",
"y 	c #2F3751",
"z 	c #576D75",
"A 	c #637B85",
"B 	c #252B3F",
"C 	c #202638",
"D 	c #7996A2",
"E 	c #090B10",
"F 	c #252A3B",
"G 	c #2E364F",
"H 	c #06070B",
"I 	c #303850",
"J 	c #0B0D14",
"K 	c #101217",
"L 	c #292F41",
"M 	c #2E3345",
"N 	c #242A3D",
"O 	c #262C41",
"P 	c #1F1C20",
"Q 	c #0C0E15",
"R 	c #151925",
"S 	c #333C56",
"T 	c #131723",
"U 	c #0D0E0E",
"V 	c #0C0C0D",
"W 	c #070809",
"X 	c #2D354E",
"Y 	c #2B3249",
"Z 	c #252B3E",
"` 	c #333B56",
" .	c #1A1F2F",
"..	c #121520",
"+.	c #2E364E",
"@.	c #03050A",
"#.	c #6E645B",
"$.	c #B3A394",
"%.	c #C1AF9F",
"&.	c #978A7D",
"*.	c #373737",
"=.	c #202431",
"-.	c #313A53",
";.	c #22283A",
">.	c #DCC8B6",
",.	c #CEBCAB",
"'.	c #151825",
").	c #141823",
"!.	c #8A7D72",
"~.	c #141824",
"{.	c #283045",
"].	c #524B46",
"^.	c #1D2230",
"/.	c #282E43",
"(.	c #212533",
"_.	c #0B0E16",
":.	c #05070E",
"<.	c #2B373A",
"[.	c #232023",
"}.	c #050608",
"|.	c #2D354C",
"1.	c #2B3248",
"2.	c #1C2130",
"3.	c #08090D",
"4.	c #5E5750",
"5.	c #202536",
"6.	c #23293B",
"7.	c #0E1018",
"8.	c #3D3C3B",
"9.	c #7C7166",
"0.	c #A59689",
"a.	c #0A0C13",
"b.	c #151A27",
"c.	c #292829",
"d.	c #38322C",
"e.	c #10121B",
"f.	c #323A55",
"g.	c #030409",
"h.	c #2A3147",
"i.	c #111520",
"j.	c #444244",
"k.	c #272E42",
"l.	c #222739",
"m.	c #696D6D",
"n.	c #8F8F8F",
"o.	c #4E4D4F",
"p.	c #3D3D3E",
"q.	c #0C0F18",
"r.	c #272D41",
"s.	c #171619",
"t.	c #DDDEDF",
"u.	c #FFFFFF",
"v.	c #EFF9F8",
"w.	c #F2F1EE",
"x.	c #293047",
"y.	c #2A3249",
"z.	c #D0D3D3",
"A.	c #272D3E",
"B.	c #2F3750",
"C.	c #1C1D1D",
"D.	c #E1E8E8",
"E.	c #999D9D",
"F.	c #252525",
"G.	c #1B2132",
"H.	c #121621",
"I.	c #808080",
"J.	c #0D0D0E",
"K.	c #252B3B",
"L.	c #242B3F",
"M.	c #787D7C",
"N.	c #252C40",
"O.	c #010204",
"P.	c #C2CACA",
"Q.	c #707070",
"R.	c #13151D",
"S.	c #2C3349",
"T.	c #293044",
"U.	c #1B1815",
"V.	c #1D1F2C",
"W.	c #1B2030",
"X.	c #10141E",
"Y.	c #151821",
"Z.	c #2C344C",
"`.	c #060607",
" +	c #1B1D25",
".+	c #0D0E0F",
"++	c #14171F",
"@+	c #151928",
"#+	c #141826",
"$+	c #15141A",
"%+	c #2B2723",
"&+	c #1A1F2C",
"*+	c #2E354D",
"=+	c #272E43",
"-+	c #323649",
";+	c #0C0D14",
">+	c #333B54",
",+	c #23293C",
"'+	c #242B3E",
")+	c #1D1E28",
"!+	c #171C2A",
"~+	c #313850",
"{+	c #09090D",
"]+	c #1D1D1D",
"^+	c #878B8B",
"/+	c #B6B5B2",
"(+	c #48484A",
"_+	c #10131D",
":+	c #293148",
"<+	c #090A0E",
"[+	c #1A1C27",
"}+	c #232A3D",
"|+	c #2F354C",
"1+	c #1F2126",
"2+	c #3D3D3F",
"3+	c #1E2130",
"4+	c #303952",
"5+	c #303953",
"6+	c #212432",
"7+	c #1D2130",
"8+	c #2B3145",
"9+	c #303750",
"0+	c #181919",
"a+	c #474D5F",
"b+	c #55575C",
"c+	c #A6ACAC",
"d+	c #656767",
"e+	c #15151B",
"f+	c #242838",
"g+	c #2F364C",
"h+	c #0D111C",
"i+	c #5A5A5A",
"j+	c #D9E0E1",
"k+	c #201E23",
"l+	c #353C53",
"m+	c #323A53",
"n+	c #111217",
"o+	c #E7EEED",
"p+	c #B6BCBB",
"q+	c #9DE1D7",
"r+	c #3C4258",
"s+	c #30374E",
"t+	c #0D0C0B",
"u+	c #171618",
"v+	c #323A51",
"w+	c #3C3F4E",
"x+	c #89C5BC",
"y+	c #2B2F3D",
"z+	c #313A52",
"A+	c #5C4928",
"B+	c #524023",
"C+	c #141927",
"D+	c #1F2639",
"E+	c #333B55",
"F+	c #5C5D5D",
"G+	c #6E5730",
"H+	c #2D344B",
"I+	c #3A3E51",
"J+	c #19181D",
"K+	c #252C41",
"L+	c #181E2E",
"M+	c #2D354D",
"N+	c #0A0D17",
"O+	c #0F121C",
"P+	c #222839",
"Q+	c #2F3549",
"R+	c #1E2232",
"S+	c #292F43",
"T+	c #353A4B",
"U+	c #0F121B",
"V+	c #2B3349",
"W+	c #2E3344",
"X+	c #1C202E",
"Y+	c #2E354C",
"Z+	c #1B1E23",
"`+	c #111419",
" @	c #1B1E22",
".@	c #1A1E2D",
"+@	c #1B1C24",
"@@	c #06070A",
"#@	c #1A1C2B",
"                                                                                                                                ",
"      . . . . . . . . . . . . . . . . . . . . . . . . . . . . + . . . . . . . . . . . . . . . . . . . . . . . . . . . . .       ",
"      . . . . . . . . . . . . . . . . . . . . . . . . . . . @ # $ % . . . . . . . . . . . . . . . . . . . . . . . . . . .       ",
"  . . . . . . . . . . . . . . . . . . . . . . . . . . . . . & * * = - . . . . . . . . . . . . . . . . . . . . . . . . . . . .   ",
"  . . . . . . . . . . . . . . . . . . . . . . . . . . . . . ; * > , ' ) . . . . . . . . . . . . . . . . . . . . . . . . . . .   ",
"  . . . . . . . . . . . . . . . . . . . . . . . . . . . . . ! ~ { ] ^ / ( . . . . . . . . . . . . . . . . . . . . . . . . . .   ",
"  . . . . . . . . . . . . . . . . . . . . . . . . . . . . . _ ^ : < [ } | 1 . . . . . . . . . . . . . . . . . . . . . . . . .   ",
"  . . . . . . . . . . . + 2 3 4 . . . . . . . . . . . . . . _ 5 : < < ] ^ 6 7 . . . . . . . . . . . . . . . . . . . . . . . .   ",
"  . . . . . . . . . . . 8 , 9 0 a b c d e . . . . . . . . . f g : < < < [ ^ h i . . . . . . . . . . . . . . . . . . . . . . .   ",
"  . . . . . . . . . . + j * g > k ^ , l m n o + . . . . . p q > < < < < < ] ~ r 4 . . . . . . . . . . . . . . . . . . . . . .   ",
"  . . . . . . . . . . . s t > : : : [ u v , * w x p . . . y ~ z < < < < < < A * B . . . . . . . . . . . . . . . . . . . . . .   ",
"  . . . . . . . . . . . . C * D < < < < < { A ^ * E F i . G * D < < < < < < : k H I . . . . . . . . . . . . . . . . . . . . .   ",
"  . . . . . . . . . . . . % J ^ : < < < < < < : A ^ * K L M * [ < < < < < < < ] * N . . . . . . . . . . . . . . . . . . . . .   ",
"  . . . . . . . . . . . . . O * u < < < < < < < < { u P * Q , [ < < < < < < < : ^ R S . . . . . . . . . . . . . . . . . . . .   ",
"  . . . . . . . . . . . . . 4 T U { < < < < < < < < < : A V U : < < < < < < < < A W X . . . . . . . . . . . . . . . . . . . .   ",
"  . . . . . . . . . . . . . . Y * z < < < < < < < < < < < D ^ < < < < < < < < < [ , Z . . . . . . . . . . . . . . . . . . . .   ",
"  . . . . . . . . . . . . . . `  .U [ < < < < < < < < < < < : < < < < : D v v z z ~ ..+ . . . . . . . . . . . . . . . . . . .   ",
"  . . . . . . . . . . . . . . . +.@.k : < < < < < < < < < < < < < < : v #.$.%.$.&.*.* =.-.. . . . . . . . . . . . . . . . . .   ",
"  . . . . . . . . . . . . . . . . ;.* u < < < < < < < < < < < < < : v &.>.>.>.>.>.,.#.* '.% . . . . . . . . . . . . . . . . .   ",
"  . . . . . . . . . . . . . . . . p ).^ [ < < < < < < < < < < < < A #.>.>.>.>.>.>.>.>.!.} ~.% . . . . . . . . . . . . . . . .   ",
"  . . . . . . . . . . . . . . . . . {.* v : < < < < < < < < < < D ].,.>.>.>.>.>.>.>.>.>.&.* ^.. . . . . . . . . . . . . . . .   ",
"  . . . . . . . . . . . . . 2 /.(._.:.* * ] < < < < < < < < < { <.%.>.>.>.>.>.>.>.>.>.&.!.[.}.|.. . . . . . . . . . . . . . .   ",
"  . . . . . . . . . . ` 1.2.3.* l k z u u [ < < < < < < < < < z !.>.>.>.>.>.>.>.>.>.>.$.&.4.~ 5.. . . . . . . . . . . . . . .   ",
"  . . . . . . . . 3 6.7., } > ] : < < < < < < < < < < < < < { 8.,.>.>.>.>.,.#.].9.0.,.,.>.>.].a.N 2 . . . . . . . . . . . . .   ",
"  . . . . . . . 3 b.* 5 u { < < < < < < < < < < < < < < < < ] #.>.>.>.>.>.!.> [ D z c.].#.9.d.* * e.f.. . . . . . . . . . . .   ",
"  . . . . . . . y g., u : < < < < < < < < < < < < < < < < < A 0.>.>.>.>.>.&.v [ : < : [ [ ] [ [ u * /.. . . . . . . . . . . .   ",
"  . . . . . . . . h.i.* > { < < < < < < < < < < < < < < < < z $.>.>.>.>.>.>.0.j.<.> u [ { { { < D * k.. . . . . . . . . . . .   ",
"  . . . . . . . . . f.l.j ^ ] < < < < < < < < < < < < < < : v %.>.>.>.>.>.>.>.>.9.m.n.m.o.j.p.U , q.% . . . . . . . . . . . .   ",
"  . . . . . . . . . . . r.g.s.D < < < < < < < < < < < < < : <.%.>.>.>.>.>.>.>.,.d.t.u.v.w.w.w.n.* x.. . . . . . . . . . . . .   ",
"  . . . . . . . . . . . . y.a.s.u < < < < < < < < < < < < : ^ >.>.>.>.>.>.>.>.%.p.u.u.u.u.u.v.z.~ A.. . . . . . . . . . . . .   ",
"  . . . . . . . . . . . . . B.~.* v [ : < < < < < < < < < : C.>.>.>.>.>.>.>.>.%.o.u.u.u.u.D.8.E.F.G.. . . . . . . . . . . . .   ",
"  . . . . . . . . . . . . . . % H.* s.[ < < < < < < < < : ] } %.>.>.>.>.>.>.>.,.c.w.u.u.u.w.I.n.J.K.. . . . . . . . . . . . .   ",
"  . . . . . . . . . . . . . . L.* <.[ < < < < < < < < { <.#.9.j.,.>.>.>.>.>.>.>.9.E.u.u.u.u.v.M.* N.. . . . . . . . . . . . .   ",
"  . . . . . . . . . . . . . L.O.k { < < < < < < < < < A &.>.>.>.>.>.>.>.>.>.>.>.,.].n.D.t.P.Q.4.d.R.f.. . . . . . . . . . . .   ",
"  . . . . . . . . . . . . S.# k { < < < < < < < < < < z 0.>.>.>.>.>.>.>.>.>.>.>.>.,.!.d.8.9.0.,.&.* T.. . . . . . . . . . . .   ",
"  . . . . . . . . . . . G h ^ { < < < < < < < < < < < D #.>.>.>.>.>.>.>.>.>.>.&.!.&.%.>.>.>.%.0.%.U.V.. . . . . . . . . . . .   ",
"  . . . . . . . . . . 4 R V ] < < < < < < < < < < < < : v !.,.>.>.>.>.>.>.>.>.%.&.!.$.>.>.>.0.* d.U.T . . . . . . . . . . . .   ",
"  . . . . . . . . . 4 W.* u < : : < < < : < < < < < < < : z [.&.>.>.>.>.>.>.>.>.>.>.>.>.>.>.&.* X.Y.S.. . . . . . . . . . . .   ",
"  . . . . . . . . . Z.* U > > g v z z v > : < < < < < < < ] 9.,.>.>.>.>.>.>.>.>.>.>.>.>.>.>.4.`.2 4 . . . . . . . . . . . . .   ",
"  . . . . . . . . . 2  +* .+++@+#+$+* U u < < < < < < < < ] #.>.>.>.>.>.>.%.8.,.,.%.0.&.&.&.%+&+S . . . . . . . . . . . . . .   ",
"  . . . . . . . . . . 3 G y p . . *+l > : < < < < < < < < { d.>.>.>.>.>.>.0.4.$.d.*.#.&.&.8.* =+. . . . . . . . . . . . . . .   ",
"  . . . . . . . . . . . . . . . . -+* ] < < < < < < < < < : v $.>.>.>.>.>.,.9.,.,.>.>.>.,.8.;+>+. . . . . . . . . . . . . . .   ",
"  . . . . . . . . . . . . . . . . ,+* [ < < < < { z { < < < ] #.>.>.>.>.>.>.>.>.>.>.>.>.!.* '+. . . . . . . . . . . . . . . .   ",
"  . . . . . . . . . . . . . . . . )+s.: < { D z U * u < < [ z * !.,.>.>.>.>.>.>.>.>.,.9.* !+4 . . . . . . . . . . . . . . . .   ",
"  . . . . . . . . . . . . . . . ~+{+k D v } * * , * A { > ]+^+/+(+j.$.>.>.>.>.>.>.$.].* _+% . . . . . . . . . . . . . . . . .   ",
"  . . . . . . . . . . . . . . . :+* , * <+[+}+|+x.* [.1+2+M.v.v.^+* j.j.#.&.0.!.j.U W 3+4+. . . . . . . . . . . . . . . . . .   ",
"  . . . . . . . . . . . . . . . 5+6+7+8+9+. . . X @.0+a+b+c+v.v.^+d+t.z.I.v v * e+f+g+. . . . . . . . . . . . . . . . . . . .   ",
"  . . . . . . . . . . . . . . . . . . . . . . . . h+i+j+o.z.v.v.E.^+v.D.d+] A k+l+. . . . . . . . . . . . . . . . . . . . . .   ",
"  . . . . . . . . . . . . . . . . . . . . . . . m+n+i+D.} o+v.v.E.} p+p+<.q+A c.r+. . . . . . . . . . . . . . . . . . . . . .   ",
"  . . . . . . . . . . . . . . . . . . . . . . . s+t+n.P.i+v.v.v.E.Q.^+j.D q+A u+v+. . . . . . . . . . . . . . . . . . . . . .   ",
"  . . . . . . . . . . . . . . . . . . . . . . . w+* p+p+I.t.v.v.c+n.n.> x+x+A * Z.. . . . . . . . . . . . . . . . . . . . . .   ",
"  . . . . . . . . . . . . . . . . . . . . . . . y+~ z.z.l 8.5 i+*.c.U.U.U U ~ e+z+. . . . . . . . . . . . . . . . . . . . . .   ",
"  . . . . . . . . . . . . . . . . . . . . . . + 0 p.o+D.t+,.,.$.#.U.A+B+* C+D+Y . . . . . . . . . . . . . . . . . . . . . . .   ",
"  . . . . . . . . . . . . . . . . . . . . . . E+* M.v.o+F+0.>.$.].%+G+%+* H+. . . . . . . . . . . . . . . . . . . . . . . . .   ",
"  . . . . . . . . . . . . . . . . . . . . . . I+* n.z.p+o.8.0.#.%+A+G+l J+3 . . . . . . . . . . . . . . . . . . . . . . . . .   ",
"  . . . . . . . . . . . . . . . . . . . . . . K+* U * * , , * %+G+G+A+* L+. . . . . . . . . . . . . . . . . . . . . . . . . .   ",
"  . . . . . . . . . . . . . . . . . . . . . . M+N+O+P+Q+2 Y * d.A+A+d.* R+. . . . . . . . . . . . . . . . . . . . . . . . . .   ",
"  . . . . . . . . . . . . . . . . . . . . . . . . . . . . G * [.d+d+*.* S+. . . . . . . . . . . . . . . . . . . . . . . . . .   ",
"  . . . . . . . . . . . . . . . . . . . . . . . . . . . . T+* (+z.t.I.* U+V+. . . . . . . . . . . . . . . . . . . . . . . . .   ",
"  . . . . . . . . . . . . . . . . . . . . . . . . . . . . W+* * * * * U , @.V+. . . . . . . . . . . . . . . . . . . . . . . .   ",
"  . . . . . . . . . . . . . . . . . . . . . . . . . . . . W+* F.5 5 5 5 [.* X+. . . . . . . . . . . . . . . . . . . . . . . .   ",
"      . . . . . . . . . . . . . . . . . . . . . . . . . . Y+, ~ t+~ ~ U } , Z++ . . . . . . . . . . . . . . . . . . . . .       ",
"      . . . . . . . . . . . . . . . . . . . . . . . . . . + B `+ @.@+@@@O.3.r.. . . . . . . . . . . . . . . . . . . . . .       ",
"                                                                      #@#@#@                                                    "};
