/* XPM */
static char * RickA_xpm[] = {
"64 64 704 2",
"  	c #1A1C2C",
". 	c #333C57",
"+ 	c #323B56",
"@ 	c #313953",
"# 	c #1D212E",
"$ 	c #030304",
"% 	c #303546",
"& 	c #2F374F",
"* 	c #131622",
"= 	c #000000",
"- 	c #262935",
"; 	c #2C334A",
"> 	c #101217",
", 	c #030405",
"' 	c #475960",
") 	c #313543",
"! 	c #262D41",
"~ 	c #0A0B10",
"{ 	c #1C2428",
"] 	c #85A5B3",
"^ 	c #9CC1D1",
"/ 	c #050809",
"( 	c #2B2F3A",
"_ 	c #2B3246",
": 	c #070708",
"< 	c #0F1517",
"[ 	c #8BACBA",
"} 	c #B0DAEC",
"| 	c #A3CADB",
"1 	c #232D31",
"2 	c #161A29",
"3 	c #2B3349",
"4 	c #0A0B0F",
"5 	c #232E32",
"6 	c #84A5B2",
"7 	c #263035",
"8 	c #323B55",
"9 	c #313A54",
"0 	c #303852",
"a 	c #303851",
"b 	c #0A0D16",
"c 	c #1F282C",
"d 	c #92B6C5",
"e 	c #AFD9EB",
"f 	c #A6CEDF",
"g 	c #324046",
"h 	c #161A28",
"i 	c #343C55",
"j 	c #2E354B",
"k 	c #2D3141",
"l 	c #1B202F",
"m 	c #171C2B",
"n 	c #1B1D26",
"o 	c #1A1B1D",
"p 	c #040404",
"q 	c #1C2132",
"r 	c #181C28",
"s 	c #06090B",
"t 	c #84A4B2",
"u 	c #ADD7E8",
"v 	c #4C5F68",
"w 	c #222326",
"x 	c #323A54",
"y 	c #30374E",
"z 	c #202433",
"A 	c #0C0C12",
"B 	c #050505",
"C 	c #020303",
"D 	c #1C2528",
"E 	c #354349",
"F 	c #475A62",
"G 	c #010102",
"H 	c #252B3F",
"I 	c #010101",
"J 	c #657E89",
"K 	c #AED7E9",
"L 	c #5C737D",
"M 	c #060606",
"N 	c #2F3750",
"O 	c #2A3144",
"P 	c #181B26",
"Q 	c #020202",
"R 	c #020304",
"S 	c #405158",
"T 	c #718D99",
"U 	c #92B5C5",
"V 	c #9FC6D6",
"W 	c #A7CFE0",
"X 	c #A9D2E3",
"Y 	c #4D6069",
"Z 	c #202639",
"` 	c #05060A",
" .	c #A5CDDE",
"..	c #7896A2",
"+.	c #2E364F",
"@.	c #2F3851",
"#.	c #252A3B",
"$.	c #0A0C11",
"%.	c #242E33",
"&.	c #617983",
"*.	c #95B8C8",
"=.	c #ADD7E9",
"-.	c #74909C",
";.	c #1F2537",
">.	c #252A3D",
",.	c #809FAC",
"'.	c #8BACBB",
").	c #2E3446",
"!.	c #292E40",
"~.	c #0F1115",
"{.	c #20292E",
"].	c #637C86",
"^.	c #A1C8D8",
"/.	c #A0C6D7",
"(.	c #232D32",
"_.	c #090C14",
":.	c #303953",
"<.	c #333B56",
"[.	c #171A26",
"}.	c #202A2E",
"|.	c #A4CBDC",
"1.	c #92B5C4",
"2.	c #0C0D14",
"3.	c #192125",
"4.	c #6A848F",
"5.	c #9EC4D5",
"6.	c #6F8A96",
"7.	c #252C40",
"8.	c #2D354E",
"9.	c #060707",
"0.	c #5E7680",
"a.	c #AFD9EA",
"b.	c #A7CEDF",
"c.	c #090E10",
"d.	c #070B0D",
"e.	c #637B86",
"f.	c #090E0F",
"g.	c #121623",
"h.	c #252B3D",
"i.	c #8AACBA",
"j.	c #AED8EA",
"k.	c #AED8E9",
"l.	c #222C31",
"m.	c #7A97A4",
"n.	c #597079",
"o.	c #2A3249",
"p.	c #131620",
"q.	c #040607",
"r.	c #536871",
"s.	c #3D4E55",
"t.	c #3E4F56",
"u.	c #A3C9DA",
"v.	c #8CAEBC",
"w.	c #0B1012",
"x.	c #191E2E",
"y.	c #313A53",
"z.	c #202331",
"A.	c #3F3832",
"B.	c #9A8C7F",
"C.	c #AD9D8F",
"D.	c #BAA99A",
"E.	c #B2A293",
"F.	c #6A6057",
"G.	c #415057",
"H.	c #AAD2E3",
"I.	c #3B4A51",
"J.	c #05070C",
"K.	c #151924",
"L.	c #756A60",
"M.	c #CEBCAB",
"N.	c #DCC8B6",
"O.	c #D6C2B1",
"P.	c #918377",
"Q.	c #45575E",
"R.	c #AFD8EA",
"S.	c #6F8B96",
"T.	c #22283A",
"U.	c #131723",
"V.	c #14110F",
"W.	c #85796D",
"X.	c #D7C4B2",
"Y.	c #D9C5B4",
"Z.	c #72675E",
"`.	c #617A84",
" +	c #ADD6E8",
".+	c #141823",
"++	c #1C2131",
"@+	c #95877B",
"#+	c #D9C6B4",
"$+	c #CEBBAA",
"%+	c #534B44",
"&+	c #7C9BA8",
"*+	c #A8D0E1",
"=+	c #415259",
"-+	c #293045",
";+	c #2D354C",
">+	c #040507",
",+	c #26231F",
"'+	c #877B6F",
")+	c #928478",
"!+	c #DBC7B5",
"~+	c #BFAE9E",
"{+	c #303638",
"]+	c #9BC0D0",
"^+	c #7F9EAC",
"/+	c #010202",
"(+	c #06080F",
"_+	c #0A0C15",
":+	c #1F2331",
"<+	c #272E42",
"[+	c #1F2535",
"}+	c #090806",
"|+	c #675D54",
"1+	c #938579",
"2+	c #B5A495",
"3+	c #8B7E72",
"4+	c #576D76",
"5+	c #90B3C2",
"6+	c #6D8994",
"7+	c #6C8793",
"8+	c #536972",
"9+	c #36444A",
"0+	c #08090D",
"a+	c #1B2030",
"b+	c #2C3348",
"c+	c #303952",
"d+	c #242A3D",
"e+	c #090C13",
"f+	c #564E46",
"g+	c #D7C3B1",
"h+	c #D5C1B0",
"i+	c #C9B7A6",
"j+	c #A29386",
"k+	c #766B61",
"l+	c #554D46",
"m+	c #6C6259",
"n+	c #CCBAA9",
"o+	c #CDBAAA",
"p+	c #3E3A37",
"q+	c #9CC1D2",
"r+	c #A2C9DA",
"s+	c #82A1AF",
"t+	c #4F636B",
"u+	c #0F1518",
"v+	c #030303",
"w+	c #0D0F17",
"x+	c #23293B",
"y+	c #323A55",
"z+	c #11131C",
"A+	c #3C3630",
"B+	c #776C61",
"C+	c #73685E",
"D+	c #282827",
"E+	c #546A73",
"F+	c #7D9BA8",
"G+	c #89ABB9",
"H+	c #50656D",
"I+	c #8A7D71",
"J+	c #DBC8B6",
"K+	c #74695F",
"L+	c #7E9DAA",
"M+	c #99BECE",
"N+	c #728E9A",
"O+	c #141927",
"P+	c #272E43",
"Q+	c #6B8691",
"R+	c #8EB0BF",
"S+	c #7F9EAB",
"T+	c #8BADBC",
"U+	c #93B6C5",
"V+	c #3C4D54",
"W+	c #9D8F82",
"X+	c #AB9B8D",
"Y+	c #5D757F",
"Z+	c #030409",
"`+	c #2F3751",
" @	c #272D42",
".@	c #76929F",
"+@	c #ABD4E6",
"@@	c #9FC5D5",
"#@	c #9EC4D4",
"$@	c #8FB1C0",
"%@	c #708C98",
"&@	c #4F636C",
"*@	c #2C3336",
"=@	c #4C453E",
"-@	c #A49588",
";@	c #D7C3B2",
">@	c #B3A294",
",@	c #59707A",
"'@	c #4A5D65",
")@	c #101420",
"!@	c #293047",
"~@	c #333C56",
"{@	c #0B0E17",
"]@	c #020404",
"^@	c #3E3E3F",
"/@	c #404141",
"(@	c #4E4E4E",
"_@	c #6D6D6D",
":@	c #959595",
"<@	c #6A6A6A",
"[@	c #81756A",
"}@	c #BBAA9A",
"|@	c #AAD2E4",
"1@	c #86A7B5",
"2@	c #1B2327",
"3@	c #202638",
"4@	c #8F8F8F",
"5@	c #EFEFEF",
"6@	c #F0F0F0",
"7@	c #F2F2F2",
"8@	c #F9F9F9",
"9@	c #FFFFFF",
"0@	c #D9D9D9",
"a@	c #342F2A",
"b@	c #D0BDAC",
"c@	c #C7B5A4",
"d@	c #2F3B3F",
"e@	c #7B99A6",
"f@	c #101619",
"g@	c #272D41",
"h@	c #282D3D",
"i@	c #0A0A0A",
"j@	c #D6D6D6",
"k@	c #F8F8F8",
"l@	c #FEFEFE",
"m@	c #FBFBFB",
"n@	c #3F3F40",
"o@	c #C6B4A3",
"p@	c #242A2D",
"q@	c #A5CCDD",
"r@	c #ABD4E5",
"s@	c #101719",
"t@	c #0A0B13",
"u@	c #2A3148",
"v@	c #1B2132",
"w@	c #252525",
"x@	c #979797",
"y@	c #3C3C3C",
"z@	c #E7E7E7",
"A@	c #FCFCFC",
"B@	c #505050",
"C@	c #BCAB9C",
"D@	c #1B1E1E",
"E@	c #46585F",
"F@	c #121724",
"G@	c #0E0E0E",
"H@	c #8E8E8E",
"I@	c #808080",
"J@	c #EEEEEE",
"K@	c #2B2928",
"L@	c #CDBBAA",
"M@	c #DAC7B5",
"N@	c #BDAB9C",
"O@	c #131415",
"P@	c #111719",
"Q@	c #131621",
"R@	c #262C40",
"S@	c #7C7C7C",
"T@	c #F6F6F6",
"U@	c #FAFAFA",
"V@	c #9A9A9A",
"W@	c #786D63",
"X@	c #CBB9A8",
"Y@	c #7F7368",
"Z@	c #72675D",
"`@	c #2B353A",
" #	c #98BDCD",
".#	c #2C393E",
"+#	c #242B3F",
"@#	c #13151D",
"##	c #36302B",
"$#	c #655B52",
"%#	c #6F6F6F",
"&#	c #C1C1C1",
"*#	c #DEDEDE",
"=#	c #E5E5E5",
"-#	c #909090",
";#	c #4E4740",
">#	c #DAC6B4",
",#	c #020305",
"'#	c #2A3045",
")#	c #918478",
"!#	c #D4C1AF",
"~#	c #A39486",
"{#	c #766A60",
"]#	c #403A34",
"^#	c #38322D",
"/#	c #A69789",
"(#	c #526770",
"_#	c #9EC3D4",
":#	c #39484F",
"<#	c #050506",
"[#	c #2B3248",
"}#	c #1A1E2A",
"|#	c #191613",
"1#	c #C1AFA0",
"2#	c #AC9C8E",
"3#	c #C2B1A1",
"4#	c #D8C4B3",
"5#	c #C4B2A2",
"6#	c #9D8E81",
"7#	c #84776C",
"8#	c #96887B",
"9#	c #D8C4B2",
"0#	c #6B6158",
"a#	c #7D9CA9",
"b#	c #99BECD",
"c#	c #212B2F",
"d#	c #090C15",
"e#	c #3B3530",
"f#	c #A8988A",
"g#	c #B7A697",
"h#	c #8D8074",
"i#	c #988A7D",
"j#	c #C6B4A4",
"k#	c #867A6F",
"l#	c #3D4D54",
"m#	c #82A2B0",
"n#	c #080C0E",
"o#	c #151925",
"p#	c #2D3449",
"q#	c #161821",
"r#	c #0F131D",
"s#	c #24211D",
"t#	c #536770",
"u#	c #A3CADA",
"v#	c #AAD3E4",
"w#	c #AAD3E5",
"x#	c #A9D1E2",
"y#	c #A6CDDE",
"z#	c #ACD5E7",
"A#	c #69838F",
"B#	c #1A1F30",
"C#	c #080809",
"D#	c #DAC6B5",
"E#	c #D2BFAE",
"F#	c #807469",
"G#	c #7F9DAB",
"H#	c #465960",
"I#	c #43555C",
"J#	c #3D4E54",
"K#	c #303E43",
"L#	c #4A5D66",
"M#	c #4E626B",
"N#	c #0C1113",
"O#	c #2B334B",
"P#	c #1A1F2C",
"Q#	c #2C2723",
"R#	c #A59688",
"S#	c #C2B0A0",
"T#	c #CAB8A7",
"U#	c #C9B7A7",
"V#	c #423B35",
"W#	c #C3B1A1",
"X#	c #6E635A",
"Y#	c #86A6B4",
"Z#	c #6D8894",
"`#	c #0C1114",
" $	c #131418",
".$	c #151928",
"+$	c #161720",
"@$	c #0D0D0E",
"#$	c #1B1D24",
"$$	c #282E43",
"%$	c #453E38",
"&$	c #988A7E",
"*$	c #3D3731",
"=$	c #3A342F",
"-$	c #AF9F91",
";$	c #5B524A",
">$	c #A7988A",
",$	c #D9C5B3",
"'$	c #35302B",
")$	c #9ABFCF",
"!$	c #2E354D",
"~$	c #2E3750",
"{$	c #0D0E14",
"]$	c #3F3933",
"^$	c #D1BEAD",
"/$	c #CCB9A8",
"($	c #B6A596",
"_$	c #3F4F56",
":$	c #32374A",
"<$	c #252B3E",
"[$	c #83776C",
"}$	c #D8C5B3",
"|$	c #685E55",
"1$	c #96BACA",
"2$	c #566B75",
"3$	c #99BDCD",
"4$	c #000001",
"5$	c #22283B",
"6$	c #181C2B",
"7$	c #7B6F65",
"8$	c #D3C0AE",
"9$	c #CFBCAB",
"0$	c #000101",
"a$	c #5B727C",
"b$	c #8AABBA",
"c$	c #708B97",
"d$	c #0C1013",
"e$	c #9ABFCE",
"f$	c #A9D1E3",
"g$	c #12181B",
"h$	c #323A53",
"i$	c #12151E",
"j$	c #010100",
"k$	c #B6A697",
"l$	c #B8A798",
"m$	c #48403A",
"n$	c #464949",
"o$	c #AEB6B5",
"p$	c #848A89",
"q$	c #1D2020",
"r$	c #4A5C65",
"s$	c #657F89",
"t$	c #0E1416",
"u$	c #75919D",
"v$	c #36444B",
"w$	c #0A0A0D",
"x$	c #313850",
"y$	c #1F2330",
"z$	c #080909",
"A$	c #110F0D",
"B$	c #4B433D",
"C$	c #8C7F73",
"D$	c #A09184",
"E$	c #4A443E",
"F$	c #868C8B",
"G$	c #EFF9F8",
"H$	c #EDF7F6",
"I$	c #727777",
"J$	c #3B3E3F",
"K$	c #1C232A",
"L$	c #1A2326",
"M$	c #2F364C",
"N$	c #23293D",
"O$	c #191C26",
"P$	c #0A0B0E",
"Q$	c #293147",
"R$	c #2E354C",
"S$	c #232837",
"T$	c #17181C",
"U$	c #395450",
"V$	c #818686",
"W$	c #D1D9D8",
"X$	c #D9E2E1",
"Y$	c #636767",
"Z$	c #878D8C",
"`$	c #ABB2B2",
" %	c #53565B",
".%	c #454C5F",
"+%	c #171819",
"@%	c #03050A",
"#%	c #2A3044",
"$%	c #1E2230",
"%%	c #232633",
"&%	c #353C53",
"*%	c #1F1F21",
"=%	c #577F79",
"-%	c #7CB3AB",
";%	c #606464",
">%	c #DEE7E6",
",%	c #989E9E",
"'%	c #CBD4D3",
")%	c #515554",
"!%	c #D7E0DF",
"~%	c #535756",
"{%	c #0D111C",
"]%	c #3B4257",
"^%	c #2A2A2A",
"/%	c #95D6CD",
"(%	c #293C39",
"_%	c #B3BBBA",
":%	c #B1B9B8",
"<%	c #101111",
"[%	c #989F9E",
"}%	c #E8F2F1",
"|%	c #151616",
"1%	c #DBE5E4",
"2%	c #323A51",
"3%	c #161616",
"4%	c #5A837D",
"5%	c #9DE1D7",
"6%	c #6D9D96",
"7%	c #414545",
"8%	c #818786",
"9%	c #6C7070",
"0%	c #9CA3A3",
"a%	c #EBF5F4",
"b%	c #575B5B",
"c%	c #C5CDCC",
"d%	c #8F9594",
"e%	c #090909",
"f%	c #2F364D",
"g%	c #2C344C",
"h%	c #59807A",
"i%	c #8FCDC3",
"j%	c #88C3BB",
"k%	c #466661",
"l%	c #8A9090",
"m%	c #8B9191",
"n%	c #9EA5A4",
"o%	c #EEF8F7",
"p%	c #EAF4F3",
"q%	c #D9E2E2",
"r%	c #7C8181",
"s%	c #B4BBBA",
"t%	c #B6BEBD",
"u%	c #3A3F4D",
"v%	c #313952",
"w%	c #141519",
"x%	c #040807",
"y%	c #0A1412",
"z%	c #1C180F",
"A%	c #1C1710",
"B%	c #282929",
"C%	c #353737",
"D%	c #525655",
"E%	c #2F2F2E",
"F%	c #3F3B36",
"G%	c #060605",
"H%	c #CFD8D7",
"I%	c #CDD5D5",
"J%	c #090A0A",
"K%	c #2C303E",
"L%	c #1F2639",
"M%	c #48381E",
"N%	c #5F4B29",
"O%	c #1E1609",
"P%	c #B3A394",
"Q%	c #CAB7A7",
"R%	c #110E0C",
"S%	c #E2ECEB",
"T%	c #E4EDEC",
"U%	c #3E4140",
"V%	c #1D1F27",
"W%	c #2D344B",
"X%	c #312613",
"Y%	c #6D562F",
"Z%	c #392C17",
"`%	c #B5A596",
" &	c #5B5F5F",
".&	c #787D7C",
"+&	c #16171A",
"@&	c #080502",
"#&	c #68522D",
"$&	c #5A4727",
"%&	c #342814",
"&&	c #413A34",
"*&	c #B4BCBB",
"=&	c #D1DAD9",
"-&	c #8C9291",
";&	c #383E50",
">&	c #5E4A28",
",&	c #6E5730",
"'&	c #65502C",
")&	c #2F2411",
"!&	c #0F1010",
"~&	c #252C41",
"{&	c #1D2231",
"]&	c #46371D",
"^&	c #5B4827",
"/&	c #3F3119",
"(&	c #2F3549",
"_&	c #0F121C",
":&	c #0B0E18",
"<&	c #2D354D",
"[&	c #343333",
"}&	c #686866",
"|&	c #646361",
"1&	c #20201F",
"2&	c #10121B",
"3&	c #858482",
"4&	c #E1DFDC",
"5&	c #D8D6D2",
"6&	c #484846",
"7&	c #33394A",
"8&	c #2B3249",
"9&	c #0F0F10",
"0&	c #2D3243",
"a&	c #1C202E",
"b&	c #232325",
"c&	c #2E2E30",
"d&	c #242425",
"e&	c #2C3243",
"f&	c #1C1E23",
"g&	c #131314",
"h&	c #0E0E0F",
"i&	c #09090A",
"j&	c #080808",
"k&	c #2E364C",
"l&	c #282E42",
"m&	c #09090E",
"n&	c #010204",
"o&	c #050609",
"p&	c #191A21",
"q&	c #1A1E2D",
"r&	c #1B1D22",
"s&	c #111218",
"t&	c #242B3E",
"u&	c #1A1C2B",
"                                                                                                                                ",
"      . . . . . . . . . . . . . . . . . . . . . . . . . . . . . + . . . . . . . . . . . . . . . . . . . . . . . . . . . .       ",
"      . . . . . . . . . . . . . . . . . . . . . . . . . . . @ # $ % . . . . . . . . . . . . . . . . . . . . . . . . . . .       ",
"  . . . . . . . . . . . . . . . . . . . . . . . . . . . . & * = = - . . . . . . . . . . . . . . . . . . . . . . . . . . . . .   ",
"  . . . . . . . . . . . . . . . . . . . . . . . . . . . ; > , ' = ) . . . . . . . . . . . . . . . . . . . . . . . . . . . . .   ",
"  . . . . . . . . . . . . . . . . . . . . . . . . . . ! ~ { ] ^ / ( . . . . . . . . . . . . . . . . . . . . . . . . . . . . .   ",
"  . . . . . . . . . . . . . . . . . . . . . . . . . _ : < [ } | 1 2 . . . . . . . . . . . . . . . . . . . . . . . . . . . . .   ",
"  . . . . . . . . . . . . . . . . . . . . . . . . 3 4 5 6 } } | 7 2 . . . . . . . . . . . . . . 8 9 0 + . . . . . . . . . . .   ",
"  . . . . . . . . . . . . . . . . . . . . . . . a b c d e } } f g h . . . . . . . . . i j k l m n o p q . . . . . . . . . . .   ",
"  . . . . . . . . . . . . . . . . . . . . . . 8 r s t } } } } u v w x . . . . . + y z A B C D E F g = G + . . . . . . . . . .   ",
"  . . . . . . . . . . . . . . . . . . . . . . H I J K } } } } } L M N . . . x O P Q R S T U V W X Y I Z . . . . . . . . . . .   ",
"  . . . . . . . . . . . . . . . . . . . . . N ` E  .} } } } } } ..= +.. @.#.$.I %.&.*.=.} } } } -.= ;.. . . . . . . . . . . .   ",
"  . . . . . . . . . . . . . . . . . . . . . >.= ,.} } } } } } } '.= ).!.~.= {.].^.e } } } } } /.(._.:.. . . . . . . . . . . .   ",
"  . . . . . . . . . . . . . . . . . . . . <.[.}.|.} } } } } } } 1.R 2.= 3.4.5.e } } } } } } e 6.= 7.. . . . . . . . . . . . .   ",
"  . . . . . . . . . . . . . . . . . . . . 8.9.0.a.} } } } } } } b.c.d.e./.} } } } } } } } } ^ f.g.8 . . . . . . . . . . . . .   ",
"  . . . . . . . . . . . . . . . . . . . . h.C i.j.u =.} } } } } k.l.m.u } } } } } } } } } j.n.I o.. . . . . . . . . . . . . .   ",
"  . . . . . . . . . . . . . . . . . . . + p.q.L r.s.t...u.} } } } |.e } } } } } } } } } } v.w.x.+ . . . . . . . . . . . . . .   ",
"  . . . . . . . . . . . . . . . . . . y.z.= A.B.C.D.E.F.G./.} } } } } } } } } } } } } } H.I.J.8.. . . . . . . . . . . . . . .   ",
"  . . . . . . . . . . . . . . . . . @ K.= L.M.N.N.N.N.O.P.Q.W } } } } } } } } } } } } R.S.= T.. . . . . . . . . . . . . . . .   ",
"  . . . . . . . . . . . . . . . . :.U.V.W.X.N.N.N.N.N.N.Y.Z.`. +} } } } } } } } } } } v.c .+9 . . . . . . . . . . . . . . . .   ",
"  . . . . . . . . . . . . . . . . ++= @+#+N.N.N.N.N.N.N.N.$+%+&+} } } } } } } } } } *+=+I -+. . . . . . . . . . . . . . . . .   ",
"  . . . . . . . . . . . . . . . ;+>+,+'+)+!+N.N.N.N.N.N.N.N.~+{+]+} } } } } } } } } ^+/+= (+_+:+<+0 . . . . . . . . . . . . .   ",
"  . . . . . . . . . . . . . . . [+}+|+1+2+N.N.N.N.N.N.N.N.N.N.3+4+} } } } } } } } } 5+6+7+8+9+q.= 0+a+b+<.. . . . . . . . . .   ",
"  . . . . . . . . . . . . . c+d+e+f+g+N.h+i+j+k+l+m+n+N.N.N.N.o+p+q+} } } } } } } } } } } R.=.r+s+t+u+v+w+x+9 . . . . . . . .   ",
"  . . . . . . . . . . . . y+z+G G A+B+C+l+D+E+F+G+H+I+N.N.N.N.J+K+L+} } } } } } } } } } } } } } } u M+N+7 = O+9 . . . . . . .   ",
"  . . . . . . . . . . . . P+= Q+R+G+S+T+U+W u r+i.V+W+N.N.N.N.N.X+Y+} } } } } } } } } } } } } } } } } X 4.C Z+`+. . . . . . .   ",
"  . . . . . . . . . . . .  @= .@+@@@#@]+$@%@&@*@=@-@;@N.N.N.N.N.>@,@} } } } } } } } } } } } } } } } ]+'@I )@!@~@. . . . . . .   ",
"  . . . . . . . . . . . . y.{@]@w.^@/@(@_@:@<@[@!+N.N.N.N.N.N.N.}@=+|@} } } } } } } } } } } } } R.1@2@$ 3@y+. . . . . . . . .   ",
"  . . . . . . . . . . . . . !@= 4@5@6@7@8@9@0@a@b@N.N.N.N.N.N.N.c@d@f } } } } } } } } } } } } R.e@f@Z+g@. . . . . . . . . . .   ",
"  . . . . . . . . . . . . . h@i@j@k@l@9@9@9@m@n@o@N.N.N.N.N.N.N.X.p@q@} } } } } } } } } } } r@6.s@t@u@. . . . . . . . . . . .   ",
"  . . . . . . . . . . . . . v@w@x@y@z@9@9@9@A@B@C@N.N.N.N.N.N.N.#+D@|.} } } } } } } } } *+R+E@= F@N . . . . . . . . . . . . .   ",
"  . . . . . . . . . . . . . #.G@H@I@7@9@9@9@J@K@L@N.N.N.N.N.N.M@N@O@S+| } } } } } } } } 1.P@= Q@@ . . . . . . . . . . . . . .   ",
"  . . . . . . . . . . . . . R@= S@T@9@9@9@U@V@W@#+N.N.N.N.N.N.X@=@Y@Z@`@ #} } } } } } } e v..#I +#. . . . . . . . . . . . . .   ",
"  . . . . . . . . . . . . 8 @###$#%#&#*#=#-#;#X@N.N.N.N.N.N.N.!+g+N.>#)+0.} } } } } } } } } #@I.,#+#. . . . . . . . . . . . .   ",
"  . . . . . . . . . . . . '#= )#!#~#{#]#^#'+X@N.N.N.N.N.N.N.N.N.N.N.N./#(#} } } } } } } } } } _#:#<#[#. . . . . . . . . . . .   ",
"  . . . . . . . . . . . . }#|#1#2#3#!+4#4#5#6#7#8#N.N.N.N.N.N.N.N.N.9#0#a#} } } } } } } } } } } b#c#d#+.. . . . . . . . . . .   ",
"  . . . . . . . . . . . . U.|#e#= f#N.N.N.g#h#i#j#N.N.N.N.N.N.N.N.n+k#l#f } } } } } } } } } } } e m#n#o#y+. . . . . . . . . .   ",
"  . . . . . . . . . . . . p#q#r#= @+N.N.N.N.N.N.N.N.N.N.N.N.N.N.@+s#t#u#} } } } } } } v#w#} e x#y#z#A#= B#8 . . . . . . . . .   ",
"  . . . . . . . . . . . . . 8 a C#$#N.N.N.N.N.N.N.D#N.N.N.N.N.N.E#F#G#} } } } } } } |.H#I#4+E+J#K#L#M#N#I O#. . . . . . . . .   ",
"  . . . . . . . . . . . . . . ~@P#Q#@+1+1+R#S#T#U#V#W#N.N.N.N.N.!+X#Y#} } } } } } } K Z#`#I  $O+.$+$@$= #$0 . . . . . . . . .   ",
"  . . . . . . . . . . . . . . . $$I %$8#&$m+*$=$-$;$>$N.N.N.N.N.,$'$)$} } } } } } } } |@v p !$. . x @.~$9 . . . . . . . . . .   ",
"  . . . . . . . . . . . . . . . x {$]$^$N.N.N./$^$Y@b@N.N.N.N.N.($_$X } } } } } } } } } S+= :$. . . . . . . . . . . . . . . .   ",
"  . . . . . . . . . . . . . . . . <$= [$}$N.N.N.N.N.N.N.N.N.N.O.|$L+} } } 1$2$3$R.} } } 1.4$5$. . . . . . . . . . . . . . . .   ",
"  . . . . . . . . . . . . . . . . 8 6$= 7$8$N.N.N.N.N.N.N.N.9$7#0$a$b$z#} c$= d$a$F+e$z#f$g$n . . . . . . . . . . . . . . . .   ",
"  . . . . . . . . . . . . . . . . . h$i$j$%+k$}$N.N.N.N.9#l$m$n$o$p$q$r$1$s$= p = = t$l#u$v$w$x$. . . . . . . . . . . . . . .   ",
"  . . . . . . . . . . . . . . . . . . c+y$z$A$B$C$D$6#|$E$/@= F$G$H$I$J$K$L$= !@M$N$O$P$0$, = Q$. . . . . . . . . . . . . . .   ",
"  . . . . . . . . . . . . . . . . . . . . R$S$T$= U$U$V$W$X$Y$Z$G$G$`$ %.%+%@%8.. . . & #%$%%%:.. . . . . . . . . . . . . . .   ",
"  . . . . . . . . . . . . . . . . . . . . . . &%*%=%-%;%>%H$F$,%G$G$'%)%!%~%{%. . . . . . . . . . . . . . . . . . . . . . . .   ",
"  . . . . . . . . . . . . . . . . . . . . . . ]%^%=%/%(%_%:%<%[%G$G$}%|%1%~%> h$. . . . . . . . . . . . . . . . . . . . . . .   ",
"  . . . . . . . . . . . . . . . . . . . . . . 2%3%4%5%6%7%8%9%0%G$G$a%b%c%d%e%f%. . . . . . . . . . . . . . . . . . . . . . .   ",
"  . . . . . . . . . . . . . . . . . . . . . . g%= h%i%j%k%l%m%n%o%p%q%r%s%t%= u%. . . . . . . . . . . . . . . . . . . . . . .   ",
"  . . . . . . . . . . . . . . . . . . . . . . v%w%x%y%y%z%A%B%C%D%E%F%G%H%I%J%K%. . . . . . . . . . . . . . . . . . . . . . .   ",
"  . . . . . . . . . . . . . . . . . . . . . . . o.L%O+= M%N%O%F.P%Q%i+R%S%T%U%V%+ . . . . . . . . . . . . . . . . . . . . . .   ",
"  . . . . . . . . . . . . . . . . . . . . . . . . . W%= X%Y%Z%;#`%N.2# &}%G$.&= i . . . . . . . . . . . . . . . . . . . . . .   ",
"  . . . . . . . . . . . . . . . . . . . . . . . . . 9 +&@&#&$&%&C+/#&&)%*&=&-&= ;&. . . . . . . . . . . . . . . . . . . . . .   ",
"  . . . . . . . . . . . . . . . . . . . . . . . . . . x.= >&,&'&)&= p v+= = !&= ~&. . . . . . . . . . . . . . . . . . . . . .   ",
"  . . . . . . . . . . . . . . . . . . . . . . . . . . {&= ]&^&N%/&= o.0 (&T._&:&<&. . . . . . . . . . . . . . . . . . . . . .   ",
"  . . . . . . . . . . . . . . . . . . . . . . . . . . $$= [&}&|&1&= +.. . . . . . . . . . . . . . . . . . . . . . . . . . . .   ",
"  . . . . . . . . . . . . . . . . . . . . . . . . . 3 2&= 3&4&5&6&= 7&. . . . . . . . . . . . . . . . . . . . . . . . . . . .   ",
"  . . . . . . . . . . . . . . . . . . . . . . . . 8&J.v+9&= = = Q = 0&. . . . . . . . . . . . . . . . . . . . . . . . . . . .   ",
"  . . . . . . . . . . . . . . . . . . . . . . . . a&G b&c&c&c&c&d&= e&. . . . . . . . . . . . . . . . . . . . . . . . . . . .   ",
"      . . . . . . . . . . . . . . . . . . . . . + f&v+g&h&i&e%i@j&Q k&. . . . . . . . . . . . . . . . . . . . . . . . . .       ",
"      . . . . . . . . . . . . . . . . . . . . . . l&m&n&o&p&q&r&s&t&+ . . . . . . . . . . . . . . . . . . . . . . . . . .       ",
"                                                    u&u&u&                                                                      "};
