/* XPM */
static char * WALL_xpm[] = {
"64 64 103 2",
"  	c #3C3C3C",
". 	c #3F3F3F",
"+ 	c #434343",
"@ 	c #4B4B4B",
"# 	c #4F4F4F",
"$ 	c #4E4E4E",
"% 	c #4C4C4C",
"& 	c #404040",
"* 	c #4A4A4A",
"= 	c #303030",
"- 	c #393939",
"; 	c #3E3E3E",
"> 	c #4D4D4D",
", 	c #383838",
"' 	c #2F2F2F",
") 	c #414141",
"! 	c #2E2E2E",
"~ 	c #3D3D3D",
"{ 	c #474747",
"] 	c #313131",
"^ 	c #2A2A2A",
"/ 	c #3B3B3B",
"( 	c #444444",
"_ 	c #515151",
": 	c #353535",
"< 	c #454545",
"[ 	c #3A3A3A",
"} 	c #505050",
"| 	c #525252",
"1 	c #424242",
"2 	c #494949",
"3 	c #484848",
"4 	c #373737",
"5 	c #2D2D2D",
"6 	c #323232",
"7 	c #2B2B2B",
"8 	c #7C7C7C",
"9 	c #C9C9C9",
"0 	c #6F6F6F",
"a 	c #D4D4D4",
"b 	c #CECECE",
"c 	c #A0A0A0",
"d 	c #FDFDFD",
"e 	c #878787",
"f 	c #363636",
"g 	c #E8E8E8",
"h 	c #E0E0E0",
"i 	c #A3A3A3",
"j 	c #E9E9E9",
"k 	c #A1A1A1",
"l 	c #FCFCFC",
"m 	c #464646",
"n 	c #909090",
"o 	c #ECECEC",
"p 	c #7E7E7E",
"q 	c #E7E7E7",
"r 	c #DFDFDF",
"s 	c #565656",
"t 	c #B2B2B2",
"u 	c #ACACAC",
"v 	c #343434",
"w 	c #2C2C2C",
"x 	c #989898",
"y 	c #7F7F7F",
"z 	c #9A9A9A",
"A 	c #292929",
"B 	c #F6F6F6",
"C 	c #C3C3C3",
"D 	c #333333",
"E 	c #686868",
"F 	c #F4F4F4",
"G 	c #C6C6C6",
"H 	c #F9F9F9",
"I 	c #E1E1E1",
"J 	c #E6E6E6",
"K 	c #6D6D6D",
"L 	c #F5F5F5",
"M 	c #C4C4C4",
"N 	c #E5E5E5",
"O 	c #F8F8F8",
"P 	c #DDDDDD",
"Q 	c #E2E2E2",
"R 	c #6A6A6A",
"S 	c #9E9E9E",
"T 	c #858585",
"U 	c #8F8F8F",
"V 	c #969696",
"W 	c #B9B9B9",
"X 	c #B3B3B3",
"Y 	c #DEDEDE",
"Z 	c #737373",
"` 	c #EBEBEB",
" .	c #9C9C9C",
"..	c #EAEAEA",
"+.	c #A5A5A5",
"@.	c #888888",
"#.	c #FEFEFE",
"$.	c #A6A6A6",
"%.	c #CBCBCB",
"&.	c #868686",
"*.	c #717171",
"=.	c #DBDBDB",
"-.	c #929292",
"  . + @ # # $ $ # # $ % & * = - ; ; > # # # # # # # $ @ + + , ' & $ ) # # # # # # # # # & > . ! ~ { + $ # # # # # # # + % . ] ^ ",
"/ . ( % _ ( : : { _ _ # ) % ' - & . # _ >   / { _ _ _ $ < < [ ] ) } + | } .     @ _ _ _ 1 # & ! ; 2 ( } % + 1 * _ _ _ + > . ] ^ ",
"  & < > _ 2 ) 1 % _ _ } ) % ' - & . } _ @ [ [ 3 _ | _ $ < < [ = 1 } + | } ;     @ _ _ _ 1 # & ! ~ * ( _ 2 4 4 ( _ | | + % . ] ^ ",
"  . < > _ _ | | | _ | } ) % ' - & . } _ | | | | _ | _ $ < < - = 1 } + | _ | | | _ _ _ _ ) > . 5   3 + _ _ _ | _ _ | | + % . 6 7 ",
"  . < > _ | | | | | | } ) % = [ & & # _ | | | | | | _ $ < < - = 1 } + | _ _ | | | | _ _ &   6 ~ ,   ) _ _ _ _ _ | | | 1 % . 6 7 ",
"  . < > _ | | | | | | } ; 1 . ) , ~ # | | | | | | | _ $ < < - = 1 } + | | | | | | | | _ . , 8 9 0 [ ) _ _ | | | | | | 1 % ; ] ^ ",
"  & < > | | | | | | | } 4 { a b = 4 # | | | | | | | _ $ < < - = 1 } + | | | | | | | | _ . 4 c d e / ) _ _ | | | | | | 1 % ; ] ^ ",
"  . < > _ | | | | | | } f _ g h = 4 } | | | | | | | _ $ < < - = 1 } + | | | | | | | | _ & 4 i d e / ) _ _ | | | | | | 1 % . ] ^ ",
"/ . < % _ | | | | | | } 4 | j h ] , } | | | | | | | _ $ < < - = 1 } + | | | | | | | | _ & 4 k l e / ) _ _ | | | | | | 1 % . ] ^ ",
"  & m > | | | | | | | } 4 | j h = , } | | | | | | | _ $ < < - = 1 } + | | | | | | | | _ & , n o p / ) _ _ | | | | | | 1 % . ] ^ ",
"  ) m > _ | | | | | | } 4 # q r = 4 } | | | | | | | _ $ < < - = 1 } + | | | | | | | | _ . , - s ; / ) _ _ | | | | | | 1 % . ] ^ ",
"/ & < > _ | | | | | | } 4 & t u ] 4 } | | | | | | | _ $ < < - = 1 } + | | | | | | | | _ & ~ v w : ; ) _ _ | | | | | | 1 % . ] ^ ",
"  & < % _ | | | | | | } f v = 6 ] , } | | | | | | | _ $ < < - = 1 } + | | | | | | | | _ ) $ ; 5 ; > + _ _ | | | | | | 1 % . ] ^ ",
"  & < % _ | | | | | | }   1 ' [ ( ) } | | | | | | | _ $ < < - = 1 } + | | | | | | | | _ ) $ ~ 5 ~ > + _ _ | | | | | | 1 % . ] ^ ",
"/ . < > _ | | | | | | } ) @ = [ m + } | | | | | | | _ $ < < - = 1 } + | | | | | | | | _ ) $ ; ! ; $ + _ _ | | | | | | 1 % . ] ^ ",
"  & m > _ | | | | | | } ) * = / { + } | | | | | | | _ $ < < - = 1 } + | | | | | | | | _ ) $ ~ ! ~ $ + _ _ | | | | | | 1 % . ] ^ ",
"  ) m % _ | | | | | | } ) @ = / { + } | | | | | | | _ $ < < - = 1 } + | | | | | | | | _ ) $   !   $ + _ _ | | | | | | 1 % . ] ^ ",
"~ ) m > _ | | | | | | } ) * = / { + } | | | | | | | _ $ < < - = 1 } + | | | | | | | | _ ) > ~ ! ~ $ + _ _ | | | | | | 1 % . ] ^ ",
"~ ) m % _ | | | | | | } ) @ = [ m + } | | | | | | | _ $ < < - = 1 } + | | | | | | | | _ ) > / 5 ~ $ + _ _ | | | | | | 1 % . ] ^ ",
"~ ) m > _ | | | | | | } ) * = [ m + } | | | | | | | _ $ < < - = 1 } + | | | | | | | | _ ) >   ! ~ $ + _ _ | | | | | | 1 % . ] ^ ",
"~ ) m > _ | | | | | | } ) @ = - < + } | | | | | | | _ $ < < - = 1 } + | | | | | | | | _ ) >   ! ~ $ + _ _ | | | | | | 1 % . ] ^ ",
"~ & m > _ | | | | | | } ) * = - < + } | | | | | | | _ $ < < - = ) } + | | | | | | | | _ ) >   ! ~ $ + _ _ | | | | | | 1 % . ] ^ ",
"  ) < > _ | | | | | | } ) * = - < + } | | | | | | | _ $ < m [ ' 1 } + | | | | | | | | _ ) >   ! ~ $ + _ _ | | | | | | 1 % . ] ^ ",
"; 1 m % _ | | | | | | } ) * = - 1 + } | | | | | | | _ $ < 3 [ ' 1 # + | | | | | | | | _ ) >   ! ~ $ + _ _ | | | | | | 1 % ; ] ^ ",
"; ( m > _ | | | | | | } ) * = - + + } | | | | | | | _ $ < 3 [ = + } + | | | | | | | | _ ) >   ! ~ $ + _ _ | | | | | | 1 % ; ] ^ ",
"v , ~ > _ | | | | | | } ) * = - + + } | | | | | | | _ > < 2 [ = < } + | | | | | | | | _ ) >   ! ~ $ + _ _ | | | | | | ) { - ' ^ ",
"x y : > _ | | | | | | } ) * = - + + } | | | | | | | _ > ~ 1 v w ; 2 1 | | | | | | | | _ ) >   ! ~ $ + _ _ | | | | | | ) * z 8 A ",
"B C v > _ | | | | | | } ) * = - + + } | | | | | | | _ $ 4 D z i 4 . 1 | | | | | | | | _ ) >   ! ~ $ + _ _ | | | | | | ) E F G ^ ",
"H C v > _ | | | | | | } ) * = - + + } | | | | | | | _ $ , : I J & . + | | | | | | | | _ ) >   ! ~ $ + _ _ | | | | | | ) K L G ^ ",
"H M v > _ | | | | | | } ) * = - + + } | | | | | | | _ $ , f N J . . + | | | | | | | | _ ) >   ! ~ $ + _ _ | | | | | | ) K L G 7 ",
"H M v > _ | | | | | | } ) * = - + + } | | | | | | | _ $ , f N q . . + | | | | | | | | _ ) >   ! ~ $ + _ _ | | | | | | ) K L G 7 ",
"H M v > _ | | | | | | } ) * = - + + } | | | | | | | _ $ , 4 N J . . + | | | | | | | | _ ) >   ! ~ $ + _ _ | | | | | | ) K L G 7 ",
"O C v > _ | | | | | | } ) * = - + + } | | | | | | | _ $ , 4 N J . . + | | | | | | | | _ ) >   ! ~ $ + _ _ | | | | | | ) K F G ^ ",
"L C D > _ | | | | | | } ) * = - + + } | | | | | | | _ $ , : P Q   ; 1 | | | | | | | | _ ) >   ! ~ $ + _ _ | | | | | | ) R F G ^ ",
"S T : > _ | | | | | | } ) * = - + + } | | | | | | | _ $ , , U V f & 1 | | | | | | | | _ ) >   ! ~ $ + _ _ | | | | | | ) s G k ^ ",
"5 ! 4 > _ | | | | | | } ) * = - + + } | | | | | | | _ $ ) > - ! ; @ 1 | | | | | | | | _ ) >   ! ~ $ + _ _ | | | | | | ) { ; = ^ ",
"  ; + > _ | | | | | _ } ) * = - + + } | | | | | | | _ $ + # [ ' ; @ 1 | | | | | | | | _ ) >   ! ~ $ + _ _ | | | | | | 1 } ( 6 ^ ",
"  ; + % _ | | | | | _ } ) * = - + + } | | | | | | | _ $ ( # / ' ; % + | | | | | | | | _ ) >   ! ~ $ + _ _ | | | | | | 1 } 1 ] 7 ",
"  ; ( > _ | | | | | _ # ) * = - + + } | | | | | | | _ $ ( # / ' ; @ 1 | | | | | | | | _ ) >   ! ~ $ + _ _ | | | | | | 1 } 1 6 ^ ",
"/ ; ( > _ | | | | | _ } ) * = - + + } | | | | | | | _ $ ( # - ' ; % 1 | | | | | | | | _ ) >   ! ~ $ + _ _ | | | | | | + _ 1 6 ^ ",
"/ ; ( > _ | | | | | _ } ) * = - + + } | | | | | | | _ $ ( # [ = ; % 1 | | | | | | | | _ ) >   ! ~ $ + _ _ | | | | | | + _ 1 6 ^ ",
"  ; ( > _ | | | | | | } ) * = - + + } | | | | | | | _ $ ( } [ = ; % 1 | | | | | | | | _ ) >   ! ~ $ + _ _ | | | | | | + _ 1 6 ^ ",
"  ; ( > _ | | | | | _ } ) * = - + + } | | | | | | | _ $ ( } [ = ; % 1 | | | | | | | | _ ) >   ! ~ $ + _ _ | | | | | | + _ 1 6 ^ ",
"  ; ( > _ | | | | | _ } ) * = - + + } | | | | | | | _ $ ( } [ = ; % 1 | | | | | | | | _ ) >   ! ~ $ + _ _ | | | | | | + _ 1 6 ^ ",
"  ; ( > _ | | | | | _ # ) * = - + + } | | | | | | | _ $ ( } [ = ; % 1 | | | | | | | | _ ) >   ! ~ $ + _ _ | | | | | | + _ 1 6 ^ ",
"  ; ( > _ | | | | | _ } ) * = - + + } | | | | | | | _ $ ( } [ = ; % 1 | | | | | | | | _ ) >   ! ~ $ + _ _ | | | | | | + } 1 6 ^ ",
"  ; ( > _ | | | | | | } ) * = - + + } | | | | | | | _ $ ( } [ = ; % 1 | | | | | | | | _ ) >   5 ~ $ + _ _ | | | | | | + } 1 6 ^ ",
"  ; ( > _ | | | | | | } ) * = - + + } | | | | | | | _ $ + # [ = ; % 1 | | | | | | | | _ ) > ~ ! ~ $ + _ _ | | | | | | + } 1 6 ^ ",
"  ; ( > _ | | | | | | } ) * ' - ( + } | | | | | | | _ $ + # [ = ; % 1 | | | | | | | | _ ) >   5   > + _ _ | | | | | | + } 1 6 ^ ",
"  ; ( > _ | | | | | | } ~ . A ! / ; } | | | | | | _ _ > + } [ = ; % 1 | | | | | | | | _ ) $ ~ ' ~ $ + _ _ | | | | | | + } 1 6 ^ ",
"  ; ( > _ | | | | | | } f 1 W X = - } | | | | | | | _ > + } [ = ; % 1 | | | | | | | | _ & . D 1 [ ( + _ _ | | | | | | + _ 1 6 ^ ",
"  ; ( > _ | | | | | | } f _ g Y ! - } | | | | | | | _ $ + } [ = ; % 1 | | | | | | | | _ & - Z `  .  1 _ _ | | | | | | + _ 1 6 ^ ",
"  ; ( > _ | | | | | | } f | ..r ! - } | | | | | | | _ $ + } [ = ; % 1 | | | | | | | | _ & - e d +./ 1 _ _ | | | | | | + _ 1 6 ^ ",
"  ; ( > _ | | | | | | } f | ..r ! - } | | | | | | | _ $ + # [ = ; % + | | | | | | | | _ & - @.#.$.  1 _ _ | | | | | | + _ 1 6 ^ ",
"  ; ( > _ | | | | | | } f _ j r ! - } | | | | | | _ _ > + } [ = ; % + | | | | | | | | _ & , @.#.$./ 1 _ _ | | | | | | + _ 1 6 ^ ",
"  ; ( > _ | | | | | | } 4 m %.C ' , } | | | | | | | _ $ + # [ = ; % + | | | | | | | | _ & , &.d +./ 1 _ _ | | | | | | + _ 1 6 ^ ",
"  ; ( > _ | | | | | _ } , f ' ] f - } | | | | | | | _ $ + # [ = ; % + | | | | | | | | _ . , *.=.-./ 1 _ _ | | | | | | + } 1 6 ^ ",
"  ; ( > _ | | | | | _ # 1 ( = - { + } _ | | | | | | _ $ + } [ = ; % + | | | | | | | | _ & - / { f   1 _ _ | | | | | | + } 1 6 ^ ",
"  ; ( > _ | | | | | _ $ 1 ( = - { + } _ _ _ _ _ _ | _ $ + # [ = ; % + | | | | | | | | _ ) 3 , 5 - < 1 _ | | | | | | | + } 1 6 ^ ",
"  ; ( > _ | | | | | _ # 1 ( = - { + } _ _ @ 2 * } _ _ $ + } [ = ; % + | | | | | | | | _ ) >   5 ~ $ + _ _ | | | | _ | + } 1 6 ^ ",
"/ ; ( % _ @ ) + # _ _ $ 1 ( ' - { + # _ _ f 5 ' @ _ _ $ + # - ' ~ % 1 | _ m / / * _ _ _ ) >   5   > + _ _ < / . } _ | 1 } ) ] ^ ",
"  ; ( > | 3 , , $ _ _ } 1 ( = - 3 ( } _ _ } # # _ _ _ $ ( # [ ' ~ % 1 | | { ~ ~ % _ | | ) %   5 ~ $ + | | 3 ; 1 _ _ | 1 _ 1 ] ^ ",
"] ] v 4 - - - - - - - , D v w ' : v , - - - - - - - - , v , = w ] 4 D - - - [ - [ - - - 6 4 = 7 ] , v - - - - - - - - D - D 5 ^ ",
"7 7 7 7 7 7 7 7 ^ 7 7 ^ 7 7 7 7 7 7 7 ^ 7 7 7 7 7 7 7 7 7 7 ^ ^ 7 7 7 7 7 7 7 7 7 7 7 7 ^ ^ 7 7 7 7 7 ^ ^ 7 7 7 7 7 7 7 7 7 ^ ^ "};
